<svg width="835" height="167" viewBox="0 0 835 167" fill="none" xmlns="http://www.w3.org/2000/svg">
<g filter="url(#filter0_d_210_389)">
<path fill-rule="evenodd" clip-rule="evenodd" d="M27.9378 8.97913C20.7925 8.97913 15 14.7174 15 21.796V133.204C15 140.283 20.7925 146.021 27.9378 146.021H161.297C168.443 146.021 174.235 140.283 174.235 133.204V21.796C174.235 14.7174 168.443 8.97913 161.297 8.97913H27.9378ZM56.079 32.6543C45.9695 33.0293 37.89 41.2666 37.89 51.3733V122.359H56.079H58.9822H94.6175V102.407H58.9822V52.5928H94.6175V32.641H58.9822H56.7992H56.079V32.6543ZM60.7801 77.9929C60.7801 73.0923 64.7902 69.1197 69.7371 69.1197H79.6892C84.6361 69.1197 88.6462 73.0923 88.6462 77.9929C88.6462 82.8935 84.6361 86.8661 79.6892 86.8661H69.7371C64.7902 86.8661 60.7801 82.8935 60.7801 77.9929ZM119.077 32.641H98.5984V117.534C98.5984 119.872 100.255 121.883 102.555 122.359H146.222C147.435 121.912 148.77 121.327 150.258 119.835C152.973 115.208 154.331 107.032 154.331 95.3055C154.331 83.6589 152.973 75.4424 150.258 70.6561C147.543 66.0293 143.084 63.7159 136.878 63.7159C134.086 63.7159 131.797 63.9552 130.013 64.4339C128.229 64.8327 121.045 68.3338 119.493 69.6102L119.077 32.641ZM131.938 86.4495C132.734 82.1115 123.976 82.6702 119.498 83.4917V106.167C129.45 108.139 132.27 106.004 132.436 104.688L131.938 86.4495Z" fill="white"/>
<mask id="mask0_210_389" style="mask-type:luminance" maskUnits="userSpaceOnUse" x="15" y="8" width="160" height="139">
<path fill-rule="evenodd" clip-rule="evenodd" d="M27.9378 8.97913C20.7925 8.97913 15 14.7174 15 21.796V133.204C15 140.283 20.7925 146.021 27.9378 146.021H161.297C168.443 146.021 174.235 140.283 174.235 133.204V21.796C174.235 14.7174 168.443 8.97913 161.297 8.97913H27.9378ZM56.079 32.6543C45.9695 33.0293 37.89 41.2666 37.89 51.3733V122.359H56.079H58.9822H94.6175V102.407H58.9822V52.5928H94.6175V32.641H58.9822H56.7992H56.079V32.6543ZM60.7801 77.9929C60.7801 73.0923 64.7902 69.1197 69.7371 69.1197H79.6892C84.6361 69.1197 88.6462 73.0923 88.6462 77.9929C88.6462 82.8935 84.6361 86.8661 79.6892 86.8661H69.7371C64.7902 86.8661 60.7801 82.8935 60.7801 77.9929ZM119.077 32.641H98.5984V117.534C98.5984 119.872 100.255 121.883 102.555 122.359H146.222C147.435 121.912 148.77 121.327 150.258 119.835C152.973 115.208 154.331 107.032 154.331 95.3055C154.331 83.6589 152.973 75.4424 150.258 70.6561C147.543 66.0293 143.084 63.7159 136.878 63.7159C134.086 63.7159 131.797 63.9552 130.013 64.4339C128.229 64.8327 121.045 68.3338 119.493 69.6102L119.077 32.641ZM131.938 86.4495C132.734 82.1115 123.976 82.6702 119.498 83.4917V106.167C129.45 108.139 132.27 106.004 132.436 104.688L131.938 86.4495Z" fill="white"/>
</mask>
<g mask="url(#mask0_210_389)">
<path d="M56.0757 32.6541L56.1129 33.6394L57.0709 33.6039V32.6541H56.0757ZM37.8868 122.359H36.8915V123.345H37.8868V122.359ZM94.6143 122.359V123.345H95.6095V122.359H94.6143ZM94.6143 102.407H95.6095V101.421H94.6143V102.407ZM58.9789 102.407H57.9837V103.393H58.9789V102.407ZM58.9789 52.5926V51.6067H57.9837V52.5926H58.9789ZM94.6143 52.5926V53.5785H95.6095V52.5926H94.6143ZM94.6143 32.6408H95.6095V31.6549H94.6143V32.6408ZM56.0757 32.6408V31.6549H55.0805V32.6408H56.0757ZM98.5951 32.6408V31.6549H97.5999V32.6408H98.5951ZM119.074 32.6408L120.069 32.6298L120.058 31.6549H119.074V32.6408ZM102.552 122.359L102.349 123.324L102.449 123.345H102.552V122.359ZM146.218 122.359V123.345H146.398L146.565 123.283L146.218 122.359ZM150.255 119.835L150.963 120.528L151.052 120.439L151.116 120.331L150.255 119.835ZM150.255 70.6559L151.123 70.1729L151.119 70.1667L151.116 70.1604L150.255 70.6559ZM130.01 64.4337L130.229 65.3954L130.25 65.3908L130.27 65.3853L130.01 64.4337ZM119.49 69.61L118.495 69.621L118.518 71.6912L120.126 70.3685L119.49 69.61ZM119.495 83.4916L119.314 82.5221L118.5 82.6715V83.4916H119.495ZM131.935 86.4493L130.956 86.2729L130.938 86.3737L130.94 86.4759L131.935 86.4493ZM119.495 106.167H118.5V106.976L119.3 107.134L119.495 106.167ZM132.433 104.688L133.42 104.811L133.43 104.737L133.428 104.662L132.433 104.688ZM15.9919 21.7958C15.9919 15.2618 21.3388 9.96486 27.9346 9.96486V7.99304C20.2395 7.99304 14.0015 14.1727 14.0015 21.7958H15.9919ZM15.9919 133.204V21.7958H14.0015V133.204H15.9919ZM27.9346 145.035C21.3388 145.035 15.9919 139.737 15.9919 133.204H14.0015C14.0015 140.827 20.2395 147.007 27.9346 147.007V145.035ZM161.294 145.035H27.9346V147.007H161.294V145.035ZM173.237 133.204C173.237 139.737 167.889 145.035 161.294 145.035V147.007C168.989 147.007 175.227 140.827 175.227 133.204H173.237ZM173.237 21.7958V133.204H175.227V21.7958H173.237ZM161.294 9.96486C167.889 9.96486 173.237 15.2618 173.237 21.7958H175.227C175.227 14.1727 168.989 7.99304 161.294 7.99304V9.96486ZM27.9346 9.96486H161.294V7.99304H27.9346V9.96486ZM38.882 51.3731C38.882 41.7986 46.5362 33.9947 56.1129 33.6394L56.0385 31.6689C45.3962 32.0638 36.8915 40.7343 36.8915 51.3731H38.882ZM38.882 122.359V51.3731H36.8915V122.359H38.882ZM56.0757 121.373H37.8868V123.345H56.0757V121.373ZM58.9789 121.373H56.0757V123.345H58.9789V121.373ZM94.6143 121.373H58.9789V123.345H94.6143V121.373ZM93.619 102.407V122.359H95.6095V102.407H93.619ZM58.9789 103.393H94.6143V101.421H58.9789V103.393ZM57.9837 52.5926V102.407H59.9742V52.5926H57.9837ZM94.6143 51.6067H58.9789V53.5785H94.6143V51.6067ZM93.619 32.6408V52.5926H95.6095V32.6408H93.619ZM58.9789 33.6267H94.6143V31.6549H58.9789V33.6267ZM56.7959 33.6267H58.9789V31.6549H56.7959V33.6267ZM56.0757 33.6267H56.7959V31.6549H56.0757V33.6267ZM57.0709 32.6541V32.6408H55.0805V32.6541H57.0709ZM69.7338 68.1336C64.2374 68.1336 59.7816 72.5477 59.7816 77.9927H61.772C61.772 73.6367 65.3366 70.1054 69.7338 70.1054V68.1336ZM79.686 68.1336H69.7338V70.1054H79.686V68.1336ZM89.6382 77.9927C89.6382 72.5477 85.1824 68.1336 79.686 68.1336V70.1054C84.0831 70.1054 87.6477 73.6367 87.6477 77.9927H89.6382ZM79.686 87.8519C85.1825 87.8519 89.6382 83.4378 89.6382 77.9927H87.6477C87.6477 82.3488 84.0831 85.88 79.686 85.88V87.8519ZM69.7338 87.8519H79.686V85.88H69.7338V87.8519ZM59.7816 77.9927C59.7816 83.4378 64.2374 87.8519 69.7338 87.8519V85.88C65.3366 85.88 61.772 82.3488 61.772 77.9927H59.7816ZM98.5951 33.6267H119.074V31.6549H98.5951V33.6267ZM99.5904 117.534V32.6408H97.5999V117.534H99.5904ZM102.756 121.394C100.916 121.013 99.5904 119.404 99.5904 117.534H97.5999C97.5999 120.34 99.5883 122.752 102.349 123.324L102.756 121.394ZM146.218 121.373H102.552V123.345H146.218V121.373ZM149.547 119.142C148.2 120.493 147.012 121.015 145.872 121.435L146.565 123.283C147.852 122.809 149.334 122.161 150.963 120.528L149.547 119.142ZM153.332 95.3053C153.332 107.019 151.965 114.959 149.395 119.34L151.116 120.331C153.975 115.457 155.323 107.045 155.323 95.3053H153.332ZM149.387 71.1389C151.967 75.6867 153.332 83.6778 153.332 95.3053H155.323C155.323 83.6395 153.973 75.1977 151.123 70.1729L149.387 71.1389ZM136.874 64.7017C142.789 64.7017 146.887 66.8786 149.395 71.1513L151.116 70.1604C148.193 65.1796 143.372 62.7299 136.874 62.7299V64.7017ZM130.27 65.3853C131.938 64.9379 134.13 64.7017 136.874 64.7017V62.7299C134.034 62.7299 131.65 62.9723 129.749 63.4821L130.27 65.3853ZM120.126 70.3685C120.437 70.1126 121.104 69.6929 122.027 69.1775C122.926 68.6744 124.009 68.113 125.104 67.5765C126.199 67.04 127.296 66.5328 128.225 66.137C129.18 65.7298 129.885 65.4724 130.229 65.3954L129.791 63.4719C129.243 63.5944 128.38 63.9243 127.439 64.3255C126.47 64.7383 125.34 65.261 124.221 65.8091C123.103 66.3573 121.988 66.9354 121.048 67.4602C120.132 67.9726 119.319 68.4692 118.854 68.8516L120.126 70.3685ZM118.079 32.6519L118.495 69.621L120.485 69.599L120.069 32.6298L118.079 32.6519ZM119.676 84.461C121.87 84.0585 125.07 83.731 127.58 84.0152C128.851 84.159 129.81 84.4461 130.382 84.847C130.654 85.0367 130.812 85.233 130.898 85.4309C130.982 85.6253 131.026 85.891 130.956 86.2729L132.914 86.6257C133.043 85.9232 132.988 85.2573 132.728 84.6552C132.469 84.0565 132.038 83.5912 131.531 83.2361C130.546 82.5474 129.184 82.2121 127.806 82.0561C125.016 81.7404 121.598 82.1032 119.314 82.5221L119.676 84.461ZM120.49 106.167V83.4916H118.5V106.167H120.49ZM131.445 104.566C131.442 104.591 131.248 105.278 129.409 105.7C127.635 106.107 124.6 106.174 119.69 105.201L119.3 107.134C124.341 108.133 127.692 108.117 129.858 107.621C131.958 107.139 133.258 106.1 133.42 104.811L131.445 104.566ZM130.94 86.4759L131.437 104.715L133.428 104.662L132.93 86.4227L130.94 86.4759Z" fill="white" fill-opacity="0.36"/>
</g>
</g>
<path d="M245.252 93.2833L229.666 89.6016C223.448 88.129 219.194 85.8791 216.903 82.852C214.694 79.8249 213.59 75.4887 213.59 69.8435C213.59 60.9258 215.921 54.3807 220.585 50.2082C225.33 45.9538 232.652 43.8267 242.552 43.8267C246.643 43.8267 250.283 43.9903 253.474 44.3176C256.665 44.6448 259.61 45.2175 262.31 46.0357V63.0939C256.092 62.0303 251.797 61.4167 249.424 61.2531C247.133 61.0894 244.72 61.0076 242.184 61.0076C238.747 61.0076 236.252 61.5803 234.698 62.7257C233.143 63.8711 232.366 65.7937 232.366 68.4936C232.366 69.8026 232.611 70.8253 233.102 71.5616C233.593 72.2162 234.534 72.707 235.925 73.0343L250.651 76.4705C254.906 77.4522 257.974 78.434 259.855 79.4158C261.737 80.3157 263.251 81.502 264.396 82.9747C265.705 84.5292 266.646 86.5336 267.219 88.988C267.873 91.4425 268.201 94.4287 268.201 97.9467C268.201 106.864 265.828 113.328 261.083 117.337C256.337 121.264 248.974 123.227 238.993 123.227C233.92 123.227 229.093 122.9 224.512 122.245C219.93 121.673 216.371 120.936 213.835 120.036V101.996C217.108 103.06 220.994 103.919 225.494 104.574C229.993 105.146 234.493 105.433 238.993 105.433C242.593 105.433 245.088 104.983 246.479 104.083C247.87 103.183 248.565 101.383 248.565 98.683C248.565 96.9649 248.32 95.7377 247.829 95.0014C247.42 94.1832 246.561 93.6105 245.252 93.2833ZM325.666 104.083V118.687C323.702 119.914 320.389 120.977 315.725 121.877C311.062 122.777 306.153 123.227 300.999 123.227C291.181 123.227 284.104 120.773 279.768 115.864C275.432 110.873 273.264 102.815 273.264 91.6879C273.264 80.8066 275.555 72.8298 280.136 67.7573C284.718 62.6848 291.958 60.1486 301.858 60.1486C311.512 60.1486 318.302 62.0712 322.229 65.9165C326.238 69.6799 328.243 76.3887 328.243 86.0427C328.243 88.6608 328.202 90.747 328.12 92.3015C328.038 93.856 327.875 95.6559 327.629 97.7012H291.795C291.876 101.056 292.776 103.387 294.494 104.696C296.213 106.005 299.362 106.66 303.944 106.66C307.871 106.66 311.88 106.414 315.971 105.924C320.061 105.351 323.293 104.737 325.666 104.083ZM301.858 75.8569C297.931 75.8569 295.272 76.5523 293.881 77.9431C292.49 79.2522 291.795 81.8702 291.795 85.7973H311.553V83.0974C311.471 80.2339 310.775 78.3113 309.466 77.3295C308.239 76.3478 305.703 75.8569 301.858 75.8569ZM355.122 122H336.713V61.3758H353.894L354.508 66.0392H354.753C357.699 64.2393 360.685 62.8893 363.712 61.9894C366.821 61.0076 369.725 60.5167 372.425 60.5167H373.407V78.3113C372.671 78.1477 371.853 78.0659 370.953 78.0659C370.134 77.984 369.071 77.9431 367.762 77.9431C365.389 77.9431 363.139 78.1068 361.012 78.434C358.885 78.6795 356.921 79.0885 355.122 79.6612V122ZM418.012 61.3758H438.016L417.153 122H396.045L375.06 61.3758H395.309L406.722 105.31L418.012 61.3758ZM462.274 54.7488H442.884V40.3905H462.274V54.7488ZM461.783 122H443.375V61.3758H461.783V122ZM517.416 103.469V118.687C515.453 119.914 512.262 120.977 507.844 121.877C503.426 122.777 498.885 123.227 494.222 123.227C485.386 123.227 479.168 120.896 475.568 116.232C472.05 111.487 470.291 103.305 470.291 91.6879C470.291 80.0703 472.582 71.9298 477.164 67.2664C481.745 62.5212 489.763 60.1486 501.217 60.1486C503.999 60.1486 506.494 60.2304 508.703 60.394C510.912 60.4758 513.285 60.6804 515.821 61.0076V77.3295C511.812 77.0023 508.908 76.8386 507.108 76.8386C505.308 76.7568 503.344 76.7159 501.217 76.7159C495.572 76.7159 492.054 77.5341 490.663 79.1703C489.354 80.7248 488.7 84.8973 488.7 91.6879C488.7 97.8239 489.231 101.751 490.295 103.469C491.44 105.187 494.017 106.046 498.026 106.046C501.299 106.046 504.694 105.801 508.212 105.31C511.812 104.819 514.88 104.205 517.416 103.469ZM575.182 104.083V118.687C573.219 119.914 569.905 120.977 565.242 121.877C560.579 122.777 555.67 123.227 550.516 123.227C540.698 123.227 533.621 120.773 529.285 115.864C524.949 110.873 522.781 102.815 522.781 91.6879C522.781 80.8066 525.071 72.8298 529.653 67.7573C534.235 62.6848 541.475 60.1486 551.375 60.1486C561.029 60.1486 567.819 62.0712 571.746 65.9165C575.755 69.6799 577.76 76.3887 577.76 86.0427C577.76 88.6608 577.719 90.747 577.637 92.3015C577.555 93.856 577.391 95.6559 577.146 97.7012H541.311C541.393 101.056 542.293 103.387 544.011 104.696C545.729 106.005 548.879 106.66 553.461 106.66C557.388 106.66 561.397 106.414 565.488 105.924C569.578 105.351 572.81 104.737 575.182 104.083ZM551.375 75.8569C547.448 75.8569 544.789 76.5523 543.398 77.9431C542.007 79.2522 541.311 81.8702 541.311 85.7973H561.07V83.0974C560.988 80.2339 560.292 78.3113 558.983 77.3295C557.756 76.3478 555.22 75.8569 551.375 75.8569Z" fill="#4D86D6"/>
<path d="M613.72 122H586.844V45.0539H613.72C621.574 45.0539 627.792 45.7084 632.373 47.0174C637.037 48.3264 640.759 50.4127 643.541 53.2762C646.323 56.1397 648.327 60.0259 649.554 64.9347C650.863 69.7617 651.518 75.9387 651.518 83.4656C651.518 96.8013 648.532 106.578 642.559 112.796C636.587 118.932 626.974 122 613.72 122ZM628.814 67.1437C627.669 65.4256 625.992 64.1984 623.783 63.462C621.574 62.6439 618.22 62.2348 613.72 62.2348H605.866V104.205H613.72C618.138 104.205 621.451 103.837 623.66 103.101C625.869 102.365 627.587 101.178 628.814 99.542C629.878 97.9876 630.655 95.9422 631.146 93.406C631.637 90.7879 631.882 87.4745 631.882 83.4656C631.882 79.3749 631.637 76.0614 631.146 73.5252C630.655 70.9071 629.878 68.78 628.814 67.1437ZM710.248 104.083V118.687C708.284 119.914 704.971 120.977 700.307 121.877C695.644 122.777 690.735 123.227 685.581 123.227C675.763 123.227 668.686 120.773 664.35 115.864C660.014 110.873 657.846 102.815 657.846 91.6879C657.846 80.8066 660.136 72.8298 664.718 67.7573C669.3 62.6848 676.54 60.1486 686.44 60.1486C696.094 60.1486 702.884 62.0712 706.811 65.9165C710.82 69.6799 712.825 76.3887 712.825 86.0427C712.825 88.6608 712.784 90.747 712.702 92.3015C712.62 93.856 712.457 95.6559 712.211 97.7012H676.377C676.458 101.056 677.358 103.387 679.076 104.696C680.794 106.005 683.944 106.66 688.526 106.66C692.453 106.66 696.462 106.414 700.553 105.924C704.643 105.351 707.875 104.737 710.248 104.083ZM686.44 75.8569C682.513 75.8569 679.854 76.5523 678.463 77.9431C677.072 79.2522 676.377 81.8702 676.377 85.7973H696.135V83.0974C696.053 80.2339 695.357 78.3113 694.048 77.3295C692.821 76.3478 690.285 75.8569 686.44 75.8569ZM745.962 75.7342C742.526 75.7342 740.194 76.0205 738.967 76.5932C737.822 77.0841 737.249 78.2704 737.249 80.1521C737.249 80.8884 737.454 81.502 737.863 81.9929C738.354 82.402 739.008 82.6474 739.826 82.7293L754.43 84.6928C759.175 85.3473 762.489 86.9018 764.37 89.3562C766.334 91.7288 767.316 95.5332 767.316 100.769C767.316 108.623 765.557 114.35 762.039 117.95C758.521 121.468 752.385 123.227 743.631 123.227C738.804 123.227 734.426 123.023 730.499 122.614C726.654 122.286 723.382 121.795 720.682 121.141V105.187C722.727 105.678 725.55 106.128 729.149 106.537C732.831 106.864 736.554 107.028 740.317 107.028C743.671 107.028 745.921 106.701 747.067 106.046C748.294 105.31 748.908 103.96 748.908 101.996C748.908 101.342 748.703 100.81 748.294 100.401C747.885 99.9102 747.353 99.6239 746.699 99.542L731.604 97.5785C727.186 97.0058 723.954 95.4104 721.909 92.7924C719.945 90.0925 718.964 86.1245 718.964 80.8884C718.964 74.0161 721.132 68.8618 725.468 65.4256C729.804 61.9076 736.226 60.1486 744.735 60.1486C748.089 60.1486 751.198 60.2304 754.062 60.394C756.925 60.5576 759.952 60.8849 763.143 61.3758V76.7159C761.098 76.3887 758.562 76.1432 755.534 75.9796C752.507 75.816 749.317 75.7342 745.962 75.7342ZM793.753 98.4376V122H775.345V40.3905H793.753V84.2019H796.576L811.916 61.3758H833.761L812.407 90.5834L834.988 122H812.53L796.576 98.4376H793.753Z" fill="#E5E7E9"/>
<defs>
<filter id="filter0_d_210_389" x="0.0340157" y="-0.000464916" width="189.167" height="166.974" filterUnits="userSpaceOnUse" color-interpolation-filters="sRGB">
<feFlood flood-opacity="0" result="BackgroundImageFix"/>
<feColorMatrix in="SourceAlpha" type="matrix" values="0 0 0 0 0 0 0 0 0 0 0 0 0 0 0 0 0 0 127 0" result="hardAlpha"/>
<feOffset dy="5.98639"/>
<feGaussianBlur stdDeviation="7.48299"/>
<feComposite in2="hardAlpha" operator="out"/>
<feColorMatrix type="matrix" values="0 0 0 0 0 0 0 0 0 0 0 0 0 0 0 0 0 0 0.18 0"/>
<feBlend mode="normal" in2="BackgroundImageFix" result="effect1_dropShadow_210_389"/>
<feBlend mode="normal" in="SourceGraphic" in2="effect1_dropShadow_210_389" result="shape"/>
</filter>
</defs>
</svg>
