<svg xmlns="http://www.w3.org/2000/svg" width="300" height="300" viewBox="0 0 300 300">
  <metadata><?xpacket begin="﻿" id="W5M0MpCehiHzreSzNTczkc9d"?>
<x:xmpmeta xmlns:x="adobe:ns:meta/" x:xmptk="Adobe XMP Core 5.6-c138 79.159824, 2016/09/14-01:09:01        ">
   <rdf:RDF xmlns:rdf="http://www.w3.org/1999/02/22-rdf-syntax-ns#">
      <rdf:Description rdf:about=""/>
   </rdf:RDF>
</x:xmpmeta>
                                                                                                    
                                                                                                    
                                                                                                    
                                                                                                    
                                                                                                    
                                                                                                    
                                                                                                    
                                                                                                    
                                                                                                    
                                                                                                    
                                                                                                    
                                                                                                    
                                                                                                    
                                                                                                    
                                                                                                    
                                                                                                    
                                                                                                    
                                                                                                    
                                                                                                    
                                                                                                    
                           
<?xpacket end="w"?></metadata>
<defs>
    <style>
      .cls-1 {
        fill: #e6e6e6;
      }

      .cls-2 {
        fill: #6a6666;
        fill-rule: evenodd;
        opacity: 0.75;
      }
    </style>
  </defs>
  <rect class="cls-1" width="300" height="300"/>
  <path id="image_Not_Found" data-name="image Not Found" class="cls-2" d="M73.277,208.973v-12.6h-2.3v12.6h2.3Zm15.5,0-1.747-12.6H85.141l-3.061,5.744L79,196.369H77.11l-1.746,12.6h2.395l1.08-8.427,3.241,5.78,3.223-5.8,1.08,8.445h2.395Zm11.987,0-4.483-12.6H94.1l-4.483,12.6h2.395l1.08-3.043h4.2l1.08,3.043h2.395ZM96.5,203.7H93.887l1.3-3.691Zm10.908,5.528a10.543,10.543,0,0,0,4.321-.955v-5.617h-3.691v1.908h1.386v2.251a8.778,8.778,0,0,1-1.728.2c-2.611,0-3.925-1.818-3.925-4.393,0-2.449,1.188-4.286,3.817-4.286a10.145,10.145,0,0,1,3.475.721l0.252-2.2a9.965,9.965,0,0,0-3.781-.738c-3.691,0-6.284,2.593-6.284,6.536C101.248,206.632,103.877,209.225,107.406,209.225Zm14.8-.252V206.74h-5.888v-3.223h4.429v-2.233h-4.429V198.6h5.708v-2.233h-8.067v12.6H122.2Zm15.984,0v-12.6h-2.3v8.138l-5.384-8.138H128.23v12.6h2.305V200.33l5.762,8.643h1.89Zm8.225,0.252c3.6,0,6.212-2.593,6.212-6.554s-2.611-6.554-6.212-6.554-6.212,2.593-6.212,6.554S142.811,209.225,146.412,209.225Zm0-10.894c2.449,0,3.691,1.819,3.691,4.34s-1.242,4.339-3.691,4.339-3.691-1.818-3.691-4.339S143.963,198.331,146.412,198.331Zm16.309,0.271v-2.233h-9.435V198.6h3.565v10.371h2.305V198.6h3.565Zm13.464,0v-2.233h-7.761v12.6h2.305v-5.456h4.213v-2.233h-4.213V198.6h5.456Zm7.055,10.623c3.6,0,6.212-2.593,6.212-6.554s-2.611-6.554-6.212-6.554-6.212,2.593-6.212,6.554S179.639,209.225,183.24,209.225Zm0-10.894c2.449,0,3.691,1.819,3.691,4.34s-1.242,4.339-3.691,4.339-3.691-1.818-3.691-4.339S180.792,198.331,183.24,198.331Zm13.3,10.894c3.547,0,5.222-2.233,5.222-5.654v-7.2h-2.305V202.8c0,2.341-.486,4.213-2.917,4.213s-2.917-1.872-2.917-4.213v-6.428h-2.3v7.2C191.321,206.992,193,209.225,196.542,209.225Zm17.8-.252v-12.6h-2.305v8.138l-5.384-8.138h-2.268v12.6h2.3V200.33l5.762,8.643h1.891Zm7.486,0a6.3,6.3,0,0,0,0-12.6h-4.717v12.6h4.717Zm0-10.389c2.449,0,3.691,1.566,3.691,4.087s-1.242,4.087-3.691,4.087h-2.413v-8.174h2.413Z"/>
  <path class="cls-2" d="M195.644,158.977L160.127,97.868c-5.528-9.511-14.583-9.516-20.121-.013l-35.641,61.136c-5.539,9.5-1.051,17.278,9.973,17.278H185.65C196.674,176.269,201.172,168.488,195.644,158.977Zm-45.252,6.531a6.113,6.113,0,1,1,6.131-6.113A6.086,6.086,0,0,1,150.392,165.508Zm4.345-16.095h-8.692l-2.926-35.279h14.545Z"/>
</svg>
