<?xml version="1.0" encoding="iso-8859-1"?>
<!-- Generator: Adobe Illustrator 19.0.0, SVG Export Plug-In . SVG Version: 6.00 Build 0)  -->
<svg version="1.1" id="Layer_1" xmlns="http://www.w3.org/2000/svg" xmlns:xlink="http://www.w3.org/1999/xlink" x="0px" y="0px"
	 viewBox="0 0 512 512" style="enable-background:new 0 0 512 512;" xml:space="preserve">
<g>
	<g>
		<path d="M484.434,115.326l-64.381,55.185L330.576,51.201c-7.395-9.845-22.725-8.587-28.294,2.549l-89.815,179.631l-83.793-83.793
			c-7.296-7.296-19.231-6.234-25.239,1.885l-70.044,94.85V16.696C33.391,7.473,25.913,0,16.696,0S0,7.473,0,16.696
			c0,100.903,0,372.787,0,478.609C0,504.527,7.479,512,16.696,512h478.609c9.217,0,16.696-7.473,16.696-16.696
			c0-147.462,0-251.887,0-367.304C512,113.725,495.212,106.085,484.434,115.326z M478.609,287.277l-58.554,50.19l-89.479-119.309
			c-7.43-9.889-22.74-8.559-28.294,2.549l-89.815,179.631l-83.793-83.793c-7.356-7.356-19.28-6.167-25.239,1.885l-70.044,94.85
			V302.537l85.392-115.625l86.457,86.457c8.068,8.081,21.669,5.791,26.739-4.336l88.087-176.185l83.967,111.951
			c5.826,7.767,16.948,8.901,24.229,2.658l50.347-43.158V287.277z"/>
	</g>
</g>
<g>
</g>
<g>
</g>
<g>
</g>
<g>
</g>
<g>
</g>
<g>
</g>
<g>
</g>
<g>
</g>
<g>
</g>
<g>
</g>
<g>
</g>
<g>
</g>
<g>
</g>
<g>
</g>
<g>
</g>
</svg>
