<?xml version="1.0" encoding="iso-8859-1"?>
<!-- Generator: Adobe Illustrator 19.0.0, SVG Export Plug-In . SVG Version: 6.00 Build 0)  -->
<svg version="1.1" id="Capa_1" xmlns="http://www.w3.org/2000/svg" xmlns:xlink="http://www.w3.org/1999/xlink" x="0px" y="0px"
	 viewBox="0 0 512 512" style="enable-background:new 0 0 512 512;" xml:space="preserve">
<g>
	<g>
		<path d="M501.333,448h-10.667V32c0-5.896-4.771-10.667-10.667-10.667H373.333c-5.896,0-10.667,4.771-10.667,10.667v416H320
			V138.667c0-5.896-4.771-10.667-10.667-10.667H202.667c-5.896,0-10.667,4.771-10.667,10.667V448h-42.667V245.333
			c0-5.896-4.771-10.667-10.667-10.667H32c-5.896,0-10.667,4.771-10.667,10.667V448H10.667C4.771,448,0,452.771,0,458.667V480
			c0,5.896,4.771,10.667,10.667,10.667h490.667c5.896,0,10.667-4.771,10.667-10.667v-21.333C512,452.771,507.229,448,501.333,448z"
			/>
	</g>
</g>
<g>
</g>
<g>
</g>
<g>
</g>
<g>
</g>
<g>
</g>
<g>
</g>
<g>
</g>
<g>
</g>
<g>
</g>
<g>
</g>
<g>
</g>
<g>
</g>
<g>
</g>
<g>
</g>
<g>
</g>
</svg>
