<svg width="496" height="496" xmlns="http://www.w3.org/2000/svg">

 <g>
  <title>background</title>
  <rect fill="none" id="canvas_background" height="402" width="582" y="-1" x="-1"/>
 </g>
 <g>
  <title>Layer 1</title>
  <g id="svg_1">
   <g id="svg_2">
    <g id="svg_3">
     <rect fill="#238fb1" id="svg_4" height="16" width="16" y="32" x="32"/>
     <rect fill="#238fb1" id="svg_5" height="16" width="16" y="32" x="64"/>
     <rect fill="#238fb1" id="svg_6" height="16" width="16" y="32" x="96"/>
     <path fill="#238fb1" id="svg_7" d="m312,312l0,184l8,0c97.048,0 176,-78.952 176,-176l0,-8l-184,0zm16,167.8l0,-28.488l25.088,25.088c-8.168,1.728 -16.52,2.976 -25.088,3.4zm80.456,-26.656l-11.312,-11.312l-11.312,11.312l8.408,8.408c-7.456,3.928 -15.2,7.36 -23.288,10.088l-42.952,-42.952l0,-33.376l46.344,46.344l11.312,-11.312l-57.656,-57.656l0,-33.376l99.176,99.176c-5.872,5.32 -12.104,10.24 -18.72,14.656zm53.088,-58.912l-47.904,-47.904l-11.312,11.312l50.816,50.816c-4.416,6.616 -9.336,12.848 -14.656,18.72l-99.176,-99.176l33.376,0l18.616,18.608l11.312,-11.312l-7.304,-7.296l33.376,0l42.944,42.944c-2.728,8.088 -6.16,15.832 -10.088,23.288zm14.856,-41.144l-25.08,-25.088l28.488,0c-0.432,8.576 -1.68,16.92 -3.408,25.088z"/>
     <path fill="#238fb1" id="svg_8" d="m464,288c0,-2.68 -0.08,-5.344 -0.2,-8l0.2,0l0,-280l-464,0l0,464l288,0l8,0l0,-168l168,0l0,-8zm-184,159.808c-84.52,-4.184 -152,-74.272 -152,-159.808c0,-41.24 15.816,-78.76 41.528,-107.16l110.472,110.472l0,156.496zm11.312,-167.808l-110.472,-110.472c28.4,-25.712 65.92,-41.528 107.16,-41.528c85.544,0 155.624,67.48 159.8,152l-156.488,0zm156.688,-65.184c-27.832,-60.608 -89.064,-102.816 -160,-102.816c-97.048,0 -176,78.952 -176,176c0,70.936 42.208,132.168 102.816,160l-198.816,0l0,-368l432,0l0,134.816zm0,-150.816l-432,0l0,-48l432,0l0,48z"/>
     <rect fill="#238fb1" id="svg_9" height="16" width="152" y="232" x="272"/>
     <rect fill="#238fb1" id="svg_10" height="16" width="16" y="184" x="272"/>
     <rect fill="#238fb1" id="svg_11" height="16" width="16" y="184" x="304"/>
     <rect fill="#238fb1" id="svg_12" height="16" width="16" y="184" x="336"/>
     <rect fill="#238fb1" id="svg_13" height="16" width="120" y="288" x="144"/>
     <rect fill="#238fb1" id="svg_14" height="16" width="16" y="320" x="248"/>
     <rect fill="#238fb1" id="svg_15" height="16" width="88" y="320" x="144"/>
     <rect fill="#238fb1" id="svg_16" height="16" width="16" y="352" x="248"/>
     <rect fill="#238fb1" id="svg_17" height="16" width="16" y="352" x="216"/>
     <rect fill="#238fb1" id="svg_18" height="16" width="16" y="352" x="184"/>
    </g>
   </g>
  </g>
  <g id="svg_19"/>
  <g id="svg_20"/>
  <g id="svg_21"/>
  <g id="svg_22"/>
  <g id="svg_23"/>
  <g id="svg_24"/>
  <g id="svg_25"/>
  <g id="svg_26"/>
  <g id="svg_27"/>
  <g id="svg_28"/>
  <g id="svg_29"/>
  <g id="svg_30"/>
  <g id="svg_31"/>
  <g id="svg_32"/>
  <g id="svg_33"/>
 </g>
</svg>