<?xml version="1.0" encoding="iso-8859-1"?>
<!-- Generator: Adobe Illustrator 19.0.0, SVG Export Plug-In . SVG Version: 6.00 Build 0)  -->
<svg version="1.1" id="Layer_1" xmlns="http://www.w3.org/2000/svg" xmlns:xlink="http://www.w3.org/1999/xlink" x="0px" y="0px"
	 viewBox="0 0 512 512" style="enable-background:new 0 0 512 512;" xml:space="preserve">
<g>
	<g>
		<g>
			<path d="M271.531,285.386h-1.941c-4.143,0-7.5,3.358-7.5,7.5c0,4.142,3.357,7.5,7.5,7.5h1.941c4.143,0,7.5-3.358,7.5-7.5
				C279.031,288.744,275.674,285.386,271.531,285.386z"/>
			<path d="M241.439,285.386h-1.941c-4.143,0-7.5,3.358-7.5,7.5c0,4.142,3.357,7.5,7.5,7.5h1.941c4.143,0,7.5-3.358,7.5-7.5
				C248.939,288.744,245.582,285.386,241.439,285.386z"/>
			<path d="M376.367,193.609h77.656c4.143,0,7.5-3.358,7.5-7.5c0-4.142-3.357-7.5-7.5-7.5h-77.656c-4.143,0-7.5,3.358-7.5,7.5
				C368.867,190.251,372.225,193.609,376.367,193.609z"/>
			<path d="M347.246,256.265H172.52c-4.143,0-7.5,3.358-7.5,7.5c0,4.142,3.357,7.5,7.5,7.5h174.727c4.143,0,7.5-3.358,7.5-7.5
				C354.747,259.623,351.389,256.265,347.246,256.265z"/>
			<path d="M75.449,424.637c4.143,0,7.5-3.358,7.5-7.5v-9.707c0-4.142-3.357-7.5-7.5-7.5c-4.143,0-7.5,3.358-7.5,7.5v9.707
				C67.949,421.279,71.307,424.637,75.449,424.637z"/>
			<path d="M211.348,285.386h-1.941c-4.143,0-7.5,3.358-7.5,7.5c0,4.142,3.357,7.5,7.5,7.5h1.941c4.143,0,7.5-3.358,7.5-7.5
				C218.848,288.744,215.49,285.386,211.348,285.386z"/>
			<path d="M269.59,115.953h77.656c4.143,0,7.5-3.358,7.5-7.5c0-4.142-3.357-7.5-7.5-7.5H269.59c-4.143,0-7.5,3.358-7.5,7.5
				C262.09,112.595,265.447,115.953,269.59,115.953z"/>
			<path d="M368.77,430.214v26.819c0,9.701,7.892,17.593,17.593,17.593c2.795,0,5.584-0.677,8.067-1.958l67.275-34.716
				c5.886-3.039,9.537-9.041,9.525-15.665c-0.012-6.624-3.682-12.613-9.579-15.631l-66.286-33.917c0-0.001-0.001-0.001-0.002-0.001
				c-2.47-1.263-5.241-1.93-8.012-1.93h-0.989c-9.701,0-17.593,7.892-17.593,17.593v26.819c-4.061,0.092-7.326,3.414-7.326,7.498
				C361.443,426.802,364.708,430.124,368.77,430.214z M383.769,388.402c0-1.43,1.163-2.593,2.593-2.593h0.989
				c0.409,0,0.817,0.098,1.182,0.285l66.286,33.917c1.225,0.627,1.41,1.712,1.411,2.303c0.001,0.591-0.179,1.678-1.404,2.309
				l-67.275,34.716c-0.365,0.189-0.776,0.289-1.188,0.289c-1.43,0-2.593-1.163-2.593-2.593v-26.816h14.294
				c4.143,0,7.5-3.358,7.5-7.5c0-4.142-3.357-7.5-7.5-7.5h-14.295V388.402z"/>
			<path d="M56.328,464.921h271.211c9.649,0,17.5-7.851,17.5-17.5v-57.656c0-9.649-7.851-17.5-17.5-17.5H56.328
				c-9.649,0-17.5,7.851-17.5,17.5v57.656C38.828,457.07,46.679,464.921,56.328,464.921z M53.828,389.765c0-1.378,1.121-2.5,2.5-2.5
				h271.211c1.379,0,2.5,1.122,2.5,2.5v57.656c0,1.378-1.121,2.5-2.5,2.5H56.328c-1.379,0-2.5-1.122-2.5-2.5V389.765z"/>
			<path d="M114.277,300.386h67.949c4.143,0,7.5-3.358,7.5-7.5c0-4.142-3.357-7.5-7.5-7.5h-67.949c-4.143,0-7.5,3.358-7.5,7.5
				C106.777,297.028,110.135,300.386,114.277,300.386z"/>
			<path d="M65.742,228.555c14.841,0,26.914-12.074,26.914-26.914c0-14.84-12.073-26.914-26.914-26.914
				s-26.914,12.074-26.914,26.914C38.828,216.481,50.901,228.555,65.742,228.555z M65.742,189.727
				c6.569,0,11.914,5.345,11.914,11.914c0,6.569-5.345,11.914-11.914,11.914c-6.569,0-11.914-5.345-11.914-11.914
				C53.828,195.071,59.173,189.727,65.742,189.727z"/>
			<path d="M65.742,150.898c14.841,0,26.914-12.074,26.914-26.914c0-14.84-12.073-26.914-26.914-26.914
				s-26.914,12.074-26.914,26.914C38.828,138.825,50.901,150.898,65.742,150.898z M65.742,112.07
				c6.569,0,11.914,5.345,11.914,11.914c0,6.569-5.345,11.914-11.914,11.914c-6.569,0-11.914-5.345-11.914-11.914
				C53.828,117.415,59.173,112.07,65.742,112.07z"/>
			<path d="M485.086,29.121H141.191V17.207C141.191,7.719,133.472,0,123.984,0H46.328C36.84,0,29.121,7.719,29.121,17.207v11.914
				h-2.207C12.073,29.121,0,41.195,0,56.035v429.051C0,499.926,12.073,512,26.914,512h458.172C499.927,512,512,499.926,512,485.086
				V56.035C512,41.194,499.927,29.121,485.086,29.121z M497,485.086c0,6.569-5.345,11.914-11.914,11.914H26.914
				C20.345,497,15,491.655,15,485.085V346.98h482V485.086z M497,331.98H15V77.424h482V331.98z M497,62.424H15v-6.389
				c0-6.57,5.345-11.914,11.914-11.914h9.62c0.059,0.001,0.115,0.001,0.174,0h19.327c4.143,0,7.5-3.358,7.5-7.5
				c0-4.142-3.357-7.5-7.5-7.5H44.121V17.207c0-1.217,0.99-2.207,2.207-2.207h77.656c1.217,0,2.207,0.99,2.207,2.207v11.914H85.156
				c-4.143,0-7.5,3.358-7.5,7.5c0,4.142,3.357,7.5,7.5,7.5h48.448c0.059,0.001,0.115,0.001,0.174,0h351.308
				c6.569,0,11.914,5.345,11.914,11.914V62.424z"/>
			<path d="M65.742,306.211c14.841,0,26.914-12.074,26.914-26.914c0-14.84-12.073-26.914-26.914-26.914
				s-26.914,12.074-26.914,26.914C38.828,294.137,50.901,306.211,65.742,306.211z M65.742,267.383
				c6.569,0,11.914,5.345,11.914,11.914c0,6.569-5.345,11.914-11.914,11.914c-6.569,0-11.914-5.345-11.914-11.914
				C53.828,272.728,59.173,267.383,65.742,267.383z"/>
			<path d="M114.277,193.609h67.949c4.143,0,7.5-3.358,7.5-7.5c0-4.142-3.357-7.5-7.5-7.5h-67.949c-4.143,0-7.5,3.358-7.5,7.5
				C106.777,190.251,110.135,193.609,114.277,193.609z"/>
			<path d="M114.277,145.074h97.07c4.143,0,7.5-3.358,7.5-7.5c0-4.142-3.357-7.5-7.5-7.5h-97.07c-4.143,0-7.5,3.358-7.5,7.5
				C106.777,141.716,110.135,145.074,114.277,145.074z"/>
			<path d="M114.277,271.265h29.121c4.143,0,7.5-3.358,7.5-7.5c0-4.142-3.357-7.5-7.5-7.5h-29.121c-4.143,0-7.5,3.358-7.5,7.5
				C106.777,267.907,110.135,271.265,114.277,271.265z"/>
			<path d="M114.277,115.953h126.191c4.143,0,7.5-3.358,7.5-7.5c0-4.142-3.357-7.5-7.5-7.5H114.277c-4.143,0-7.5,3.358-7.5,7.5
				C106.777,112.595,110.135,115.953,114.277,115.953z"/>
			<path d="M347.246,178.609H211.348c-4.143,0-7.5,3.358-7.5,7.5c0,4.142,3.357,7.5,7.5,7.5h135.898c4.143,0,7.5-3.358,7.5-7.5
				C354.746,181.967,351.389,178.609,347.246,178.609z"/>
			<path d="M114.277,222.73h242.676c4.143,0,7.5-3.358,7.5-7.5c0-4.142-3.357-7.5-7.5-7.5H114.277c-4.143,0-7.5,3.358-7.5,7.5
				C106.777,219.372,110.135,222.73,114.277,222.73z"/>
		</g>
	</g>
</g>
<g>
</g>
<g>
</g>
<g>
</g>
<g>
</g>
<g>
</g>
<g>
</g>
<g>
</g>
<g>
</g>
<g>
</g>
<g>
</g>
<g>
</g>
<g>
</g>
<g>
</g>
<g>
</g>
<g>
</g>
</svg>
