<svg width="512" height="512" xmlns="http://www.w3.org/2000/svg">

 <g>
  <title>background</title>
  <rect fill="none" id="canvas_background" height="402" width="582" y="-1" x="-1"/>
 </g>
 <g>
  <title>Layer 1</title>
  <g id="svg_1">
   <g id="svg_2">
    <g id="svg_3">
     <path fill="#238fb1" id="svg_4" d="m271.531,285.386l-1.941,0c-4.143,0 -7.5,3.358 -7.5,7.5c0,4.142 3.357,7.5 7.5,7.5l1.941,0c4.143,0 7.5,-3.358 7.5,-7.5c0,-4.142 -3.357,-7.5 -7.5,-7.5z"/>
     <path fill="#238fb1" id="svg_5" d="m241.439,285.386l-1.941,0c-4.143,0 -7.5,3.358 -7.5,7.5c0,4.142 3.357,7.5 7.5,7.5l1.941,0c4.143,0 7.5,-3.358 7.5,-7.5c0,-4.142 -3.357,-7.5 -7.5,-7.5z"/>
     <path fill="#238fb1" id="svg_6" d="m376.367,193.609l77.656,0c4.143,0 7.5,-3.358 7.5,-7.5c0,-4.142 -3.357,-7.5 -7.5,-7.5l-77.656,0c-4.143,0 -7.5,3.358 -7.5,7.5c0,4.142 3.358,7.5 7.5,7.5z"/>
     <path fill="#238fb1" id="svg_7" d="m347.246,256.265l-174.726,0c-4.143,0 -7.5,3.358 -7.5,7.5c0,4.142 3.357,7.5 7.5,7.5l174.727,0c4.143,0 7.5,-3.358 7.5,-7.5c0,-4.142 -3.358,-7.5 -7.501,-7.5z"/>
     <path fill="#238fb1" id="svg_8" d="m75.449,424.637c4.143,0 7.5,-3.358 7.5,-7.5l0,-9.707c0,-4.142 -3.357,-7.5 -7.5,-7.5c-4.143,0 -7.5,3.358 -7.5,7.5l0,9.707c0,4.142 3.358,7.5 7.5,7.5z"/>
     <path fill="#238fb1" id="svg_9" d="m211.348,285.386l-1.941,0c-4.143,0 -7.5,3.358 -7.5,7.5c0,4.142 3.357,7.5 7.5,7.5l1.941,0c4.143,0 7.5,-3.358 7.5,-7.5c0,-4.142 -3.358,-7.5 -7.5,-7.5z"/>
     <path fill="#238fb1" id="svg_10" d="m269.59,115.953l77.656,0c4.143,0 7.5,-3.358 7.5,-7.5c0,-4.142 -3.357,-7.5 -7.5,-7.5l-77.656,0c-4.143,0 -7.5,3.358 -7.5,7.5c0,4.142 3.357,7.5 7.5,7.5z"/>
     <path fill="#238fb1" id="svg_11" d="m368.77,430.214l0,26.819c0,9.701 7.892,17.593 17.593,17.593c2.795,0 5.584,-0.677 8.067,-1.958l67.275,-34.716c5.886,-3.039 9.537,-9.041 9.525,-15.665c-0.012,-6.624 -3.682,-12.613 -9.579,-15.631l-66.286,-33.917c0,-0.001 -0.001,-0.001 -0.002,-0.001c-2.47,-1.263 -5.241,-1.93 -8.012,-1.93l-0.989,0c-9.701,0 -17.593,7.892 -17.593,17.593l0,26.819c-4.061,0.092 -7.326,3.414 -7.326,7.498c0,4.084 3.265,7.406 7.327,7.496zm14.999,-41.812c0,-1.43 1.163,-2.593 2.593,-2.593l0.989,0c0.409,0 0.817,0.098 1.182,0.285l66.286,33.917c1.225,0.627 1.41,1.712 1.411,2.303c0.001,0.591 -0.179,1.678 -1.404,2.309l-67.275,34.716c-0.365,0.189 -0.776,0.289 -1.188,0.289c-1.43,0 -2.593,-1.163 -2.593,-2.593l0,-26.816l14.294,0c4.143,0 7.5,-3.358 7.5,-7.5c0,-4.142 -3.357,-7.5 -7.5,-7.5l-14.295,0l0,-26.817z"/>
     <path fill="#238fb1" id="svg_12" d="m56.328,464.921l271.211,0c9.649,0 17.5,-7.851 17.5,-17.5l0,-57.656c0,-9.649 -7.851,-17.5 -17.5,-17.5l-271.211,0c-9.649,0 -17.5,7.851 -17.5,17.5l0,57.656c0,9.649 7.851,17.5 17.5,17.5zm-2.5,-75.156c0,-1.378 1.121,-2.5 2.5,-2.5l271.211,0c1.379,0 2.5,1.122 2.5,2.5l0,57.656c0,1.378 -1.121,2.5 -2.5,2.5l-271.211,0c-1.379,0 -2.5,-1.122 -2.5,-2.5l0,-57.656z"/>
     <path fill="#238fb1" id="svg_13" d="m114.277,300.386l67.949,0c4.143,0 7.5,-3.358 7.5,-7.5c0,-4.142 -3.357,-7.5 -7.5,-7.5l-67.949,0c-4.143,0 -7.5,3.358 -7.5,7.5c0,4.142 3.358,7.5 7.5,7.5z"/>
     <path fill="#238fb1" id="svg_14" d="m65.742,228.555c14.841,0 26.914,-12.074 26.914,-26.914c0,-14.84 -12.073,-26.914 -26.914,-26.914s-26.914,12.074 -26.914,26.914c0,14.84 12.073,26.914 26.914,26.914zm0,-38.828c6.569,0 11.914,5.345 11.914,11.914c0,6.569 -5.345,11.914 -11.914,11.914c-6.569,0 -11.914,-5.345 -11.914,-11.914c0,-6.57 5.345,-11.914 11.914,-11.914z"/>
     <path fill="#238fb1" id="svg_15" d="m65.742,150.898c14.841,0 26.914,-12.074 26.914,-26.914c0,-14.84 -12.073,-26.914 -26.914,-26.914s-26.914,12.074 -26.914,26.914c0,14.841 12.073,26.914 26.914,26.914zm0,-38.828c6.569,0 11.914,5.345 11.914,11.914c0,6.569 -5.345,11.914 -11.914,11.914c-6.569,0 -11.914,-5.345 -11.914,-11.914c0,-6.569 5.345,-11.914 11.914,-11.914z"/>
     <path fill="#238fb1" id="svg_16" d="m485.086,29.121l-343.895,0l0,-11.914c0,-9.488 -7.719,-17.207 -17.207,-17.207l-77.656,0c-9.488,0 -17.207,7.719 -17.207,17.207l0,11.914l-2.207,0c-14.841,0 -26.914,12.074 -26.914,26.914l0,429.051c0,14.84 12.073,26.914 26.914,26.914l458.172,0c14.841,0 26.914,-12.074 26.914,-26.914l0,-429.051c0,-14.841 -12.073,-26.914 -26.914,-26.914zm11.914,455.965c0,6.569 -5.345,11.914 -11.914,11.914l-458.172,0c-6.569,0 -11.914,-5.345 -11.914,-11.915l0,-138.105l482,0l0,138.106zm0,-153.106l-482,0l0,-254.556l482,0l0,254.556zm0,-269.556l-482,0l0,-6.389c0,-6.57 5.345,-11.914 11.914,-11.914l9.62,0c0.059,0.001 0.115,0.001 0.174,0l19.327,0c4.143,0 7.5,-3.358 7.5,-7.5c0,-4.142 -3.357,-7.5 -7.5,-7.5l-11.914,0l0,-11.914c0,-1.217 0.99,-2.207 2.207,-2.207l77.656,0c1.217,0 2.207,0.99 2.207,2.207l0,11.914l-41.035,0c-4.143,0 -7.5,3.358 -7.5,7.5c0,4.142 3.357,7.5 7.5,7.5l48.448,0c0.059,0.001 0.115,0.001 0.174,0l351.308,0c6.569,0 11.914,5.345 11.914,11.914l0,6.389z"/>
     <path fill="#238fb1" id="svg_17" d="m65.742,306.211c14.841,0 26.914,-12.074 26.914,-26.914c0,-14.84 -12.073,-26.914 -26.914,-26.914s-26.914,12.074 -26.914,26.914c0,14.84 12.073,26.914 26.914,26.914zm0,-38.828c6.569,0 11.914,5.345 11.914,11.914c0,6.569 -5.345,11.914 -11.914,11.914c-6.569,0 -11.914,-5.345 -11.914,-11.914c0,-6.569 5.345,-11.914 11.914,-11.914z"/>
     <path fill="#238fb1" id="svg_18" d="m114.277,193.609l67.949,0c4.143,0 7.5,-3.358 7.5,-7.5c0,-4.142 -3.357,-7.5 -7.5,-7.5l-67.949,0c-4.143,0 -7.5,3.358 -7.5,7.5c0,4.142 3.358,7.5 7.5,7.5z"/>
     <path fill="#238fb1" id="svg_19" d="m114.277,145.074l97.07,0c4.143,0 7.5,-3.358 7.5,-7.5c0,-4.142 -3.357,-7.5 -7.5,-7.5l-97.07,0c-4.143,0 -7.5,3.358 -7.5,7.5c0,4.142 3.358,7.5 7.5,7.5z"/>
     <path fill="#238fb1" id="svg_20" d="m114.277,271.265l29.121,0c4.143,0 7.5,-3.358 7.5,-7.5c0,-4.142 -3.357,-7.5 -7.5,-7.5l-29.121,0c-4.143,0 -7.5,3.358 -7.5,7.5c0,4.142 3.358,7.5 7.5,7.5z"/>
     <path fill="#238fb1" id="svg_21" d="m114.277,115.953l126.191,0c4.143,0 7.5,-3.358 7.5,-7.5c0,-4.142 -3.357,-7.5 -7.5,-7.5l-126.191,0c-4.143,0 -7.5,3.358 -7.5,7.5c0,4.142 3.358,7.5 7.5,7.5z"/>
     <path fill="#238fb1" id="svg_22" d="m347.246,178.609l-135.898,0c-4.143,0 -7.5,3.358 -7.5,7.5c0,4.142 3.357,7.5 7.5,7.5l135.898,0c4.143,0 7.5,-3.358 7.5,-7.5c0,-4.142 -3.357,-7.5 -7.5,-7.5z"/>
     <path fill="#238fb1" id="svg_23" d="m114.277,222.73l242.676,0c4.143,0 7.5,-3.358 7.5,-7.5c0,-4.142 -3.357,-7.5 -7.5,-7.5l-242.676,0c-4.143,0 -7.5,3.358 -7.5,7.5c0,4.142 3.358,7.5 7.5,7.5z"/>
    </g>
   </g>
  </g>
  <g id="svg_24"/>
  <g id="svg_25"/>
  <g id="svg_26"/>
  <g id="svg_27"/>
  <g id="svg_28"/>
  <g id="svg_29"/>
  <g id="svg_30"/>
  <g id="svg_31"/>
  <g id="svg_32"/>
  <g id="svg_33"/>
  <g id="svg_34"/>
  <g id="svg_35"/>
  <g id="svg_36"/>
  <g id="svg_37"/>
  <g id="svg_38"/>
 </g>
</svg>