<?xml version="1.0" encoding="iso-8859-1"?>
<!-- Generator: Adobe Illustrator 19.0.0, SVG Export Plug-In . SVG Version: 6.00 Build 0)  -->
<svg version="1.1" id="Capa_1" xmlns="http://www.w3.org/2000/svg" xmlns:xlink="http://www.w3.org/1999/xlink" x="0px" y="0px"
	 viewBox="0 0 512 512" style="enable-background:new 0 0 512 512;" xml:space="preserve">
<path style="fill:#009A8E;" d="M512,256c0,141.385-114.615,256-256,256S0,397.385,0,256S114.615,0,256,0S512,114.615,512,256z"/>
<path style="fill:#FFC143;" d="M512,30v30c0,16.568-13.431,30-30,30H369.807c-4.22,16.445-14.266,30.552-27.807,40
	c-13.541-9.448-23.587-23.555-27.807-40H292c-16.569,0-30-13.432-30-30V30c0-16.568,13.431-30,30-30h190
	C498.569,0,512,13.432,512,30z"/>
<path style="fill:#FFB509;" d="M313.75,90H292c-16.569,0-30-13.432-30-30V30c0-16.568,13.431-30,30-30h21.75
	c-16.569,0-30,13.432-30,30v30C283.75,76.568,297.181,90,313.75,90z"/>
<path style="fill:#FF9500;" d="M462,24.5v11c0,1.104-0.896,2-2,2H294c-1.104,0-2-0.896-2-2v-11c0-1.104,0.896-2,2-2h166
	C461.104,22.5,462,23.396,462,24.5z M358,52.5h-64c-1.104,0-2,0.896-2,2v11c0,1.104,0.896,2,2,2h64c1.104,0,2-0.896,2-2v-11
	C360,53.396,359.104,52.5,358,52.5z M401.25,52.5c-4.142,0-7.5,3.358-7.5,7.5s3.358,7.5,7.5,7.5s7.5-3.358,7.5-7.5
	S405.392,52.5,401.25,52.5z M377.5,52.5c-4.142,0-7.5,3.358-7.5,7.5s3.358,7.5,7.5,7.5s7.5-3.358,7.5-7.5S381.642,52.5,377.5,52.5z
	 M425,52.5c-4.142,0-7.5,3.358-7.5,7.5s3.358,7.5,7.5,7.5s7.5-3.358,7.5-7.5S429.142,52.5,425,52.5z"/>
<path style="fill:#D9E7EC;" d="M471,266.041v17.918c0,13.3-4.409,26.232-12.557,36.744c-19.134,24.684-42.684,45.772-69.463,62.085
	c-7.04,44.021-26.05,84.045-53.581,116.641C310.4,507.577,283.719,512,256,512s-54.4-4.423-79.399-12.572
	c-27.531-32.595-46.541-72.619-53.581-116.641c-26.779-16.312-50.329-37.401-69.463-62.085C45.409,310.191,41,297.259,41,283.959
	v-17.918c0-13.3,4.409-26.232,12.557-36.744C98.481,171.344,167.735,133.206,246,130.199V92.125
	c-7.264-3.663-12.25-11.185-12.25-19.875C233.75,59.962,243.712,50,256,50s22.25,9.962,22.25,22.25
	c0,8.69-4.986,16.212-12.25,19.875v38.074c78.265,3.007,147.519,41.146,192.443,99.099C466.591,239.809,471,252.741,471,266.041z"/>
<path style="fill:#C5D3DD;" d="M256,417c48.91,0,94.614-13.717,133.478-37.514c-1.322,9.059-3.149,17.953-5.45,26.655
	c-37.057,23.402-80.96,36.946-128.028,36.946c-24.627,0-48.384-3.715-70.75-10.606c-7.566-2.331-14.793,4.542-12.662,12.167
	c5.938,21.251,13.715,41.415,23.098,60.186c-6.461-1.561-12.825-3.366-19.085-5.406c-27.531-32.595-46.523-72.624-53.562-116.645
	c-26.784-16.312-50.344-37.393-69.482-62.081C45.409,310.191,41,297.259,41,283.959v-17.918c0-13.3,4.409-26.232,12.557-36.744
	c34.98-45.125,84.712-78.238,141.963-92.106c-45.015,17.957-84.035,49.062-112.963,88.955C74.409,237.382,70,251.206,70,265.423
	v19.154c0,14.217,4.409,28.041,12.557,39.277c24.97,34.434,57.463,62.312,94.835,80.847C202.161,412.686,228.576,417,256,417z
	 M330.5,310c35.898,0,65-29.102,65-65s-29.102-65-65-65s-65,29.102-65,65S294.602,310,330.5,310z M116.5,245
	c0,35.898,29.102,65,65,65s65-29.102,65-65s-29.102-65-65-65S116.5,209.102,116.5,245z"/>
<path style="fill:#9FACBA;" d="M286,345c0,14.019-13.178,25-30,25s-30-10.981-30-25c0-5.522,4.477-10,10-10s10,4.478,10,10
	c0,1.763,3.796,5,10,5c6.203,0,10-3.237,10-5c0-5.522,4.478-10,10-10S286,339.478,286,345z"/>
<path style="fill:#174550;" d="M385.5,245c0,30.375-24.624,55-55,55s-55-24.625-55-55c0-5.203,0.738-10.229,2.088-15h-43.176
	c1.35,4.771,2.088,9.797,2.088,15c0,30.375-24.624,55-55,55s-55-24.625-55-55s24.624-55,55-55c19.304,0,36.274,9.954,46.088,25
	h56.823c9.814-15.046,26.784-25,46.088-25C360.876,190,385.5,214.625,385.5,245z"/>
<path style="fill:#8BEBDB;" d="M221.5,245c0,22.091-17.909,40-40,40s-40-17.909-40-40s17.909-40,40-40S221.5,222.909,221.5,245z
	 M330.5,205c-22.091,0-40,17.909-40,40s17.909,40,40,40s40-17.909,40-40S352.591,205,330.5,205z"/>
<path style="fill:#5EE2C5;" d="M221.5,245c0,20.206-14.985,36.903-34.446,39.607c9.588-9.094,15.78-23.448,15.78-39.607
	s-6.192-30.514-15.78-39.607C206.515,208.097,221.5,224.794,221.5,245z M336.054,205.393c9.588,9.094,15.78,23.448,15.78,39.607
	s-6.192,30.514-15.78,39.607C355.515,281.903,370.5,265.206,370.5,245S355.515,208.097,336.054,205.393z"/>
<g>
</g>
<g>
</g>
<g>
</g>
<g>
</g>
<g>
</g>
<g>
</g>
<g>
</g>
<g>
</g>
<g>
</g>
<g>
</g>
<g>
</g>
<g>
</g>
<g>
</g>
<g>
</g>
<g>
</g>
</svg>
