<?xml version="1.0"?>
<svg xmlns="http://www.w3.org/2000/svg" xmlns:xlink="http://www.w3.org/1999/xlink" version="1.1" id="Capa_1" x="0px" y="0px" viewBox="0 0 512.002 512.002" style="enable-background:new 0 0 512.002 512.002;" xml:space="preserve" width="512px" height="512px" class=""><g><g>
	<g>
		<path d="M407.447,340c57.651,0,104.555-46.903,104.555-104.555c0-57.652-46.903-104.557-104.555-104.557    c-3.146,0-6.295,0.141-9.425,0.422c-7.823-23.761-26.419-43.044-49.976-51.666C341.927,34.458,303.102,0,256.77,0    c-37.049,0-70.228,22.126-84.658,55.742c-60.933,3.402-109.464,54.05-109.464,115.818c0,6.879,0.604,13.719,1.804,20.446    C28.118,196.851,0,228.042,0,265.678C0,306.659,33.342,340,74.324,340h102.677v54.725h-58.267c-4.452-17.233-20.131-30-38.734-30    c-22.056,0-40,17.944-40,40c0,22.056,17.944,40,40,40c18.604,0,34.282-12.768,38.734-30h68.267c5.522,0,10-4.478,10-10V340h49    v93.268c-17.232,4.452-30,20.131-30,38.734c0,22.056,17.944,40,40,40c22.057,0,40.001-17.944,40.001-40    c0-18.604-12.768-34.282-30.001-38.734V340h49.001v64.725c0,5.522,4.477,10,10,10h68.266c4.452,17.232,20.131,30,38.734,30    c22.056,0,40-17.944,40-40c0-22.056-17.944-40-40-40c-18.604,0-34.282,12.767-38.734,30h-58.266V340H407.447z M80,424.725    c-11.028,0-20-8.972-20-20c0-11.028,8.972-20,20-20s20,8.972,20,20C100,415.753,91.028,424.725,80,424.725z M432.002,384.725    c11.028,0,20,8.972,20,20c0,11.028-8.972,20-20,20s-20-8.972-20-20C412.002,393.696,420.974,384.725,432.002,384.725z     M276.002,472.002c0,11.028-8.973,20-20.001,20s-20-8.972-20-20s8.972-20,20-20C267.029,452.002,276.002,460.974,276.002,472.002z     M325.041,320.002c-0.014,0-0.025-0.002-0.039-0.002c-0.014,0-0.025,0.002-0.039,0.002H256.04c-0.014,0-0.026-0.002-0.039-0.002    s-0.025,0.002-0.039,0.002H187.04c-0.014,0-0.026-0.002-0.039-0.002s-0.025,0.002-0.039,0.002H74.324    C44.37,320,20,295.631,20,265.678c0-29.954,24.37-54.324,54.324-54.324c0.739,0,1.474,0.02,2.206,0.049    c3.198,0.145,6.294-1.307,8.273-3.844c1.979-2.538,2.614-5.872,1.71-8.96c-2.564-8.753-3.865-17.85-3.865-27.038    c0-52.935,43.065-96,96.06-95.998l0.184,0.003c4.356,0.094,8.211-2.667,9.61-6.767C198.472,39.61,225.906,20,256.77,20    c38.107,0,69.728,29.767,71.986,67.767c0.255,4.294,3.228,7.943,7.381,9.063c22.503,6.063,40.048,24.728,44.698,47.549    c1.085,5.323,6.229,8.809,11.567,7.846c4.928-0.886,9.99-1.335,15.045-1.335c46.624,0,84.555,37.932,84.555,84.557    c0,46.624-37.931,84.555-84.555,84.555H325.041z" data-original="#000000" class="active-path" data-old_color="#ffffff" fill="#ffffff"/>
	</g>
</g><g>
	<g>
		<path d="M278.136,35.915C271.307,33.317,264.118,32,256.77,32c-22.875,0-43.463,12.683-53.73,33.099    c-2.482,4.934-0.494,10.945,4.44,13.426c1.441,0.726,2.975,1.068,4.485,1.068c3.659,0,7.186-2.017,8.941-5.509    C227.758,60.463,241.499,52,256.77,52c4.909,0,9.705,0.878,14.255,2.608c5.165,1.965,10.938-0.63,12.902-5.791    C285.891,43.655,283.298,37.879,278.136,35.915z" data-original="#000000" class="active-path" data-old_color="#ffffff" fill="#ffffff"/>
	</g>
</g><g>
	<g>
		<path d="M205.306,87.653c-5.23-1.779-10.91,1.01-12.693,6.236l-0.187,0.547c-1.782,5.227,1.01,10.91,6.236,12.693    c1.07,0.364,2.159,0.538,3.229,0.538c4.16,0,8.046-2.617,9.464-6.774l0.187-0.547C213.324,95.118,210.532,89.436,205.306,87.653z" data-original="#000000" class="active-path" data-old_color="#ffffff" fill="#ffffff"/>
	</g>
</g></g> </svg>
