<?xml version="1.0"?>
<svg xmlns="http://www.w3.org/2000/svg" xmlns:xlink="http://www.w3.org/1999/xlink" version="1.1" id="Capa_1" x="0px" y="0px" viewBox="0 0 512 512" style="enable-background:new 0 0 512 512;" xml:space="preserve" width="512px" height="512px" class=""><g><g>
	<g>
		<path d="M478.789,222.789c-14.83,0-27.418,9.771-31.672,23.213h-86.652c-1.139-0.525-2.303-1.01-3.491-1.445    c0.8-4.389,1.202-8.855,1.202-13.363c0-17.667-6.217-33.904-16.564-46.66l56.594-56.593c4.678,2.44,9.904,3.739,15.331,3.739    c0.968,0,1.927-0.049,2.879-0.13l15.53,37.492c1.596,3.851,5.319,6.176,9.243,6.176c1.275,0,2.571-0.246,3.823-0.764    c5.103-2.114,7.525-7.964,5.412-13.066l-15.53-37.493c0.731-0.615,1.444-1.26,2.128-1.943c6.273-6.273,9.728-14.614,9.728-23.485    c0-8.871-3.455-17.212-9.728-23.483c-6.273-6.274-14.613-9.729-23.485-9.729c-8.872,0-17.212,3.455-23.484,9.729    c-6.273,6.272-9.728,14.613-9.728,23.484c0,5.427,1.299,10.653,3.739,15.332l-57.027,57.026    c-12.151-8.693-27.013-13.83-43.06-13.83c-6.145,0-12.172,0.758-17.974,2.203V64.885c6.077-1.924,11.4-5.552,15.413-10.32    l37.508,15.536c1.252,0.519,2.548,0.764,3.823,0.764c3.924,0,7.647-2.325,9.243-6.176c2.113-5.103-0.31-10.952-5.412-13.066    l-37.495-15.53c0.082-0.949,0.133-1.908,0.133-2.879C289.214,14.899,274.315,0,256.001,0c-18.314,0-33.214,14.899-33.214,33.213    c0,14.83,9.771,27.418,23.214,31.672v102.553c-8.914,5.31-16.717,12.487-22.806,21.182c-3.159-0.775-6.413-1.174-9.674-1.174    c-3.646,0-7.178,0.488-10.54,1.396l-75.042-75.044c2.44-4.679,3.739-9.904,3.739-15.332c0-0.967-0.049-1.927-0.13-2.879    l37.492-15.529c5.103-2.114,7.525-7.964,5.412-13.066c-2.114-5.102-7.963-7.524-13.066-5.412l-37.493,15.529    c-0.615-0.73-1.259-1.442-1.942-2.126c-6.273-6.274-14.613-9.729-23.485-9.729c-8.872,0-17.212,3.455-23.484,9.729    c-6.273,6.272-9.729,14.613-9.729,23.484c0,8.871,3.454,17.212,9.729,23.486c6.272,6.272,14.613,9.728,23.484,9.728    c5.427,0,10.652-1.299,15.331-3.739l71.256,71.257c-5.277,5.235-9.13,11.906-10.898,19.377    c-17.377,2.666-32.255,13.004-41.074,27.43H64.885c-1.923-6.078-5.552-11.403-10.321-15.416L70.1,193.079    c2.113-5.103-0.309-10.952-5.412-13.066c-5.103-2.107-10.952,0.311-13.066,5.412L36.09,222.922    c-0.949-0.082-1.907-0.133-2.877-0.133C14.899,222.789,0,237.688,0,256.002c0,18.313,14.899,33.213,33.213,33.213    c14.829,0,27.417-9.771,31.671-23.211h60.57c-0.613,3.393-0.939,6.883-0.939,10.449c0,26.182,17.272,48.402,41.021,55.871    l-51.738,51.737c-4.678-2.441-9.903-3.739-15.331-3.739c-0.967,0-1.927,0.049-2.879,0.13l-15.53-37.492    c-2.114-5.102-7.962-7.521-13.066-5.412c-5.103,2.114-7.525,7.964-5.412,13.066l15.53,37.493c-0.731,0.615-1.444,1.26-2.128,1.943    c-6.273,6.273-9.728,14.614-9.728,23.485s3.455,17.212,9.728,23.483c6.273,6.274,14.613,9.73,23.485,9.73    c8.872,0,17.212-3.455,23.484-9.729c6.273-6.272,9.729-14.613,9.729-23.484c0-5.427-1.299-10.653-3.739-15.332l63.196-63.194    h54.865v112.107c-6.078,1.924-11.402,5.553-15.416,10.322l-37.506-15.537c-5.102-2.113-10.952,0.309-13.065,5.411    c-2.114,5.103,0.309,10.952,5.411,13.065l37.495,15.531c-0.082,0.95-0.133,1.908-0.133,2.879    c0,18.314,14.899,33.213,33.214,33.213c18.314,0,33.213-14.899,33.213-33.213c0-14.83-9.771-27.418-23.213-31.672V335.01h54.864    l63.196,63.194c-2.44,4.679-3.739,9.904-3.739,15.332c0,0.967,0.049,1.927,0.13,2.879l-37.492,15.529    c-5.103,2.114-7.525,7.964-5.412,13.066c1.596,3.851,5.319,6.176,9.243,6.176c1.275,0,2.571-0.246,3.823-0.764l37.492-15.529    c0.616,0.731,1.26,1.442,1.943,2.126c6.273,6.274,14.613,9.73,23.485,9.73s17.212-3.455,23.484-9.729    c6.273-6.272,9.728-14.613,9.728-23.484c0-8.871-3.454-17.212-9.728-23.486c-6.273-6.272-14.613-9.728-23.484-9.728    c-5.427,0-10.652,1.299-15.331,3.739l-49.695-49.694c22.084-3.672,38.978-22.9,38.978-46.012c0-8.077-2.045-15.7-5.667-22.353    h65.296c1.924,6.078,5.553,11.401,10.321,15.414l-15.536,37.507c-2.113,5.102,0.31,10.952,5.412,13.066    c1.252,0.518,2.548,0.764,3.823,0.764c3.924,0,7.647-2.325,9.243-6.176l15.531-37.495c0.949,0.082,1.907,0.133,2.877,0.133    c18.314,0,33.213-14.899,33.213-33.213C512.002,237.689,497.102,222.789,478.789,222.789z M404.193,89.123    c2.496-2.495,5.814-3.87,9.343-3.87s6.847,1.375,9.344,3.871c2.495,2.495,3.869,5.813,3.869,9.342s-1.374,6.848-3.869,9.344    c-1.245,1.244-2.694,2.21-4.272,2.864c-0.004,0.002-0.009,0.003-0.013,0.005c-0.004,0.002-0.008,0.004-0.012,0.006    c-1.579,0.651-3.287,0.994-5.047,0.994c-3.527,0-6.844-1.372-9.338-3.864c-0.002-0.001-0.003-0.003-0.005-0.005    s-0.003-0.003-0.005-0.005c-2.493-2.496-3.865-5.813-3.865-9.339C400.323,94.938,401.697,91.619,404.193,89.123z M107.815,107.806    c-0.001,0.002-0.003,0.003-0.005,0.005c-0.002,0.002-0.003,0.003-0.005,0.005c-2.495,2.492-5.811,3.864-9.338,3.864    c-3.53-0.001-6.848-1.375-9.343-3.869c-2.496-2.497-3.87-5.815-3.87-9.345c0-3.528,1.374-6.847,3.87-9.343    c2.496-2.495,5.813-3.87,9.343-3.87c3.529,0,6.847,1.375,9.344,3.871c1.243,1.243,2.207,2.69,2.862,4.267    c0.002,0.006,0.004,0.011,0.006,0.017c0.002,0.005,0.005,0.009,0.007,0.014c0.652,1.579,0.994,3.285,0.994,5.045    C111.68,101.994,110.307,105.311,107.815,107.806z M33.213,269.215c-7.285,0-13.213-5.928-13.213-13.213    c0-7.285,5.928-13.213,13.213-13.213c7.285,0,13.213,5.928,13.213,13.213C46.426,263.287,40.499,269.215,33.213,269.215z     M107.809,422.879c-2.496,2.495-5.813,3.87-9.343,3.87c-3.529,0-6.847-1.375-9.344-3.871c-2.495-2.495-3.869-5.813-3.869-9.342    c0-3.529,1.374-6.848,3.869-9.344c1.245-1.244,2.694-2.21,4.273-2.864c0.005-0.002,0.009-0.003,0.013-0.005    c0.004-0.002,0.008-0.004,0.012-0.006c1.579-0.651,3.287-0.994,5.047-0.994c3.527,0,6.844,1.372,9.338,3.864    c0.002,0.001,0.003,0.003,0.005,0.005s0.003,0.003,0.005,0.005c2.493,2.496,3.865,5.813,3.865,9.339    C111.679,417.065,110.305,420.383,107.809,422.879z M404.187,404.197c0.002-0.002,0.004-0.003,0.006-0.005    s0.003-0.003,0.004-0.005c2.496-2.492,5.813-3.864,9.339-3.864c3.529,0,6.847,1.374,9.343,3.868    c2.496,2.497,3.87,5.815,3.87,9.345c0,3.528-1.374,6.847-3.87,9.343c-2.496,2.495-5.814,3.87-9.343,3.87s-6.847-1.375-9.344-3.871    c-1.245-1.245-2.211-2.695-2.866-4.274c-0.001-0.003-0.002-0.006-0.003-0.009c-0.001-0.003-0.003-0.006-0.004-0.009    c-0.653-1.58-0.996-3.289-0.996-5.05C400.323,410.009,401.695,406.692,404.187,404.197z M242.787,33.213    C242.788,25.928,248.715,20,256.001,20c7.285,0,13.213,5.928,13.213,13.213c0,7.285-5.928,13.213-13.213,13.213    C248.715,46.426,242.787,40.498,242.787,33.213z M269.214,478.789c0,7.285-5.927,13.213-13.213,13.213    c-7.286,0-13.214-5.928-13.214-13.213c0-7.285,5.928-13.213,13.214-13.213C263.286,465.576,269.214,471.504,269.214,478.789z     M340.835,315.01H183.071c-21.26,0-38.556-17.297-38.556-38.557s17.296-38.557,38.556-38.557c5.523,0,10-4.477,10-10    c0-11.276,9.175-20.451,20.451-20.451c3.29,0,6.429,0.755,9.329,2.244c4.846,2.488,10.789,0.64,13.371-4.154    c9.482-17.605,27.78-28.541,47.753-28.541c29.886,0,54.2,24.313,54.2,54.199c0,5.992-0.971,11.878-2.884,17.493    c-0.98,2.877-0.599,6.044,1.037,8.606c1.635,2.563,4.348,4.241,7.37,4.563c3.345,0.357,6.484,1.319,9.32,2.771    c0.207,0.122,0.42,0.235,0.637,0.342c8.308,4.542,13.832,13.35,13.832,23.388C367.488,303.053,355.531,315.01,340.835,315.01z     M478.789,269.215c-7.285,0-13.213-5.928-13.213-13.213c0-7.285,5.928-13.213,13.213-13.213c7.285,0,13.213,5.928,13.213,13.213    C492.001,263.287,486.074,269.215,478.789,269.215z" data-original="#000000" class="active-path" data-old_color="#ffffff" fill="#ffffff"/>
	</g>
</g><g>
	<g>
		<path d="M352.004,62.155l-0.26-0.107c-5.104-2.109-10.952,0.316-13.063,5.42c-2.109,5.103,0.318,10.952,5.421,13.062l0.26,0.107    c1.25,0.517,2.544,0.762,3.817,0.762c3.926,0,7.651-2.328,9.245-6.182C359.534,70.114,357.108,64.265,352.004,62.155z" data-original="#000000" class="active-path" data-old_color="#ffffff" fill="#ffffff"/>
	</g>
</g><g>
	<g>
		<path d="M199.889,56.463c-2.11-5.105-7.958-7.529-13.063-5.42l-0.26,0.108c-5.104,2.11-7.53,7.959-5.42,13.062    c1.595,3.853,5.319,6.181,9.246,6.181c1.273,0,2.567-0.245,3.817-0.762l0.26-0.107C199.573,67.415,201.999,61.566,199.889,56.463z    " data-original="#000000" class="active-path" data-old_color="#ffffff" fill="#ffffff"/>
	</g>
</g><g>
	<g>
		<path d="M75.216,154.576c-5.104-2.109-10.952,0.316-13.063,5.42l-0.107,0.26c-2.109,5.104,0.318,10.953,5.421,13.063    c1.25,0.517,2.544,0.762,3.817,0.762c3.926,0,7.651-2.328,9.245-6.182l0.107-0.26C82.746,162.535,80.32,156.687,75.216,154.576z" data-original="#000000" class="active-path" data-old_color="#ffffff" fill="#ffffff"/>
	</g>
</g><g>
	<g>
		<path d="M69.631,317.792l-0.107-0.26c-2.11-5.104-7.957-7.529-13.063-5.42c-5.104,2.11-7.53,7.959-5.42,13.063l0.107,0.26    c1.594,3.854,5.318,6.182,9.245,6.182c1.273,0,2.567-0.245,3.817-0.762C69.315,328.744,71.742,322.896,69.631,317.792z" data-original="#000000" class="active-path" data-old_color="#ffffff" fill="#ffffff"/>
	</g>
</g><g>
	<g>
		<path d="M167.9,431.472l-0.26-0.107c-5.104-2.109-10.952,0.316-13.063,5.42c-2.11,5.103,0.316,10.952,5.42,13.063l0.26,0.107    c1.25,0.517,2.544,0.762,3.817,0.762c3.926,0,7.651-2.328,9.245-6.182C175.43,439.431,173.003,433.582,167.9,431.472z" data-original="#000000" class="active-path" data-old_color="#ffffff" fill="#ffffff"/>
	</g>
</g><g>
	<g>
		<path d="M330.855,447.79c-2.11-5.104-7.958-7.528-13.062-5.42l-0.26,0.107c-5.104,2.11-7.53,7.959-5.42,13.063    c1.594,3.854,5.318,6.182,9.245,6.182c1.273,0,2.567-0.245,3.817-0.762l0.26-0.107    C330.539,458.743,332.965,452.894,330.855,447.79z" data-original="#000000" class="active-path" data-old_color="#ffffff" fill="#ffffff"/>
	</g>
</g><g>
	<g>
		<path d="M444.535,338.683c-5.103-2.11-10.952,0.315-13.063,5.42l-0.107,0.26c-2.11,5.104,0.316,10.952,5.42,13.063    c1.25,0.517,2.544,0.762,3.817,0.762c3.926,0,7.651-2.328,9.245-6.182l0.107-0.26    C452.065,346.642,449.638,340.793,444.535,338.683z" data-original="#000000" class="active-path" data-old_color="#ffffff" fill="#ffffff"/>
	</g>
</g><g>
	<g>
		<path d="M460.96,186.827l-0.107-0.26c-2.11-5.104-7.957-7.528-13.063-5.42c-5.103,2.111-7.53,7.96-5.419,13.063l0.107,0.26    c1.594,3.854,5.318,6.182,9.245,6.182c1.273,0,2.567-0.245,3.817-0.762C460.644,197.78,463.07,191.931,460.96,186.827z" data-original="#000000" class="active-path" data-old_color="#ffffff" fill="#ffffff"/>
	</g>
</g></g> </svg>
