<?xml version="1.0"?>
<svg xmlns="http://www.w3.org/2000/svg" xmlns:xlink="http://www.w3.org/1999/xlink" version="1.1" id="Capa_1" x="0px" y="0px" viewBox="0 0 512.002 512.002" style="enable-background:new 0 0 512.002 512.002;" xml:space="preserve" width="512px" height="512px" class=""><g><g>
	<g>
		<path d="M336.118,379.464l-31.656-34.53c-3.732-4.071-10.058-4.346-14.129-0.613c-4.071,3.732-4.346,10.058-0.613,14.129    l25.461,27.772l-25.461,27.772c-3.733,4.071-3.458,10.396,0.613,14.129c1.92,1.76,4.341,2.629,6.755,2.629    c2.705,0,5.402-1.091,7.374-3.242l31.656-34.53C339.623,389.157,339.623,383.288,336.118,379.464z" data-original="#000000" class="active-path" data-old_color="#00A8FF" fill="#0091FF"/>
	</g>
</g><g>
	<g>
		<path d="M196.821,386.221l25.461-27.772c3.733-4.071,3.458-10.396-0.613-14.129c-4.071-3.733-10.397-3.457-14.129,0.613    l-31.656,34.53c-3.505,3.823-3.505,9.692,0,13.516l31.656,34.53c1.972,2.151,4.668,3.242,7.374,3.242    c2.414,0,4.835-0.869,6.755-2.629c4.071-3.732,4.346-10.058,0.613-14.129L196.821,386.221z" data-original="#000000" class="active-path" data-old_color="#00A8FF" fill="#0091FF"/>
	</g>
</g><g>
	<g>
		<path d="M268.909,338.049c-5.336-1.431-10.818,1.736-12.247,7.071l-20.64,77.026c-1.43,5.335,1.736,10.818,7.071,12.248    c0.867,0.232,1.738,0.343,2.595,0.343c4.415,0,8.456-2.947,9.653-7.414l20.64-77.026    C277.409,344.961,274.243,339.478,268.909,338.049z" data-original="#000000" class="active-path" data-old_color="#00A8FF" fill="#0091FF"/>
	</g>
</g><g>
	<g>
		<path d="M422.502,161.001c-5.724,0-11.366,0.532-16.894,1.589c2.022-9.319,3.042-18.854,3.042-28.515    C408.649,60.146,348.504,0,274.575,0c-73.252,0-132.972,59.046-134.059,132.044c-10.853-3.611-22.306-5.485-33.795-5.485    C47.874,126.56,0,174.434,0,233.28C0,292.126,47.874,340,106.721,340h19.28v162.002c0,5.523,4.477,10,10,10h240    c5.523,0,10-4.477,10-10V340h36.501c49.351,0,89.5-40.149,89.5-89.5C512.002,201.15,471.853,161.001,422.502,161.001z     M366.001,492.002h-220V240.44h154.724v55.276c0,5.523,4.477,10,10,10h55.276V492.002z M320.725,285.716v-31.134l31.134,31.134    H320.725z M422.502,320h-36.501v-23.888c0.005-0.133,0.02-0.263,0.02-0.396c0-2.89-1.231-5.489-3.192-7.315l-65.033-65.033    c-1.853-1.854-4.45-2.929-7.071-2.929H136.001c-5.523,0-10,4.477-10,10V320h-19.28C58.903,320,20,281.098,20,233.28    s38.903-86.72,86.721-86.72c14.067,0,27.486,3.263,39.884,9.699c3.27,1.697,7.206,1.46,10.246-0.617    c3.041-2.077,4.695-5.656,4.305-9.318c-0.435-4.078-0.655-8.199-0.655-12.249C160.501,71.173,211.674,20,274.575,20    s114.074,51.173,114.074,114.074c0,13.76-2.427,27.217-7.213,39.998c-1.408,3.76-0.431,7.997,2.481,10.761    c2.912,2.763,7.195,3.519,10.876,1.915c8.759-3.813,18.081-5.747,27.709-5.747c38.322,0,69.5,31.177,69.5,69.499    C492.002,288.822,460.824,320,422.502,320z" data-original="#000000" class="active-path" data-old_color="#00A8FF" fill="#0091FF"/>
	</g>
</g><g>
	<g>
		<path d="M238.572,48.713c-2.687-4.825-8.777-6.56-13.602-3.872c-23.081,12.853-40.092,33.783-47.897,58.935    c-1.637,5.275,1.313,10.878,6.587,12.515c0.987,0.306,1.985,0.452,2.967,0.452c4.266,0,8.217-2.751,9.548-7.039    c6.274-20.22,19.956-37.049,38.525-47.389C239.526,59.628,241.259,53.539,238.572,48.713z" data-original="#000000" class="active-path" data-old_color="#00A8FF" fill="#0091FF"/>
	</g>
</g><g>
	<g>
		<path d="M182.501,123.653c-5.523,0-10,4.477-10,10v0.421c0,5.523,4.477,10,10,10c5.523,0,10-4.477,10-10v-0.421    C192.501,128.13,188.024,123.653,182.501,123.653z" data-original="#000000" class="active-path" data-old_color="#00A8FF" fill="#0091FF"/>
	</g>
</g></g> </svg>
