<?xml version="1.0" encoding="iso-8859-1"?>
<!-- Generator: Adobe Illustrator 16.0.0, SVG Export Plug-In . SVG Version: 6.00 Build 0)  -->
<!DOCTYPE svg PUBLIC "-//W3C//DTD SVG 1.1//EN" "http://www.w3.org/Graphics/SVG/1.1/DTD/svg11.dtd">
<svg version="1.1" id="Capa_1" xmlns="http://www.w3.org/2000/svg" xmlns:xlink="http://www.w3.org/1999/xlink" x="0px" y="0px"
	 width="396.219px" height="396.219px" viewBox="0 0 396.219 396.219" style="enable-background:new 0 0 396.219 396.219;"
	 xml:space="preserve">
<g>
	<g>
		<path d="M268.038,26.154c0,0-10.962-26.154-69.922-26.154s-69.921,26.155-69.921,26.155s-0.01,81.036-0.018,163.695
			c49.521,4.52,61.111,28.565,62.365,31.558l0.777,1.854l0.009,119.352c2.204,0.084,4.45,0.139,6.779,0.139s4.575-0.055,6.779-0.139
			l0.025-180.512l0.777-1.854c1.254-2.992,12.841-27.035,62.352-31.557L268.038,26.154z M231.92,35.745
			c-9.184,3.895-21.189,6.039-33.804,6.039c-12.613,0-24.619-2.145-33.803-6.039c-7.595-3.221-10.509-6.501-11.196-7.69
			c0.688-1.191,3.601-4.471,11.196-7.691c9.184-3.895,21.19-6.04,33.803-6.04c12.614,0,24.62,2.145,33.804,6.04
			c7.596,3.22,10.51,6.5,11.197,7.691C242.43,29.244,239.516,32.524,231.92,35.745z"/>
		<path d="M354.757,164.112c0,0-10.963-26.154-69.923-26.154c-58.959,0-69.92,26.155-69.92,26.155s-0.025,123.708-0.027,213.075
			c0,0,21.207,19.031,69.94,19.031s69.94-19.031,69.94-19.031L354.757,164.112z M318.638,173.703
			c-9.184,3.894-21.189,6.039-33.804,6.039c-12.611,0-24.618-2.145-33.803-6.039c-7.595-3.221-10.509-6.501-11.195-7.69
			c0.687-1.191,3.602-4.471,11.195-7.691c9.185-3.895,21.19-6.04,33.803-6.04c12.614,0,24.62,2.145,33.804,6.04
			c7.596,3.22,10.511,6.5,11.197,7.691C329.148,167.202,326.233,170.482,318.638,173.703z"/>
		<path d="M111.399,199.119c-58.96,0-69.921,26.154-69.921,26.154s-0.025,62.547-0.027,151.914c0,0,21.207,19.031,69.94,19.031
			c48.733,0,69.941-19.031,69.941-19.031l-0.012-151.914C181.32,225.273,170.359,199.119,111.399,199.119z M145.201,234.863
			c-9.183,3.895-21.189,6.041-33.803,6.041c-12.613,0-24.619-2.146-33.803-6.041c-7.595-3.219-10.509-6.5-11.196-7.689
			c0.688-1.189,3.602-4.471,11.196-7.691c9.184-3.895,21.19-6.041,33.803-6.041c12.614,0,24.62,2.146,33.803,6.041
			c7.596,3.221,10.511,6.5,11.198,7.691C155.712,228.361,152.797,231.645,145.201,234.863z"/>
	</g>
</g>
<g>
</g>
<g>
</g>
<g>
</g>
<g>
</g>
<g>
</g>
<g>
</g>
<g>
</g>
<g>
</g>
<g>
</g>
<g>
</g>
<g>
</g>
<g>
</g>
<g>
</g>
<g>
</g>
<g>
</g>
</svg>
