<?xml version="1.0" encoding="iso-8859-1"?>
<!-- Generator: Adobe Illustrator 19.0.0, SVG Export Plug-In . SVG Version: 6.00 Build 0)  -->
<svg version="1.1" id="Capa_1" xmlns="http://www.w3.org/2000/svg" xmlns:xlink="http://www.w3.org/1999/xlink" x="0px" y="0px"
	 viewBox="0 0 512 512" style="enable-background:new 0 0 512 512;" xml:space="preserve">
<circle style="fill:#AEC1ED;" cx="267" cy="256" r="245"/>
<circle style="fill:#02AF8E;" cx="267" cy="256" r="245"/>
<path style="fill:#FFAF10;" d="M155.482,161.46c0-16.973,4.302-32.959,11.869-46.928V56.828c0-2.75-2.25-5-5-5H5c-2.75,0-5,2.25-5,5
	v102.638c0,2.75,2.25,5,5,5h62.283c2.75,0,6.669,1.509,8.709,3.354l32.938,29.786c2.04,1.845,3.709,1.104,3.709-1.646v-26.493
	c0-2.75,2.25-5,5-5h37.843L155.482,161.46L155.482,161.46z"/>
<path style="fill:#EF9614;" d="M19.843,159.466V56.828c0-2.75,2.25-5,5-5H5c-2.75,0-5,2.25-5,5v102.638c0,2.75,2.25,5,5,5h19.843
	C22.093,164.466,19.843,162.216,19.843,159.466z"/>
<g>
	<path style="fill:#DB722C;" d="M130.896,89.943H35.994c-4.142,0-7.5-3.357-7.5-7.5s3.358-7.5,7.5-7.5h94.902
		c4.143,0,7.5,3.357,7.5,7.5S135.039,89.943,130.896,89.943z"/>
	<path style="fill:#DB722C;" d="M130.896,113.709H35.994c-4.142,0-7.5-3.357-7.5-7.5s3.358-7.5,7.5-7.5h94.902
		c4.143,0,7.5,3.357,7.5,7.5S135.039,113.709,130.896,113.709z"/>
	<path style="fill:#DB722C;" d="M83.633,137.474H35.994c-4.142,0-7.5-3.357-7.5-7.5c0-4.143,3.358-7.5,7.5-7.5h47.639
		c4.143,0,7.5,3.357,7.5,7.5C91.133,134.116,87.775,137.474,83.633,137.474z"/>
</g>
<path style="fill:#1A2B63;" d="M169.482,199.194V161.46c0-46.783,38.061-84.844,84.844-84.844h25.348
	c46.783,0,84.844,38.061,84.844,84.844v37.734c5.477,0.133,10.602,1.709,15,4.374V161.46c0-55.054-44.79-99.844-99.844-99.844
	h-25.348c-55.054,0-99.844,44.79-99.844,99.844v42.108C158.881,200.903,164.006,199.327,169.482,199.194z"/>
<g>
	<path style="fill:#FE3745;" d="M179.178,259.373v-59.881c0-0.446,0.025-0.875,0.032-1.316h-8.982
		c-17.382,0-31.473,14.091-31.473,31.473v17.306c0,17.381,14.091,31.472,31.473,31.472h11.037
		C179.902,272.289,179.178,265.914,179.178,259.373z"/>
	<path style="fill:#FE3745;" d="M363.772,198.176h-8.982c0.007,0.441,0.032,0.87,0.032,1.316v59.881
		c0,6.541-0.725,12.916-2.088,19.053h11.037c17.382,0,31.473-14.091,31.473-31.472v-17.306
		C395.244,212.267,381.153,198.176,363.772,198.176z"/>
</g>
<path style="fill:#B7092B;" d="M181.236,278.293c-16.053-1.435-28.638-14.914-28.638-31.339v-17.306
	c0-15.725,11.533-28.755,26.602-31.096c0.002-0.127,0.008-0.251,0.01-0.377h-8.982c-17.382,0-31.473,14.091-31.473,31.473v17.306
	c0,17.381,14.091,31.472,31.473,31.472h11.037C181.256,278.381,181.246,278.337,181.236,278.293z"/>
<path style="fill:#AEC1ED;" d="M385.647,354.847h-47.373c-0.121,1.122-0.573,2.207-1.348,2.981l-36.766,36.768
	c-0.697,0.697-1.597,1.081-2.533,1.081c-1.053-0.001-2.024-0.469-2.733-1.317l-23.923-28.655c-1.046-1.253-2.456-1.942-3.972-1.942
	s-2.926,0.69-3.972,1.942l-23.923,28.655c-0.709,0.85-1.68,1.317-2.732,1.317c-0.936,0-1.835-0.384-2.532-1.081l-36.768-36.768
	c-0.774-0.774-1.227-1.859-1.347-2.981h-47.374c-15.098,0-27.38,12.283-27.38,27.38v70.509C161.753,483.055,212.279,501,267,501
	s105.247-17.945,146.027-48.265v-70.509C413.027,367.13,400.744,354.847,385.647,354.847z"/>
<path style="fill:#B7092B;" d="M252.474,439.267l5.613,11.273c4.903,9.847,12.925,9.847,17.828,0l5.611-11.271L275.6,407.56
	l16.522-16.522l-21.15-25.334c-1.046-1.253-2.456-1.942-3.972-1.942s-2.926,0.69-3.972,1.942l-21.15,25.334L258.4,407.56
	L252.474,439.267z"/>
<path style="fill:#293D7C;" d="M385.647,354.847h-47.373c-0.121,1.122-0.573,2.207-1.348,2.981L306.354,388.4l-30.439,61.14
	c-4.903,9.847-12.925,9.847-17.828,0l-30.439-61.137l-30.575-30.575c-0.774-0.774-1.227-1.859-1.347-2.981h-47.374
	c-15.098,0-27.38,12.283-27.38,27.38v70.509C161.753,483.055,212.279,501,267,501s105.247-17.945,146.027-48.265v-70.509
	C413.027,367.13,400.744,354.847,385.647,354.847z"/>
<path style="fill:#1A2B63;" d="M140.815,382.227c0-15.097,12.282-27.38,27.38-27.38h-19.843c-15.098,0-27.38,12.283-27.38,27.38
	v70.509c6.383,4.745,13.004,9.188,19.843,13.305V382.227z"/>
<path style="fill:#FFFFFF;" d="M322.129,327.683c-15.083,12.196-34.266,19.514-55.129,19.514s-40.047-7.317-55.13-19.515
	l-16.18,23.217c-1.573,2.256-1.268,5.692,0.676,7.637l36.768,36.768c1.944,1.944,4.977,1.808,6.739-0.303l23.923-28.655
	c1.763-2.11,4.646-2.11,6.408,0L294.127,395c1.762,2.11,4.795,2.247,6.74,0.303l36.766-36.768c1.945-1.944,2.25-5.381,0.678-7.637
	L322.129,327.683z"/>
<path style="fill:#D9EAFC;" d="M215.533,350.898l9.887-14.186c-4.803-2.593-9.335-5.622-13.55-9.03l-16.18,23.217
	c-1.573,2.256-1.268,5.692,0.676,7.637l36.768,36.768c1.944,1.944,4.977,1.808,6.739-0.303l5.824-6.977l-29.488-29.488
	C214.265,356.591,213.96,353.154,215.533,350.898z"/>
<path style="fill:#DB722C;" d="M307.049,110.704c-6.635,0-12.957,1.33-18.723,3.729c5.853,7.21,10.099,15.769,12.203,25.13
	c32.433,6.274,55.293,23.738,55.293,60.929v-41.015C355.822,132.54,333.986,110.704,307.049,110.704z"/>
<path style="fill:#EF8318;" d="M267,136.696c12.374,0,24.155,0.939,34.857,3.13c-6.049-28.217-31.111-49.374-61.135-49.374
	c-34.543,0-62.545,28-62.545,62.543v47.497C178.178,151.438,217.944,136.696,267,136.696z"/>
<path style="fill:#DB722C;" d="M195.816,156.391v-3.395c0-31.558,23.375-57.642,53.754-61.916c-2.891-0.411-5.844-0.627-8.848-0.627
	c-34.543,0-62.545,28-62.545,62.543v47.497C178.178,180.568,184.738,166.305,195.816,156.391z"/>
<path style="fill:#FFE2B8;" d="M355.822,259.373c0,49.057-39.768,88.823-88.822,88.823l0,0c-49.056,0-88.822-39.767-88.822-88.823
	v-59.881c0-49.055,39.767-63.796,88.822-63.796l0,0c49.055,0,88.822,14.741,88.822,63.796V259.373z"/>
<path style="fill:#FFC987;" d="M195.816,259.373v-59.881c0-46.078,35.087-61.878,80.002-63.627c-2.9-0.112-5.842-0.169-8.818-0.169
	c-49.056,0-88.822,14.741-88.822,63.796v59.881c0,49.057,39.767,88.823,88.822,88.823c2.977,0,5.918-0.152,8.818-0.439
	C230.903,343.33,195.816,305.452,195.816,259.373z"/>
<g>
	<path style="fill:#A53535;" d="M224.686,241.648c-5.155,0-9.334-4.178-9.334-9.334v-16.179c0-5.155,4.179-9.334,9.334-9.334
		c5.156,0,9.334,4.179,9.334,9.334v16.179C234.02,237.47,229.842,241.648,224.686,241.648z"/>
	<path style="fill:#A53535;" d="M309.315,241.648c-5.156,0-9.334-4.178-9.334-9.334v-16.179c0-5.155,4.178-9.334,9.334-9.334
		c5.154,0,9.334,4.179,9.334,9.334v16.179C318.648,237.47,314.469,241.648,309.315,241.648z"/>
	<path style="fill:#A53535;" d="M275.09,262.768h-11.201c-7.893,0-14.313-6.42-14.313-14.313v-26.549
		c0-5.155,4.179-9.334,9.334-9.334c5.156,0,9.334,4.179,9.334,9.334v22.192h6.846c5.154,0,9.334,4.18,9.334,9.334
		C284.424,258.589,280.244,262.768,275.09,262.768z"/>
</g>
<path style="fill:#F87EAB;" d="M265,302h12c5.931,0,11.232,2.375,14.719,6.084c5.357-5.918,8.625-13.761,8.625-22.353
	c0-4.317-3.498-7.815-7.816-7.815h-51.057c-4.316,0-7.814,3.498-7.814,7.815c0,11.012,5.369,20.79,13.623,26.865
	C250.023,306.41,256.921,302,265,302z"/>
<path style="fill:#E26693;" d="M258.37,303.057c-3.086-5.053-4.871-10.983-4.871-17.325c0-4.317,3.498-7.815,7.815-7.815h-19.843
	c-4.316,0-7.814,3.498-7.814,7.815c0,11.012,5.369,20.79,13.623,26.865C249.23,308.197,253.281,304.711,258.37,303.057z"/>
<path style="fill:#1A2B63;" d="M364.5,278.407V303c0,4.136-3.364,7.5-7.5,7.5h-63.397c1.523,2.372,2.397,5.098,2.397,8
	c0,2.505-0.665,4.871-1.82,7H357c12.406,0,22.5-10.094,22.5-22.5v-28.791C375.068,276.772,369.957,278.283,364.5,278.407z"/>
<path style="fill:#445EA0;" d="M297,318.5c0,9.625-9,17.5-20,17.5h-12c-11,0-20-7.875-20-17.5s9-17.5,20-17.5h12
	C288,301,297,308.875,297,318.5z"/>
<g>
</g>
<g>
</g>
<g>
</g>
<g>
</g>
<g>
</g>
<g>
</g>
<g>
</g>
<g>
</g>
<g>
</g>
<g>
</g>
<g>
</g>
<g>
</g>
<g>
</g>
<g>
</g>
<g>
</g>
</svg>
