<svg width="512" height="512" xmlns="http://www.w3.org/2000/svg">

 <g>
  <title>background</title>
  <rect fill="none" id="canvas_background" height="402" width="582" y="-1" x="-1"/>
 </g>
 <g>
  <title>Layer 1</title>
  <g id="svg_1">
   <g id="svg_2">
    <path fill="#238fb1" id="svg_3" d="m312.461,332.734l-112.922,0c-8.511,0 -15.434,6.923 -15.434,15.434l0,34.634c0,8.511 6.923,15.435 15.434,15.435l112.923,0c8.511,0 15.435,-6.923 15.435,-15.435l0,-34.634c-0.002,-8.51 -6.925,-15.434 -15.436,-15.434zm-4.41,45.659l-104.103,0l0,-25.814l104.103,0l0,25.814z"/>
   </g>
  </g>
  <g id="svg_4">
   <g id="svg_5">
    <path fill="#238fb1" id="svg_6" d="m506.976,246.958l0.159,-0.08l-74.405,-147.104c-6.015,-11.89 -18.025,-19.275 -31.346,-19.275l-14.141,0l0,-13.675c0,-5.48 -4.442,-9.922 -9.922,-9.922l-242.641,0c-5.48,0 -9.922,4.442 -9.922,9.922l0,13.675l-14.141,0c-13.321,0 -25.331,7.385 -31.346,19.275l-74.406,147.104l0.159,0.08c-3.187,5.249 -5.024,11.405 -5.024,17.981l0,155.409c0,19.162 15.59,34.751 34.752,34.751l442.497,0c19.162,0 34.751,-15.59 34.751,-34.751l0,-155.409c0,-6.576 -1.837,-12.732 -5.024,-17.981zm-119.734,-144.41l14.141,0c4.959,0 9.43,2.751 11.671,7.179l60.93,120.462l-41.431,0l0,-37.066c0,-5.48 -4.442,-9.922 -9.922,-9.922l-12.275,0l0,-53.227c0,-5.48 -4.442,-9.922 -9.922,-9.922l-13.192,0l0,-17.504zm25.468,100.496l0,27.144l-52.359,0c-8.984,0 -17.174,5.293 -20.865,13.482l-14.296,31.71c-0.136,0.299 -0.435,0.493 -0.764,0.493l-136.851,0c-0.329,0 -0.628,-0.194 -0.764,-0.494l-14.295,-31.708c-3.692,-8.19 -11.882,-13.483 -20.866,-13.483l-52.359,0l0,-27.144l313.419,0zm-268.108,-126.298l222.796,0l0,43.305l-222.796,0l0,-43.305zm245.91,63.149l0,43.305l-269.024,0l0,-43.305l269.024,0zm-291.566,-30.168c2.24,-4.429 6.712,-7.179 11.671,-7.179l14.141,0l0,17.503l-13.192,0c-5.48,0 -9.922,4.442 -9.922,9.922l0,53.227l-12.275,0c-5.48,0 -9.922,4.442 -9.922,9.922l0,37.066l-41.431,0l60.93,-120.461zm378.303,323.322l-442.497,0c-7.004,0 -12.703,-5.699 -12.703,-12.701l0,-155.409c0,-7.003 5.698,-12.701 12.703,-12.701l116.898,0c0.328,0 0.629,0.194 0.765,0.495l14.295,31.708c3.692,8.19 11.881,13.481 20.865,13.481l136.85,0c8.984,0 17.174,-5.292 20.865,-13.48l14.296,-31.709l0,-0.001c0.136,-0.3 0.435,-0.494 0.764,-0.494l116.898,0c7.004,0 12.701,5.699 12.701,12.701l0,155.409l0.001,0c0.001,7.004 -5.697,12.701 -12.701,12.701z"/>
   </g>
  </g>
  <g id="svg_7"/>
  <g id="svg_8"/>
  <g id="svg_9"/>
  <g id="svg_10"/>
  <g id="svg_11"/>
  <g id="svg_12"/>
  <g id="svg_13"/>
  <g id="svg_14"/>
  <g id="svg_15"/>
  <g id="svg_16"/>
  <g id="svg_17"/>
  <g id="svg_18"/>
  <g id="svg_19"/>
  <g id="svg_20"/>
  <g id="svg_21"/>
 </g>
</svg>