<?xml version="1.0" encoding="iso-8859-1"?>
<!-- Generator: Adobe Illustrator 19.0.0, SVG Export Plug-In . SVG Version: 6.00 Build 0)  -->
<svg version="1.1" id="Capa_1" xmlns="http://www.w3.org/2000/svg" xmlns:xlink="http://www.w3.org/1999/xlink" x="0px" y="0px"
	 viewBox="0 0 510.947 510.947" style="enable-background:new 0 0 510.947 510.947;" xml:space="preserve">
<g>
	<g>
		<g>
			<path d="M500.261,265.614H371.313c-5.146,0-9.563,3.677-10.49,8.74c-2.74,14.865-8.438,28.667-16.948,41.021
				c-2.927,4.24-2.396,9.958,1.24,13.594l91.198,91.198c2,2.01,4.719,3.125,7.542,3.125c0.156,0,0.313,0,0.458-0.01
				c2.99-0.125,5.792-1.51,7.708-3.792c33.969-40.448,54.333-89.656,58.865-142.292c0.26-2.979-0.75-5.927-2.76-8.125
				C506.104,266.864,503.25,265.614,500.261,265.614z"/>
			<path d="M330.032,344.052c-3.646-3.635-9.365-4.177-13.594-1.24c-17.865,12.302-38.76,18.802-60.427,18.802
				c-58.813,0-106.667-47.854-106.667-106.667c0-51.438,36.698-95.51,87.26-104.813c5.063-0.927,8.74-5.344,8.74-10.49V10.697
				c0-2.99-1.25-5.844-3.458-7.865c-2.198-2.031-5.177-3.135-8.125-2.76C102.688,11.375,0.011,123.333,0.011,254.947
				c0,141.156,114.844,256,256,256c60.052,0,118.49-21.302,164.542-59.99c2.281-1.927,3.667-4.719,3.792-7.708
				c0.125-2.979-1-5.885-3.115-8L330.032,344.052z"/>
			<path d="M275.417,150.135c43.146,7.938,77.469,42.26,85.406,85.406c0.927,5.063,5.344,8.74,10.49,8.74h128.958
				c2.99,0,5.844-1.25,7.865-3.458c2.021-2.198,3.021-5.146,2.76-8.125C500.177,108.614,402.344,10.781,278.261,0.072
				c-2.896-0.271-5.927,0.74-8.125,2.76c-2.208,2.021-3.458,4.875-3.458,7.865v128.948
				C266.677,144.791,270.354,149.208,275.417,150.135z"/>
		</g>
	</g>
</g>
<g>
</g>
<g>
</g>
<g>
</g>
<g>
</g>
<g>
</g>
<g>
</g>
<g>
</g>
<g>
</g>
<g>
</g>
<g>
</g>
<g>
</g>
<g>
</g>
<g>
</g>
<g>
</g>
<g>
</g>
</svg>
