<?xml version="1.0" encoding="iso-8859-1"?>
<!-- Generator: Adobe Illustrator 19.0.0, SVG Export Plug-In . SVG Version: 6.00 Build 0)  -->
<svg version="1.1" id="Layer_1" xmlns="http://www.w3.org/2000/svg" xmlns:xlink="http://www.w3.org/1999/xlink" x="0px" y="0px"
	 viewBox="0 0 482.2 482.2" style="enable-background:new 0 0 482.2 482.2;" xml:space="preserve">
<circle style="fill:#54C0EB;" cx="241.1" cy="241.1" r="241.1"/>
<path style="fill:#324A5E;" d="M368.4,407.8H113.8c-2.9,0-5.2-2.3-5.2-5.2V79.7c0-2.9,2.3-5.2,5.2-5.2h254.6c2.9,0,5.2,2.3,5.2,5.2
	v322.9C373.6,405.4,371.3,407.8,368.4,407.8z"/>
<rect x="193.7" y="102.1" style="fill:#FFFFFF;" width="158.4" height="265.9"/>
<rect x="130.1" y="102.1" style="fill:#E6E9EE;" width="63.7" height="265.9"/>
<path style="fill:#FF7058;" d="M307.2,180.7c0,20.8-16.9,37.7-37.7,37.7c-20.8,0-37.7-16.9-37.7-37.7s16.9-37.7,37.7-37.7v37.7
	H307.2z"/>
<path style="fill:#FFD05B;" d="M314.1,173.8h-37.7v-37.7C297.2,136.1,314.1,153,314.1,173.8z"/>
<g>
	<rect x="308.3" y="269.9" style="fill:#4CDBC4;" width="15.6" height="73.4"/>
	<rect x="279.5" y="287.9" style="fill:#4CDBC4;" width="15.6" height="55.4"/>
	<rect x="250.7" y="301.5" style="fill:#4CDBC4;" width="15.6" height="41.7"/>
	<rect x="221.9" y="311.8" style="fill:#4CDBC4;" width="15.6" height="31.5"/>
</g>
<g>
	<circle style="fill:#2B3B4E;" cx="241.1" cy="387.2" r="11.4"/>
	<path style="fill:#2B3B4E;" d="M252.8,91.8h-23.4c-1.4,0-2.6-1.2-2.6-2.6l0,0c0-1.4,1.2-2.6,2.6-2.6h23.4c1.4,0,2.6,1.2,2.6,2.6
		l0,0C255.4,90.7,254.2,91.8,252.8,91.8z"/>
</g>
<g>
</g>
<g>
</g>
<g>
</g>
<g>
</g>
<g>
</g>
<g>
</g>
<g>
</g>
<g>
</g>
<g>
</g>
<g>
</g>
<g>
</g>
<g>
</g>
<g>
</g>
<g>
</g>
<g>
</g>
</svg>
