<?xml version="1.0" encoding="iso-8859-1"?>
<!-- Generator: Adobe Illustrator 19.0.0, SVG Export Plug-In . SVG Version: 6.00 Build 0)  -->
<svg version="1.1" id="Capa_1" xmlns="http://www.w3.org/2000/svg" xmlns:xlink="http://www.w3.org/1999/xlink" x="0px" y="0px"
	 viewBox="0 0 496 496" style="enable-background:new 0 0 496 496;" xml:space="preserve">
<g>
	<g>
		<g>
			<rect x="32" y="32" width="16" height="16"/>
			<rect x="64" y="32" width="16" height="16"/>
			<rect x="96" y="32" width="16" height="16"/>
			<path d="M312,312v184h8c97.048,0,176-78.952,176-176v-8H312z M328,479.8v-28.488l25.088,25.088
				C344.92,478.128,336.568,479.376,328,479.8z M408.456,453.144l-11.312-11.312l-11.312,11.312l8.408,8.408
				c-7.456,3.928-15.2,7.36-23.288,10.088L328,428.688v-33.376l46.344,46.344l11.312-11.312L328,372.688v-33.376l99.176,99.176
				C421.304,443.808,415.072,448.728,408.456,453.144z M461.544,394.232l-47.904-47.904l-11.312,11.312l50.816,50.816
				c-4.416,6.616-9.336,12.848-14.656,18.72L339.312,328h33.376l18.616,18.608l11.312-11.312L395.312,328h33.376l42.944,42.944
				C468.904,379.032,465.472,386.776,461.544,394.232z M476.4,353.088L451.32,328h28.488
				C479.376,336.576,478.128,344.92,476.4,353.088z"/>
			<path d="M464,288c0-2.68-0.08-5.344-0.2-8h0.2V0H0v464h288h8V296h168V288z M280,447.808C195.48,443.624,128,373.536,128,288
				c0-41.24,15.816-78.76,41.528-107.16L280,291.312V447.808z M291.312,280L180.84,169.528C209.24,143.816,246.76,128,288,128
				c85.544,0,155.624,67.48,159.8,152H291.312z M448,214.816C420.168,154.208,358.936,112,288,112c-97.048,0-176,78.952-176,176
				c0,70.936,42.208,132.168,102.816,160H16V80h432V214.816z M448,64H16V16h432V64z"/>
			<rect x="272" y="232" width="152" height="16"/>
			<rect x="272" y="184" width="16" height="16"/>
			<rect x="304" y="184" width="16" height="16"/>
			<rect x="336" y="184" width="16" height="16"/>
			<rect x="144" y="288" width="120" height="16"/>
			<rect x="248" y="320" width="16" height="16"/>
			<rect x="144" y="320" width="88" height="16"/>
			<rect x="248" y="352" width="16" height="16"/>
			<rect x="216" y="352" width="16" height="16"/>
			<rect x="184" y="352" width="16" height="16"/>
		</g>
	</g>
</g>
<g>
</g>
<g>
</g>
<g>
</g>
<g>
</g>
<g>
</g>
<g>
</g>
<g>
</g>
<g>
</g>
<g>
</g>
<g>
</g>
<g>
</g>
<g>
</g>
<g>
</g>
<g>
</g>
<g>
</g>
</svg>
