<?xml version="1.0" encoding="iso-8859-1"?>
<!-- Generator: Adobe Illustrator 19.0.0, SVG Export Plug-In . SVG Version: 6.00 Build 0)  -->
<svg version="1.1" id="Capa_1" xmlns="http://www.w3.org/2000/svg" xmlns:xlink="http://www.w3.org/1999/xlink" x="0px" y="0px"
	 viewBox="0 0 480 480" style="enable-background:new 0 0 480 480;" xml:space="preserve">
<path style="fill:#FCD821;" d="M176,272v72c0,39.764,28.654,72,64,72s64-32.236,64-72v-72H176z"/>
<path style="fill:#7ECEC6;" d="M469.419,4.819C399.828-5.277,328.853,0.539,261.834,21.83L240,32v-0.577l-21.834-9.592
	C150.26,0.536,78.446-5.276,8,4.819L0,5.194v274.95l58.983-11.951c32.584-7.642,66.501-7.568,99.051,0.216L240,287.999
	l81.966-19.591c32.55-7.784,66.468-7.858,99.051-0.216L480,280.143V5.194L469.419,4.819z"/>
<path style="fill:#B6DEDC;" d="M240,32l21.834-10.17C328.853,0.539,399.828-5.277,469.419,4.82L480,5.194v274.949l-58.983-11.951
	c-32.583-7.641-66.501-7.567-99.051,0.216L240,288L240,32z"/>
<g>
	<path style="fill:#42A5E2;" d="M267.219,73.969l-6.437-14.648l8.852-3.887c0.458-0.202,0.934-0.361,1.422-0.473
		c58.547-13.575,119.256-15,178.375-4.188l-2.859,15.742c-56.733-10.381-114.989-9.064-171.195,3.871L267.219,73.969z"/>
	<path style="fill:#42A5E2;" d="M267.219,121.969l-6.437-14.648l8.852-3.887c0.458-0.202,0.934-0.361,1.422-0.473
		c58.546-13.581,119.256-15.006,178.375-4.188l-2.859,15.742c-56.733-10.381-114.989-9.064-171.195,3.871L267.219,121.969z"/>
	<path style="fill:#42A5E2;" d="M267.219,169.969l-6.437-14.648l8.852-3.887c0.458-0.202,0.934-0.361,1.422-0.473
		c58.546-13.579,119.256-15.004,178.375-4.188l-2.859,15.742c-56.733-10.383-114.989-9.066-171.195,3.871L267.219,169.969z"/>
</g>
<g>
	<path style="fill:#2490E0;" d="M212.781,76.679l-8.156-3.582C148.419,60.161,90.163,58.844,33.43,69.226L30.57,53.483
		c59.119-10.812,119.828-9.387,178.375,4.187c0.488,0.112,0.964,0.27,1.422,0.473l8.852,3.887L212.781,76.679z"/>
	<path style="fill:#2490E0;" d="M212.781,124.679l-8.156-3.582c-56.206-12.935-114.462-14.253-171.195-3.871l-2.859-15.742
		c59.119-10.818,119.829-9.393,178.375,4.187c0.488,0.112,0.964,0.27,1.422,0.473l8.852,3.887L212.781,124.679z"/>
	<path style="fill:#2490E0;" d="M212.781,172.679l-8.156-3.582c-56.206-12.933-114.462-14.251-171.195-3.871l-2.859-15.742
		c59.119-10.816,119.829-9.391,178.375,4.187c0.488,0.112,0.964,0.27,1.422,0.473l8.852,3.887L212.781,172.679z"/>
</g>
<path style="fill:#42A5E2;" d="M267.219,217.969l-6.437-14.648l8.852-3.887c0.458-0.202,0.934-0.361,1.422-0.473
	c58.547-13.577,119.256-15.002,178.375-4.188l-2.859,15.742c-56.733-10.385-114.99-9.068-171.195,3.871L267.219,217.969z"/>
<path style="fill:#2490E0;" d="M212.781,220.679l-8.156-3.582c-56.206-12.939-114.462-14.257-171.195-3.871l-2.859-15.742
	c59.119-10.814,119.828-9.389,178.375,4.187c0.488,0.112,0.964,0.27,1.422,0.473l8.852,3.887L212.781,220.679z"/>
<path style="fill:#4BAD32;" d="M377.492,352h-74.045c-4.387,35.041-36.349,59.891-71.39,55.505
	c-29.017-3.632-51.872-26.488-55.505-55.505h-74.045C59.149,351.999,24,387.148,24,430.507c0,0,0,0,0,0V480h432v-49.492
	C456,387.149,420.851,352,377.492,352C377.492,352,377.492,352,377.492,352L377.492,352z"/>
<g>
</g>
<g>
</g>
<g>
</g>
<g>
</g>
<g>
</g>
<g>
</g>
<g>
</g>
<g>
</g>
<g>
</g>
<g>
</g>
<g>
</g>
<g>
</g>
<g>
</g>
<g>
</g>
<g>
</g>
</svg>
