<svg height="504pt" viewBox="-4 0 504 504" width="504pt" xmlns="http://www.w3.org/2000/svg"><path d="m392 264.007812-24-.007812c-4.425781 0-8-3.585938-8-8 0-4.425781 3.585938-8 8-8l24 .007812c4.425781 0 8 3.585938 8 8 0 4.425782-3.585938 8-8 8zm0 0" fill="#da4453"/><path d="m338.511719 173.488281c-2.046875 0-4.097657-.785156-5.65625-2.34375-3.128907-3.128906-3.128907-8.191406 0-11.3125l16.976562-16.960937c3.128907-3.128906 8.183594-3.128906 11.3125 0 3.128907 3.128906 3.128907 8.191406 0 11.3125l-16.976562 16.960937c-1.558594 1.558594-3.609375 2.34375-5.65625 2.34375zm0 0" fill="#da4453"/><path d="m248.015625 135.984375c-4.421875 0-8-3.578125-8-8v-24c0-4.425781 3.578125-8 8-8 4.425781 0 8 3.574219 8 8v24c0 4.421875-3.574219 8-8 8zm0 0" fill="#da4453"/><path d="m157.503906 173.472656c-2.046875 0-4.097656-.785156-5.65625-2.34375l-16.96875-16.96875c-3.125-3.128906-3.125-8.183594 0-11.3125 3.128906-3.128906 8.183594-3.128906 11.3125 0l16.96875 16.96875c3.128906 3.128906 3.128906 8.183594 0 11.3125-1.566406 1.558594-3.617187 2.34375-5.65625 2.34375zm0 0" fill="#da4453"/><path d="m128 264h-23.992188c-4.421874 0-8-3.574219-8-8s3.578126-8 8-8h23.992188c4.425781 0 8 3.574219 8 8s-3.574219 8-8 8zm0 0" fill="#da4453"/><path d="m224 432 24-8 24 8 16-16h32c26.558594 0 48 21.527344 48 48v24c0 8.886719-7.121094 16-16 16h-208c-8.800781 0-16-7.113281-16-16v-24c0-26.472656 21.441406-48 48-48h32zm0 0" fill="#5d9cec"/><path d="m320 416h-32c26.558594 0 48 21.527344 48 48v24c0 8.886719-7.121094 16-16 16h32c8.878906 0 16-7.113281 16-16v-24c0-26.472656-21.441406-48-48-48zm0 0" fill="#4a89dc"/><path d="m248 400c14.398438 0 28-3.441406 40-9.59375v25.59375l-16 16-24-8-24 8-16-16v-25.59375c12 6.152344 25.601562 9.59375 40 9.59375zm0 0" fill="#f5f7fa"/><path d="m336 280v32.078125c0 34.167969-19.519531 63.769531-48 78.328125-12 6.160156-25.601562 9.59375-40 9.59375s-28-3.441406-40-9.59375c-28.480469-14.558594-48-44.160156-48-78.40625v-32l24-24s29.761719 16 64 16c34.320312 0 64-16 64-16zm0 0" fill="#eac6bb"/><path d="m312 256s-2.929688 1.574219-8 3.753906v52.324219c0 34.167969-19.519531 63.769531-48 78.328125-7.433594 3.816406-15.527344 6.441406-24 8 5.199219.953125 10.511719 1.59375 16 1.59375 14.398438 0 28-3.441406 40-9.59375 28.480469-14.558594 48-44.160156 48-78.328125v-32.078125zm0 0" fill="#d3b1a9"/><path d="m184 256-24 24v-40c0-39.753906 32.238281-72 72-72h64v32c22.078125 0 40 17.921875 40 40v40l-24-24s-29.679688 16-64 16c-34.238281 0-64-16-64-16zm0 0" fill="#965353"/><path d="m296 200v-32h-32v48c22.078125 0 40 9.921875 40 32v11.753906c5.070312-2.167968 8-3.753906 8-3.753906l24 24v-40c0-22.078125-17.921875-40-40-40zm0 0" fill="#844747"/><path d="m440 200c30.984375 0 56 25.128906 56 56 0 30.984375-25.015625 56-56 56-30.878906 0-56-25.015625-56-56 0-30.871094 25.121094-56 56-56zm0 0" fill="#ed5565"/><path d="m440 200c-5.550781 0-10.910156.839844-15.984375 2.351562 23.152344 6.894532 39.984375 28.328126 39.984375 53.648438 0 25.414062-16.832031 46.785156-39.984375 53.65625 5.074219 1.511719 10.433594 2.34375 15.984375 2.34375 30.984375 0 56-25.015625 56-56 0-30.871094-25.015625-56-56-56zm0 0" fill="#da4453"/><path d="m389.441406 58.558594c30.886719 0 56 25.097656 56 56 0 30.984375-25.113281 56-56 56.082031-15.503906 0-29.503906-6.25-39.570312-16.425781-10.175782-10.167969-16.429688-24.167969-16.429688-39.65625 0-30.902344 25.109375-56 56-56zm0 0" fill="#ed5565"/><path d="m389.441406 58.558594c-5.5625 0-10.921875.839844-16 2.363281 23.109375 6.886719 40 28.292969 40 53.636719 0 25.441406-16.9375 46.824218-40.089844 53.722656 5.097657 1.511719 10.488282 2.359375 16.089844 2.359375 30.886719-.082031 56-25.097656 56-56.082031 0-30.902344-25.113281-56-56-56zm0 0" fill="#da4453"/><path d="m248 0c30.984375 0 56 25.128906 56 56 0 30.886719-25.121094 56-56 56s-56-25.113281-56-56c0-30.871094 25.121094-56 56-56zm0 0" fill="#ed5565"/><path d="m248 0c-5.550781 0-10.910156.839844-15.984375 2.351562 23.152344 6.894532 39.984375 28.328126 39.984375 53.648438 0 25.328125-16.894531 46.742188-40 53.640625 5.078125 1.511719 10.441406 2.359375 16 2.359375 30.878906 0 56-25.113281 56-56 0-30.871094-25.015625-56-56-56zm0 0" fill="#da4453"/><path d="m56 200c30.878906 0 56 25.128906 56 56 0 30.984375-25.121094 56-56 56s-56-25.015625-56-56c0-30.871094 25.121094-56 56-56zm0 0" fill="#ed5565"/><path d="m56 200c-5.558594 0-10.921875.839844-16 2.359375 23.105469 6.90625 40 28.328125 40 53.640625 0 25.40625-16.894531 46.769531-40 53.648438 5.078125 1.519531 10.441406 2.351562 16 2.351562 30.878906 0 56-25.015625 56-56 0-30.871094-25.121094-56-56-56zm0 0" fill="#da4453"/><path d="m106.558594 58.519531c31 0 56.042968 25.113281 56.042968 56.039063 0 31.027344-25.042968 56.042968-56.042968 56.042968-30.925782 0-56.054688-25.015624-55.957032-56.042968 0-30.925782 25.03125-56.039063 55.957032-56.039063zm0 0" fill="#ed5565"/><path d="m106.558594 58.519531c-5.558594 0-10.910156.832031-15.984375 2.351563 23.167969 6.890625 40.027343 28.320312 40.027343 53.6875 0 25.449218-16.859374 46.832031-40.027343 53.699218 5.074219 1.503907 10.433593 2.34375 15.984375 2.34375 31 0 56.042968-25.015624 56.042968-56.042968 0-30.925782-25.042968-56.039063-56.042968-56.039063zm0 0" fill="#da4453"/><g fill="#f5f7fa"><path d="m248.238281 472c-4.421875 0-8.039062-3.574219-8.039062-8s3.535156-8 7.953125-8h.085937c4.417969 0 8 3.574219 8 8s-3.582031 8-8 8zm0 0"/><path d="m56.238281 287.976562c-4.421875 0-8.039062-3.578124-8.039062-8 0-4.425781 3.535156-8 7.953125-8h.085937c4.417969 0 8 3.574219 8 8 0 4.421876-3.582031 8-8 8zm0 0"/><path d="m56 263.992188c-4.425781 0-8-3.578126-8-8v-24.015626c0-4.425781 3.574219-8 8-8s8 3.574219 8 8v24.015626c0 4.421874-3.574219 8-8 8zm0 0"/><path d="m440.246094 287.992188c-4.421875 0-8.039063-3.578126-8.039063-8 0-4.425782 3.535157-8 7.953125-8h.085938c4.417968 0 8 3.574218 8 8 0 4.421874-3.582032 8-8 8zm0 0"/><path d="m440.007812 264c-4.414062 0-8-3.574219-8-8l-.007812-24.007812c0-4.417969 3.574219-8 8-8 4.414062 0 8 3.574218 8 8l.007812 24.007812c0 4.414062-3.574218 8-8 8zm0 0"/><path d="m389.679688 146.566406c-4.421876 0-8.039063-3.574218-8.039063-8 0-4.421875 3.535156-8 7.953125-8h.085938c4.417968 0 8 3.578125 8 8 0 4.425782-3.582032 8-8 8zm0 0"/><path d="m389.441406 122.574219c-4.417968 0-8-3.574219-8-7.988281l-.015625-24.011719c0-4.421875 3.574219-8.007813 7.988281-8.007813h.011719c4.414063 0 8 3.578125 8 7.992188l.015625 24.007812c0 4.425782-3.585937 8.007813-8 8.007813zm0 0"/><path d="m248.257812 87.96875c-4.425781 0-8.042968-3.578125-8.042968-8 0-4.425781 3.539062-8 7.953125-8h.089843c4.414063 0 8 3.574219 8 8 0 4.421875-3.585937 8-8 8zm0 0"/><path d="m248 63.984375c-4.425781 0-8-3.578125-8-8v-24.015625c0-4.425781 3.574219-8 8-8s8 3.574219 8 8v24.015625c0 4.421875-3.574219 8-8 8zm0 0"/><path d="m106.847656 146.535156c-4.421875 0-8.039062-3.574218-8.039062-8 0-4.421875 3.535156-8 7.953125-8h.085937c4.417969 0 8 3.578125 8 8 0 4.425782-3.582031 8-8 8zm0 0"/><path d="m106.585938 122.550781c-4.425782 0-8-3.574219-8-8v-24.007812c0-4.421875 3.574218-8 8-8 4.421874 0 8 3.578125 8 8v24.007812c0 4.425781-3.578126 8-8 8zm0 0"/></g></svg>