<svg width="490" height="490" xmlns="http://www.w3.org/2000/svg">

 <g>
  <title>background</title>
  <rect fill="none" id="canvas_background" height="402" width="582" y="-1" x="-1"/>
 </g>
 <g>
  <title>Layer 1</title>
  <g id="svg_1">
   <path fill="#238fb1" id="svg_2" d="m480,43.407l-470,0c-5.523,0 -10,4.478 -10,10l0,383.186c0,5.523 4.477,10 10,10l470,0c5.522,0 10,-4.477 10,-10l0,-383.186c0,-5.522 -4.478,-10 -10,-10zm-10,20l0,60.225l-450,0l0,-60.225l450,0zm-450,363.186l0,-282.961l450,0l0,282.961l-450,0z"/>
   <path fill="#238fb1" id="svg_3" d="m156.082,193.946l-79.965,0c-5.522,0 -10,4.477 -10,10l0,80.996c0,5.522 4.478,10 10,10l79.965,0c5.523,0 10,-4.478 10,-10l0,-80.996c0,-5.523 -4.477,-10 -10,-10zm-10,80.996l-59.965,0l0,-60.996l59.965,0l0,60.996z"/>
   <path fill="#238fb1" id="svg_4" d="m204.285,294.942l79.961,0c5.522,0 10,-4.478 10,-10l0,-80.996c0,-5.523 -4.478,-10 -10,-10l-79.961,0c-5.522,0 -10,4.477 -10,10l0,80.996c0,5.523 4.478,10 10,10zm10,-80.996l59.961,0l0,60.996l-59.961,0l0,-60.996z"/>
   <path fill="#238fb1" id="svg_5" d="m332.455,294.942l79.965,0c5.523,0 10,-4.478 10,-10l0,-80.996c0,-5.523 -4.477,-10 -10,-10l-79.965,0c-5.523,0 -10,4.477 -10,10l0,80.996c0,5.523 4.478,10 10,10zm10,-80.996l59.965,0l0,60.996l-59.965,0l0,-60.996z"/>
   <path fill="#238fb1" id="svg_6" d="m156.082,320.317l-79.965,0c-5.522,0 -10,4.477 -10,10c0,5.523 4.478,10 10,10l79.965,0c5.523,0 10,-4.477 10,-10c0,-5.522 -4.477,-10 -10,-10z"/>
   <path fill="#238fb1" id="svg_7" d="m156.082,357.317l-79.965,0c-5.522,0 -10,4.477 -10,10c0,5.523 4.478,10 10,10l79.965,0c5.523,0 10,-4.477 10,-10c0,-5.522 -4.477,-10 -10,-10z"/>
   <path fill="#238fb1" id="svg_8" d="m284.982,320.317l-79.962,0c-5.522,0 -10,4.477 -10,10c0,5.523 4.478,10 10,10l79.963,0c5.523,0 10,-4.477 10,-10c-0.001,-5.522 -4.478,-10 -10.001,-10z"/>
   <path fill="#238fb1" id="svg_9" d="m284.982,357.317l-79.962,0c-5.522,0 -10,4.477 -10,10c0,5.523 4.478,10 10,10l79.963,0c5.523,0 10,-4.477 10,-10c-0.001,-5.522 -4.478,-10 -10.001,-10z"/>
   <path fill="#238fb1" id="svg_10" d="m413.883,320.317l-79.965,0c-5.522,0 -10,4.477 -10,10c0,5.523 4.478,10 10,10l79.965,0c5.522,0 10,-4.477 10,-10c0,-5.522 -4.478,-10 -10,-10z"/>
   <path fill="#238fb1" id="svg_11" d="m413.883,357.317l-79.965,0c-5.522,0 -10,4.477 -10,10c0,5.523 4.478,10 10,10l79.965,0c5.522,0 10,-4.477 10,-10c0,-5.522 -4.478,-10 -10,-10z"/>
   <path fill="#238fb1" id="svg_12" d="m76.117,103.299l4.938,0c5.522,0 10,-4.478 10,-10c0,-5.522 -4.478,-10 -10,-10l-4.938,0c-5.522,0 -10,4.478 -10,10c0,5.522 4.478,10 10,10z"/>
   <path fill="#238fb1" id="svg_13" d="m117.584,103.299l4.935,0c5.522,0 10,-4.478 10,-10c0,-5.522 -4.477,-10 -10,-10l-4.935,0c-5.522,0 -10,4.478 -10,10c0,5.522 4.478,10 10,10z"/>
   <path fill="#238fb1" id="svg_14" d="m159.049,103.299l4.932,0c5.522,0 10,-4.478 10,-10c0,-5.522 -4.478,-10 -10,-10l-4.932,0c-5.522,0 -10,4.478 -10,10c0,5.522 4.477,10 10,10z"/>
  </g>
  <g id="svg_15"/>
  <g id="svg_16"/>
  <g id="svg_17"/>
  <g id="svg_18"/>
  <g id="svg_19"/>
  <g id="svg_20"/>
  <g id="svg_21"/>
  <g id="svg_22"/>
  <g id="svg_23"/>
  <g id="svg_24"/>
  <g id="svg_25"/>
  <g id="svg_26"/>
  <g id="svg_27"/>
  <g id="svg_28"/>
  <g id="svg_29"/>
 </g>
</svg>