<?xml version="1.0" encoding="iso-8859-1"?>
<!-- Generator: Adobe Illustrator 19.0.0, SVG Export Plug-In . SVG Version: 6.00 Build 0)  -->
<svg version="1.1" id="Layer_1" xmlns="http://www.w3.org/2000/svg" xmlns:xlink="http://www.w3.org/1999/xlink" x="0px" y="0px"
	 viewBox="0 0 512 512" style="enable-background:new 0 0 512 512;" xml:space="preserve">
<circle style="fill:#273B7A;" cx="256" cy="256" r="256"/>
<path style="fill:#121149;" d="M276.068,511.221c110.004-8.53,200.501-86.59,227.612-190.285L361.624,178.879L242.497,311.453
	l47.83,47.83L154.629,389.78L276.068,511.221z"/>
<path style="fill:#7248BD;" d="M296.439,113.693H171.613c-11.729,0-21.237,9.509-21.237,21.237v242.14
	c0,11.729,9.509,21.237,21.237,21.237h168.774c11.729,0,21.237-9.509,21.237-21.237V178.878L296.439,113.693z"/>
<g>
	<rect x="233.382" y="248.467" style="fill:#FFFFFF;" width="84.747" height="10.261"/>
	<rect x="233.382" y="277.98" style="fill:#FFFFFF;" width="84.747" height="10.261"/>
	<rect x="233.382" y="307.493" style="fill:#FFFFFF;" width="84.747" height="10.261"/>
	<path style="fill:#FFFFFF;" d="M204.64,258.732h-4.175c-2.108,0-3.817-1.708-3.817-3.817v-2.627c0-2.108,1.708-3.817,3.817-3.817
		h4.175c2.108,0,3.817,1.708,3.817,3.817v2.627C208.456,257.024,206.748,258.732,204.64,258.732z"/>
	<path style="fill:#FFFFFF;" d="M204.64,288.242h-4.175c-2.108,0-3.817-1.708-3.817-3.817v-2.627c0-2.108,1.708-3.817,3.817-3.817
		h4.175c2.108,0,3.817,1.708,3.817,3.817v2.627C208.456,286.532,206.748,288.242,204.64,288.242z"/>
	<path style="fill:#FFFFFF;" d="M204.64,317.75h-4.175c-2.108,0-3.817-1.708-3.817-3.817v-2.627c0-2.108,1.708-3.817,3.817-3.817
		h4.175c2.108,0,3.817,1.708,3.817,3.817v2.627C208.456,316.042,206.748,317.75,204.64,317.75z"/>
</g>
<path style="fill:#B8A3DE;" d="M317.676,178.878h43.948l-65.184-65.184v43.948C296.439,169.37,305.947,178.878,317.676,178.878z"/>
<g>
</g>
<g>
</g>
<g>
</g>
<g>
</g>
<g>
</g>
<g>
</g>
<g>
</g>
<g>
</g>
<g>
</g>
<g>
</g>
<g>
</g>
<g>
</g>
<g>
</g>
<g>
</g>
<g>
</g>
</svg>
