<?xml version="1.0" encoding="iso-8859-1"?>
<!-- Generator: Adobe Illustrator 19.0.0, SVG Export Plug-In . SVG Version: 6.00 Build 0)  -->
<svg xmlns="http://www.w3.org/2000/svg" xmlns:xlink="http://www.w3.org/1999/xlink" version="1.1" id="Layer_1" x="0px" y="0px" viewBox="0 0 512 512" style="enable-background:new 0 0 512 512;" xml:space="preserve" width="512px" height="512px">
<g>
	<g>
		<path d="M164.983,150.207h-52.122c-5.646,0-10.22,4.576-10.22,10.22s4.575,10.22,10.22,10.22h40.641    c-4.573,18.182-21.061,31.681-40.641,31.681c-23.104,0-41.901-18.796-41.901-41.901s18.797-41.901,41.901-41.901    c11.192,0,21.715,4.358,29.63,12.273c3.99,3.991,10.462,3.99,14.453,0c3.991-3.991,3.991-10.463-0.001-14.454    c-11.775-11.775-27.43-18.259-44.083-18.259c-34.376,0-62.342,27.967-62.342,62.342s27.967,62.342,62.343,62.342    s62.342-27.966,62.342-62.342C175.204,154.783,170.629,150.207,164.983,150.207z" fill="#006DF0"/>
	</g>
</g>
<g>
	<g>
		<path d="M384.463,65.584c-33.922,0-61.519,27.597-61.519,61.518s27.597,61.518,61.519,61.518    c33.921,0,61.518-27.597,61.518-61.518S418.384,65.584,384.463,65.584z M384.463,168.178c-22.65,0-41.078-18.427-41.078-41.077    s18.427-41.077,41.078-41.077c22.651,0,41.077,18.427,41.077,41.077S407.113,168.178,384.463,168.178z" fill="#006DF0"/>
	</g>
</g>
<g>
	<g>
		<path d="M384.463,0c-44.718,0-84.112,23.217-106.774,58.225H49.78c-27.208,0-49.344,22.136-49.344,49.344v355.086    C0.435,489.864,22.572,512,49.78,512h355.086c27.208,0,49.344-22.136,49.344-49.344V241.362    c6.113-8.398,12.806-16.599,20.14-24.409c23.999-24.007,37.215-55.903,37.215-89.852C511.565,57.018,454.547,0,384.463,0z     M20.876,107.57c0-15.937,12.965-28.903,28.903-28.903h217.182c-6.18,14.935-9.598,31.292-9.598,48.434    c0,20.226,4.692,39.721,13.558,57.255L20.876,437.748V107.57z M48.576,491.499c-14.066-0.583-25.547-11.241-27.407-24.948    l260.785-264.275c3.799,5.155,8.009,10.064,12.622,14.678c4.09,4.355,7.98,8.835,11.684,13.402L48.576,491.499z M318.645,246.909    c28.944,41.905,43.889,87.723,50.748,114.295l-82.858-81.754L318.645,246.909z M77.229,491.559l151.327-153.353l155.399,153.353    H77.229z M433.768,462.656c0.001,13.439-9.231,24.732-21.677,27.952L242.912,323.656l29.265-29.657l161.591,159.439V462.656z     M433.771,424.723h-0.001l-39.655-39.128c0.202-0.581,0.354-1.186,0.451-1.812c0.113-0.725,8.746-54.538,39.206-110.073V424.723z     M459.696,202.698c-0.158,0.158-0.311,0.32-0.458,0.488c-41.398,44.185-63.59,98.69-74.776,135.582    c-11.185-36.892-33.38-91.398-74.776-135.583c-0.147-0.166-0.3-0.328-0.459-0.487c-20.265-20.168-31.426-47.015-31.426-75.597    c0-58.813,47.847-106.661,106.661-106.661S491.124,68.288,491.124,127.1C491.124,155.681,479.963,182.528,459.696,202.698z" fill="#006DF0"/>
	</g>
</g>
<g>
</g>
<g>
</g>
<g>
</g>
<g>
</g>
<g>
</g>
<g>
</g>
<g>
</g>
<g>
</g>
<g>
</g>
<g>
</g>
<g>
</g>
<g>
</g>
<g>
</g>
<g>
</g>
<g>
</g>
</svg>
