<?xml version="1.0" encoding="iso-8859-1"?>
<!-- Generator: Adobe Illustrator 19.0.0, SVG Export Plug-In . SVG Version: 6.00 Build 0)  -->
<svg version="1.1" id="Layer_1" xmlns="http://www.w3.org/2000/svg" xmlns:xlink="http://www.w3.org/1999/xlink" x="0px" y="0px"
	 viewBox="0 0 505 505" style="enable-background:new 0 0 505 505;" xml:space="preserve">
<circle style="fill:#324A5E;" cx="252.5" cy="252.5" r="252.5"/>
<path style="fill:#2B3B4E;" d="M31.1,373.9C74,452,157.1,505,252.5,505S431,452,473.9,373.9H31.1z"/>
<path style="fill:#E6E9EE;" d="M400.1,319.5H104.9c-1.4,0-2.6-1.2-2.6-2.6v-207c0-1.4,1.2-2.6,2.6-2.6h295.2c1.4,0,2.6,1.2,2.6,2.6
	V317C402.7,318.4,401.5,319.5,400.1,319.5z"/>
<rect x="118.7" y="128.3" style="fill:#FFFFFF;" width="267.7" height="170.2"/>
<path style="fill:#CED5E0;" d="M449.1,352.3H55.9l37.5-26.8c5.4-3.9,12-6,18.6-6h280.9c6.7,0,13.2,2.1,18.6,6L449.1,352.3z"/>
<path style="fill:#ACB3BA;" d="M55.9,352.3c0,12.2,9.9,22.1,22.1,22.1h348.8c12.2,0,22.1-9.9,22.1-22.1H55.9z"/>
<rect x="223.4" y="359.1" style="fill:#324A5E;" width="58.1" height="7.5"/>
<rect x="132.7" y="142.6" style="fill:#4CDBC4;" width="20.4" height="20.4"/>
<rect x="132.7" y="172.6" style="fill:#FF7058;" width="20.4" height="20.4"/>
<path style="fill:#84DBFF;" d="M197.7,211.4h13c3.3-19.7,19.3-35.1,39.3-37.5v-13C222.9,163.4,201.2,184.5,197.7,211.4z"/>
<path style="fill:#4CDBC4;" d="M210.3,222.5h-13c1.7,28.8,24.3,51.9,52.7,54.6v-13C228.7,261.5,211.9,244.1,210.3,222.5z"/>
<path style="fill:#84DBFF;" d="M300.9,222.5c-1.6,21.6-18.4,39-39.8,41.6v13c28.5-2.7,51-25.8,52.7-54.6H300.9z"/>
<path style="fill:#FF7058;" d="M313.4,211.4c-3.5-26.8-25.2-48-52.3-50.5v13v34.2v3.3h39.3H313.4z"/>
<g>
	<polygon style="fill:#324A5E;" points="323.6,149.8 303.6,169.9 309.1,175.4 326.9,157.7 353.6,157.7 353.6,149.8 	"/>
	<polygon style="fill:#324A5E;" points="180.6,277.4 153.1,277.4 153.1,285.3 183.8,285.3 200.5,268.6 194.9,263.1 	"/>
	
		<rect x="185.527" y="164.318" transform="matrix(0.7071 0.7071 -0.7071 0.7071 176.018 -88.4083)" style="fill:#324A5E;" width="18.4" height="7.9"/>
	
		<rect x="299.8" y="268.452" transform="matrix(0.7071 0.7071 -0.7071 0.7071 283.1361 -138.7461)" style="fill:#324A5E;" width="18.5" height="7.9"/>
</g>
<g>
</g>
<g>
</g>
<g>
</g>
<g>
</g>
<g>
</g>
<g>
</g>
<g>
</g>
<g>
</g>
<g>
</g>
<g>
</g>
<g>
</g>
<g>
</g>
<g>
</g>
<g>
</g>
<g>
</g>
</svg>
