<?xml version="1.0" encoding="iso-8859-1"?>
<!-- Generator: Adobe Illustrator 19.0.0, SVG Export Plug-In . SVG Version: 6.00 Build 0)  -->
<svg version="1.1" id="Capa_1" xmlns="http://www.w3.org/2000/svg" xmlns:xlink="http://www.w3.org/1999/xlink" x="0px" y="0px"
	 viewBox="0 0 512 512" style="enable-background:new 0 0 512 512;" xml:space="preserve">
<path d="M0,355.2v-324c0-5.6,4.8-10.4,10.4-10.4h491.2c5.6,0,10.4,4.8,10.4,10.4v324H0z"/>
<g>
	<path style="fill:#CCCCCC;" d="M512,355.2v41.6c0,5.6-4.8,10.4-10.4,10.4H10.4c-5.6,0-10.4-4.8-10.4-10.4v-41.6H512z"/>
	<rect x="146.4" y="480.8" style="fill:#CCCCCC;" width="219.2" height="10.4"/>
</g>
<polygon style="fill:#999999;" points="328.8,480.8 183.2,480.8 193.6,407.2 318.4,407.2 "/>
<rect x="20.8" y="41.6" style="fill:#FFFFFF;" width="470.4" height="292.8"/>
<polygon style="fill:#666666;" points="318.4,407.2 193.6,407.2 187.792,448.28 320.272,420.424 "/>
<rect x="20.8" y="41.6" style="fill:#CCCCCC;" width="470.704" height="75.4"/>
<rect x="146.4" y="79.832" style="fill:#FFFFFF;" width="219.2" height="219.2"/>
<path style="fill:#999999;" d="M367.6,301.04H144.4V77.84h223.2V301.04z M148.4,297.04h215.2V81.84H148.4L148.4,297.04L148.4,297.04
	z"/>
<rect x="227.824" y="160.48" width="56.16" height="4"/>
<g>
	<path style="fill:#CCCCCC;" d="M328.912,192v15.504H182.888V192H328.912 M332.912,188H178.888v23.504h154.024V188L332.912,188z"/>
	<path style="fill:#CCCCCC;" d="M328.912,222.752v15.504H182.888v-15.504H328.912 M332.912,218.752H178.888v23.504h154.024V218.752
		L332.912,218.752z"/>
</g>
<rect x="227.832" y="256" style="fill:#F91E1E;" width="56.16" height="20.264"/>
<rect x="221.944" y="102.624" style="fill:#CCCCCC;" width="67.904" height="47.36"/>
<g style="opacity:0.4;">
	<polygon points="221.944,116.008 255.792,131.624 289.848,116.008 289.848,102.624 221.944,102.624 	"/>
</g>
<g style="opacity:0.5;">
	<polygon style="fill:#999999;" points="242.264,125.384 226.688,149.984 221.944,149.984 221.944,116.008 	"/>
</g>
<g style="opacity:0.5;">
	<polygon style="fill:#999999;" points="269.528,125.384 285.104,149.984 289.848,149.984 289.848,116.008 	"/>
</g>
<g>
</g>
<g>
</g>
<g>
</g>
<g>
</g>
<g>
</g>
<g>
</g>
<g>
</g>
<g>
</g>
<g>
</g>
<g>
</g>
<g>
</g>
<g>
</g>
<g>
</g>
<g>
</g>
<g>
</g>
</svg>
