<?xml version="1.0"?>
<svg xmlns="http://www.w3.org/2000/svg" xmlns:xlink="http://www.w3.org/1999/xlink" version="1.1" id="Capa_1" x="0px" y="0px" viewBox="0 0 512 512" style="enable-background:new 0 0 512 512;" xml:space="preserve" width="512px" height="512px" class=""><g><g>
	<g>
		<path d="M482.382,355.834l29.136-112.06l-29.035-7.549l-29.13,112.037c-15.844,1.753-29.053,12.353-34.573,26.737H308v30h110.779    c6.052,15.771,21.345,27,39.221,27c23.159,0.001,42-18.84,42-41.999C500,375.928,493.036,363.459,482.382,355.834z M458,402    c-6.617,0-12-5.383-12-12s5.383-12,12-12s12,5.383,12,12S464.617,402,458,402z" data-original="#000000" class="active-path" data-old_color="#4aade3" fill="#4aade3"/>
	</g>
</g><g>
	<g>
		<path d="M190,315V215c0-15.25-6.243-29.067-16.302-39.04C183.725,166.61,190,153.386,190,138.737V88.876    C190,39.87,149.458,0,99.625,0h-9.25C40.542,0,0,39.87,0,88.876c0,29.838,13.218,56.696,34.197,75.222    C14.156,172.319,0,192.033,0,215v297h190V405h83v-90H190z M30,88.876C30,56.412,57.084,30,90.375,30h9.25    C132.916,30,160,56.412,160,88.876v49.861c0,11.724-9.868,21.263-21.998,21.263H135h-32.129C62.689,160,30,128.094,30,88.876z     M160,482H30V215c0-13.785,11.215-25,25-25h47.871H135c13.785,0,25,11.215,25,25v100h-20v-60c0-24.813-20.187-45-45-45    s-45,20.187-45,45v150h110V482z M243,375H80V255c0-8.271,6.729-15,15-15s15,6.729,15,15v90h133V375z" data-original="#000000" class="active-path" data-old_color="#4aade3" fill="#4aade3"/>
	</g>
</g><g>
	<g>
		<path d="M458,432H220v80h292v-80H458z M482,482H250v-20h232V482z" data-original="#000000" class="active-path" data-old_color="#4aade3" fill="#4aade3"/>
	</g>
</g></g> </svg>
