<?xml version="1.0" encoding="iso-8859-1"?>
<!-- Generator: Adobe Illustrator 19.0.0, SVG Export Plug-In . SVG Version: 6.00 Build 0)  -->
<svg version="1.1" id="Capa_1" xmlns="http://www.w3.org/2000/svg" xmlns:xlink="http://www.w3.org/1999/xlink" x="0px" y="0px"
	 viewBox="0 0 510.921 510.921" style="enable-background:new 0 0 510.921 510.921;" xml:space="preserve">
<g>
	<g>
		<g>
			<path d="M227.129,210.963c2.042,2.042,4.771,3.125,7.542,3.125c1.375,0,2.771-0.26,4.083-0.813
				c3.979-1.646,6.583-5.542,6.583-9.854V10.671c0-2.99-1.25-5.844-3.458-7.865c-2.208-2.031-5.125-3.042-8.125-2.76
				C181.108,4.588,131.9,24.942,91.483,58.911c-2.292,1.927-3.667,4.719-3.813,7.708c-0.125,2.979,1,5.885,3.125,8L227.129,210.963z
				"/>
			<path d="M277.338,244.255h222.917c2.979,0,5.833-1.25,7.854-3.458c2.021-2.198,3.021-5.146,2.771-8.125
				C500.192,108.588,402.358,10.755,278.254,0.046c-2.958-0.271-5.917,0.74-8.125,2.76c-2.208,2.021-3.458,4.875-3.458,7.865
				v222.917C266.671,239.484,271.442,244.255,277.338,244.255z"/>
			<path d="M233.379,247.38L75.713,89.703c-2.104-2.104-5.083-3.479-8-3.115c-3,0.125-5.792,1.51-7.708,3.792
				c-38.687,46.063-60,104.5-60,164.542s21.313,118.479,60,164.542c1.917,2.281,4.708,3.667,7.708,3.792
				c0.146,0.01,0.313,0.01,0.458,0.01c2.833,0,5.542-1.125,7.542-3.125l157.667-157.677
				C237.546,258.296,237.546,251.546,233.379,247.38z"/>
			<path d="M500.254,265.588H264.838c-2.833,0-5.542,1.125-7.542,3.125l-166.5,166.51c-2.125,2.115-3.25,5.021-3.125,8
				c0.146,2.99,1.521,5.781,3.813,7.708c46.042,38.688,104.458,59.99,164.521,59.99c131.604,0,243.563-102.677,254.875-233.75
				c0.25-2.979-0.75-5.927-2.771-8.125C506.088,266.838,503.233,265.588,500.254,265.588z"/>
		</g>
	</g>
</g>
<g>
</g>
<g>
</g>
<g>
</g>
<g>
</g>
<g>
</g>
<g>
</g>
<g>
</g>
<g>
</g>
<g>
</g>
<g>
</g>
<g>
</g>
<g>
</g>
<g>
</g>
<g>
</g>
<g>
</g>
</svg>
