<?xml version="1.0" encoding="iso-8859-1"?>
<!-- Generator: Adobe Illustrator 19.0.0, SVG Export Plug-In . SVG Version: 6.00 Build 0)  -->
<svg version="1.1" id="Layer_1" xmlns="http://www.w3.org/2000/svg" xmlns:xlink="http://www.w3.org/1999/xlink" x="0px" y="0px"
	 viewBox="0 0 512 512" style="enable-background:new 0 0 512 512;" xml:space="preserve">
<path style="fill:#E8EDEE;" d="M52.966,317.793h406.069V194.207H52.966V317.793z"/>
<g>
	<path style="fill:#C7CBC7;" d="M88.276,238.345h-35.31c-5.297,0-8.828-3.531-8.828-8.828s3.531-8.828,8.828-8.828h35.31
		c5.297,0,8.828,3.531,8.828,8.828S93.572,238.345,88.276,238.345"/>
	<path style="fill:#C7CBC7;" d="M229.517,238.345h-70.621c-5.297,0-8.828-3.531-8.828-8.828s3.531-8.828,8.828-8.828h70.621
		c5.297,0,8.828,3.531,8.828,8.828S234.814,238.345,229.517,238.345"/>
	<path style="fill:#C7CBC7;" d="M132.414,229.517c0-5.297-3.531-8.828-8.828-8.828c-5.297,0-8.828,3.531-8.828,8.828
		s3.531,8.828,8.828,8.828C128.883,238.345,132.414,234.814,132.414,229.517"/>
	<path style="fill:#C7CBC7;" d="M361.931,238.345h-88.276c-5.297,0-8.828-3.531-8.828-8.828s3.531-8.828,8.828-8.828h88.276
		c5.297,0,8.828,3.531,8.828,8.828S367.228,238.345,361.931,238.345"/>
	<path style="fill:#C7CBC7;" d="M459.034,238.345h-44.138c-5.297,0-8.828-3.531-8.828-8.828s3.531-8.828,8.828-8.828h44.138
		c5.297,0,8.828,3.531,8.828,8.828S464.331,238.345,459.034,238.345"/>
	<path style="fill:#C7CBC7;" d="M44.138,344.276H8.828c-5.297,0-8.828-3.531-8.828-8.828V176.552c0-5.297,3.531-8.828,8.828-8.828
		h35.31c5.297,0,8.828,3.531,8.828,8.828v158.897C52.966,340.745,49.434,344.276,44.138,344.276"/>
	<path style="fill:#C7CBC7;" d="M503.172,344.276h-35.31c-5.297,0-8.828-3.531-8.828-8.828V176.552c0-5.297,3.531-8.828,8.828-8.828
		h35.31c5.297,0,8.828,3.531,8.828,8.828v158.897C512,340.745,508.469,344.276,503.172,344.276"/>
</g>
<g>
</g>
<g>
</g>
<g>
</g>
<g>
</g>
<g>
</g>
<g>
</g>
<g>
</g>
<g>
</g>
<g>
</g>
<g>
</g>
<g>
</g>
<g>
</g>
<g>
</g>
<g>
</g>
<g>
</g>
</svg>
