<?xml version="1.0" encoding="iso-8859-1"?>
<!-- Generator: Adobe Illustrator 19.0.0, SVG Export Plug-In . SVG Version: 6.00 Build 0)  -->
<svg version="1.1" id="Layer_1" xmlns="http://www.w3.org/2000/svg" xmlns:xlink="http://www.w3.org/1999/xlink" x="0px" y="0px"
	 viewBox="0 0 512.001 512.001" style="enable-background:new 0 0 512.001 512.001;" xml:space="preserve">
<g>
	<g>
		<path d="M479.381,48.414H142.637c-17.986,0-32.619,14.634-32.619,32.619v100.128c-8.955,1.794-17.254,6.341-23.571,13.083
			c-8.304,8.863-12.613,20.898-11.824,33.018l1.387,21.264l3.238,49.657c1.231,18.871,11.858,35.577,28.426,44.689
			c8.313,4.572,17.432,6.859,26.552,6.859c9.118,0,18.239-2.287,26.551-6.858c4.671-2.569,8.849-5.76,12.498-9.413h306.105
			c17.986,0,32.619-14.634,32.619-32.619V81.034C512,63.048,497.368,48.414,479.381,48.414z M95.683,236.736l-0.704-10.8
			c-0.431-6.609,1.825-12.911,6.353-17.744c4.529-4.833,10.669-7.495,17.293-7.495h26.289l-5.684,15.157
			C137.67,218.225,127.023,232.515,95.683,236.736z M168.846,296.857c-0.773,11.884-7.465,22.405-17.9,28.144
			c-10.471,5.759-22.971,5.759-33.442-0.001c-10.434-5.738-17.127-16.259-17.901-28.143l-2.592-39.734
			c24.805-3.113,40.262-11.846,49.333-19.427c2.027,1.639,4.411,3.168,7.147,4.583c4.092,2.114,10.188,4.219,18.498,6.386
			L168.846,296.857z M173.474,225.936l-0.128,1.957c-6.077-1.733-9.077-3.008-10.49-3.738c-2.062-1.066-3.287-1.957-3.991-2.569
			l5.858-15.621c0.839,0.682,1.642,1.422,2.397,2.228C171.648,213.025,173.905,219.327,173.474,225.936z M491.603,300.842
			c0,6.739-5.482,12.221-12.221,12.221H186.133c1.672-4.727,2.735-9.717,3.072-14.879l0.05-0.772h262.431
			c5.633,0,10.199-4.567,10.199-10.199c0-5.632-4.566-10.199-10.199-10.199h-11.079V108.896c0-5.632-4.566-10.199-10.199-10.199
			h-49.246c-5.633,0-10.199,4.567-10.199,10.199v168.117h-12.681v-72.973c0-5.632-4.566-10.199-10.199-10.199h-49.246
			c-5.633,0-10.199,4.567-10.199,10.199v72.973h-11.949V148.986c0-5.632-4.566-10.199-10.199-10.199h-49.246
			c-5.633,0-10.199,4.567-10.199,10.199v128.027h-16.458l2.32-35.573l0.924-14.177c0.738-11.325-2.978-22.574-10.243-31.232V95.173
			c0-5.632-4.566-10.199-10.199-10.199c-5.633,0-10.199,4.567-10.199,10.199v87.213c-4.288-1.368-8.794-2.087-13.36-2.087h-19.411
			V81.034c0-6.739,5.482-12.221,12.221-12.221h336.745c6.739,0,12.221,5.482,12.221,12.221V300.842z M227.441,277.013V159.185
			h28.848v117.828H227.441z M309.035,277.013V214.24h28.848v62.773H309.035z M391.36,277.013V119.095h28.848v157.918H391.36z"/>
	</g>
</g>
<g>
	<g>
		<path d="M267.897,423.043c-6.178-34.096-33.19-61.31-67.216-67.717c-5.135-0.967-10.39-1.458-15.618-1.458H169.5
			c-2.705,0-5.299,1.075-7.212,2.987l-28.062,28.062l-28.061-28.062c-1.912-1.912-4.507-2.987-7.212-2.987H83.39
			c-5.228,0-10.483,0.491-15.617,1.458c-34.027,6.406-61.04,33.621-67.217,67.718c-1.824,10.064,0.891,20.338,7.448,28.19
			c6.556,7.85,16.182,12.352,26.411,12.352H234.04c10.228,0,19.854-4.502,26.411-12.352
			C267.005,443.383,269.72,433.108,267.897,423.043z M244.793,438.158c-2.669,3.196-6.589,5.03-10.753,5.03H34.414
			c-4.164,0-8.084-1.834-10.753-5.03c-2.669-3.196-3.775-7.379-3.032-11.478c4.68-25.835,25.143-46.454,50.922-51.307
			c3.892-0.734,7.876-1.106,11.84-1.106h11.339l32.286,32.286c3.984,3.982,10.442,3.983,14.424,0l32.287-32.286h11.339
			c3.964,0,7.948,0.371,11.841,1.106c25.777,4.854,46.239,25.473,50.921,51.308v-0.001
			C248.568,430.778,247.462,434.962,244.793,438.158z"/>
	</g>
</g>
<g>
	<g>
		<path d="M472.223,78.401c-5.633,0-10.199,4.567-10.199,10.199v38.752c0,5.632,4.566,10.199,10.199,10.199
			s10.199-4.567,10.199-10.199V88.6C482.423,82.967,477.856,78.401,472.223,78.401z"/>
	</g>
</g>
<g>
	<g>
		<path d="M472.223,149.795c-5.633,0-10.199,4.567-10.199,10.199v5.101c0,5.632,4.566,10.199,10.199,10.199
			s10.199-4.567,10.199-10.199v-5.101C482.423,154.361,477.856,149.795,472.223,149.795z"/>
	</g>
</g>
<g>
</g>
<g>
</g>
<g>
</g>
<g>
</g>
<g>
</g>
<g>
</g>
<g>
</g>
<g>
</g>
<g>
</g>
<g>
</g>
<g>
</g>
<g>
</g>
<g>
</g>
<g>
</g>
<g>
</g>
</svg>
