<svg width="496" height="496" xmlns="http://www.w3.org/2000/svg">

 <g>
  <title>background</title>
  <rect fill="none" id="canvas_background" height="402" width="582" y="-1" x="-1"/>
 </g>
 <g>
  <title>Layer 1</title>
  <g id="svg_1">
   <g id="svg_2">
    <g id="svg_3">
     <path fill="#238fb1" id="svg_4" d="m416,136l-40,0l0,-83.312l-52.688,-52.688l-203.312,0l0,136l-40,0c-22.056,0 -40,17.944 -40,40l0,232c0,22.056 17.944,40 40,40l80,0l0,32l-16,0l0,16l208,0l0,-16l-16,0l0,-32l80,0c22.056,0 40,-17.944 40,-40l0,-232c0,-22.056 -17.944,-40 -40,-40zm-88,-108.688l20.688,20.688l-20.688,0l0,-20.688zm-192,-11.312l176,0l0,40.648c-17.008,-15.272 -39.4,-24.648 -64,-24.648c-52.936,0 -96,43.064 -96,96c0,52.936 43.064,96 96,96c52.936,0 96,-43.064 96,-96c0,-24.6 -9.376,-46.992 -24.648,-64l40.648,0l0,272l-224,0l0,-320zm191.592,120c-4.032,40.368 -38.184,72 -79.592,72c-44.112,0 -80,-35.888 -80,-80c0,-41.408 31.632,-75.568 72,-79.592l0,87.592l87.592,0zm-71.592,-16l0,-71.592c37.736,3.768 67.832,33.856 71.592,71.592l-71.592,0zm64,360l-144,0l0,-32l144,0l0,32zm120,-72c0,13.232 -10.768,24 -24,24l-336,0c-13.232,0 -24,-10.768 -24,-24l0,-8l384,0l0,8zm0,-24l-384,0l0,-208c0,-13.232 10.768,-24 24,-24l40,0l0,200l256,0l0,-200l40,0c13.232,0 24,10.768 24,24l0,208z"/>
     <rect fill="#238fb1" id="svg_5" height="16" width="192" y="240" x="152"/>
     <rect fill="#238fb1" id="svg_6" height="16" width="192" y="272" x="152"/>
     <rect fill="#238fb1" id="svg_7" height="16" width="160" y="304" x="152"/>
     <rect fill="#238fb1" id="svg_8" height="16" width="16" y="304" x="328"/>
     <polygon fill="#238fb1" id="svg_9" points="40,144 40,64 31.544,64 56,29.768 80.456,64 72,64 72,120 88,120 88,80 111.544,80 56,2.232 0.456,80 24,80      24,144    "/>
     <polygon fill="#238fb1" id="svg_10" points="495.544,56 472,56 472,16 456,16 456,72 464.456,72 440,106.232 415.544,72 424,72 424,0 408,0 408,56      384.456,56 440,133.768    "/>
    </g>
   </g>
  </g>
  <g id="svg_11"/>
  <g id="svg_12"/>
  <g id="svg_13"/>
  <g id="svg_14"/>
  <g id="svg_15"/>
  <g id="svg_16"/>
  <g id="svg_17"/>
  <g id="svg_18"/>
  <g id="svg_19"/>
  <g id="svg_20"/>
  <g id="svg_21"/>
  <g id="svg_22"/>
  <g id="svg_23"/>
  <g id="svg_24"/>
  <g id="svg_25"/>
 </g>
</svg>