<?xml version="1.0" encoding="iso-8859-1"?>
<!-- Generator: Adobe Illustrator 19.0.0, SVG Export Plug-In . SVG Version: 6.00 Build 0)  -->
<svg version="1.1" id="Layer_1" xmlns="http://www.w3.org/2000/svg" xmlns:xlink="http://www.w3.org/1999/xlink" x="0px" y="0px"
	 viewBox="0 0 496 496" style="enable-background:new 0 0 496 496;" xml:space="preserve">
<g>
	<g>
		<g>
			<path d="M416,136h-40V52.688L323.312,0H120v136H80c-22.056,0-40,17.944-40,40v232c0,22.056,17.944,40,40,40h80v32h-16v16h208v-16
				h-16v-32h80c22.056,0,40-17.944,40-40V176C456,153.944,438.056,136,416,136z M328,27.312L348.688,48H328V27.312z M136,16h176
				v40.648C294.992,41.376,272.6,32,248,32c-52.936,0-96,43.064-96,96c0,52.936,43.064,96,96,96c52.936,0,96-43.064,96-96
				c0-24.6-9.376-46.992-24.648-64H360v272H136V16z M327.592,136c-4.032,40.368-38.184,72-79.592,72c-44.112,0-80-35.888-80-80
				c0-41.408,31.632-75.568,72-79.592V136H327.592z M256,120V48.408c37.736,3.768,67.832,33.856,71.592,71.592H256z M320,480H176
				v-32h144V480z M440,408c0,13.232-10.768,24-24,24H80c-13.232,0-24-10.768-24-24v-8h384V408z M440,384H56V176
				c0-13.232,10.768-24,24-24h40v200h256V152h40c13.232,0,24,10.768,24,24V384z"/>
			<rect x="152" y="240" width="192" height="16"/>
			<rect x="152" y="272" width="192" height="16"/>
			<rect x="152" y="304" width="160" height="16"/>
			<rect x="328" y="304" width="16" height="16"/>
			<polygon points="40,144 40,64 31.544,64 56,29.768 80.456,64 72,64 72,120 88,120 88,80 111.544,80 56,2.232 0.456,80 24,80 
				24,144 			"/>
			<polygon points="495.544,56 472,56 472,16 456,16 456,72 464.456,72 440,106.232 415.544,72 424,72 424,0 408,0 408,56 
				384.456,56 440,133.768 			"/>
		</g>
	</g>
</g>
<g>
</g>
<g>
</g>
<g>
</g>
<g>
</g>
<g>
</g>
<g>
</g>
<g>
</g>
<g>
</g>
<g>
</g>
<g>
</g>
<g>
</g>
<g>
</g>
<g>
</g>
<g>
</g>
<g>
</g>
</svg>
