<?xml version="1.0" encoding="iso-8859-1"?>
<!-- Generator: Adobe Illustrator 19.0.0, SVG Export Plug-In . SVG Version: 6.00 Build 0)  -->
<svg version="1.1" id="Layer_1" xmlns="http://www.w3.org/2000/svg" xmlns:xlink="http://www.w3.org/1999/xlink" x="0px" y="0px"
	 viewBox="0 0 505 505" style="enable-background:new 0 0 505 505;" xml:space="preserve">
<circle style="fill:#90DFAA;" cx="252.5" cy="252.5" r="252.5"/>
<polygon style="fill:#FFFFFF;" points="325.6,86.1 325.6,139.7 379.1,139.7 379.1,418.9 125.9,418.9 125.9,86.1 "/>
<g>
	<polygon style="fill:#E6E9EE;" points="325.6,86.1 379.1,139.7 325.6,139.7 	"/>
	<rect x="148.8" y="104.9" style="fill:#E6E9EE;" width="97.2" height="11"/>
	<rect x="148.8" y="128.8" style="fill:#E6E9EE;" width="97.2" height="11"/>
	<rect x="148.8" y="152.6" style="fill:#E6E9EE;" width="63.7" height="11"/>
</g>
<rect x="317.1" y="240" style="fill:#FF7058;" width="35.2" height="146.7"/>
<rect x="262.3" y="275.2" style="fill:#324A5E;" width="35.2" height="111.5"/>
<rect x="207.5" y="313.3" style="fill:#ACB3BA;" width="35.2" height="73.4"/>
<rect x="152.7" y="289.9" style="fill:#84DBFF;" width="35.2" height="96.8"/>
<polygon style="fill:#324A5E;" points="225.8,265.2 165.7,237.2 169.1,230.1 224.4,255.8 280.9,204.2 332.3,174.8 336.2,181.7 
	285.2,210.8 "/>
<g>
	<circle style="fill:#84DBFF;" cx="334.2" cy="178.3" r="14.7"/>
	<circle style="fill:#84DBFF;" cx="282.8" cy="207.6" r="14.7"/>
	<circle style="fill:#84DBFF;" cx="225.1" cy="260.5" r="14.7"/>
	<circle style="fill:#84DBFF;" cx="167.4" cy="233.6" r="14.7"/>
</g>
<g>
</g>
<g>
</g>
<g>
</g>
<g>
</g>
<g>
</g>
<g>
</g>
<g>
</g>
<g>
</g>
<g>
</g>
<g>
</g>
<g>
</g>
<g>
</g>
<g>
</g>
<g>
</g>
<g>
</g>
</svg>
