<svg width="509.232" height="509.232" xmlns="http://www.w3.org/2000/svg">

 <g>
  <title>background</title>
  <rect fill="none" id="canvas_background" height="402" width="582" y="-1" x="-1"/>
 </g>
 <g>
  <title>Layer 1</title>
  <g id="svg_1">
   <g id="svg_2">
    <g id="svg_3">
     <path fill="#4aade3" id="svg_4" d="m195.88,250.087l15.36,-15.253l-81.067,-82.134l27.733,-27.947c4.066,-4.148 4.066,-10.786 0,-14.933c-15.284,-15.662 -15.284,-40.658 0,-56.32c14.901,-14.304 38.433,-14.304 53.333,0c4.119,4.212 10.872,4.288 15.084,0.169c0.057,-0.056 0.114,-0.112 0.169,-0.169l27.413,-27.413l20.375,21.333c-16.484,24.217 -13.723,56.675 6.613,77.76c20.186,20.853 52.558,23.887 76.267,7.147l20.267,20.693l-87.68,85.973l14.933,15.253l95.36,-94.08c4.136,-4.16 4.136,-10.88 0,-15.04l-34.667,-35.52c-4.119,-4.212 -10.872,-4.288 -15.084,-0.169c-0.057,0.056 -0.114,0.112 -0.169,0.169c-14.994,14.788 -39.086,14.788 -54.08,0c-14.998,-15.779 -14.762,-40.615 0.533,-56.107c4.065,-4.148 4.065,-10.786 0,-14.933l-35.093,-35.2c-4.119,-4.212 -10.872,-4.288 -15.084,-0.169c-0.057,0.056 -0.114,0.112 -0.169,0.169l-27.627,28.8c-23.709,-16.74 -56.08,-13.707 -76.267,7.147c-20.336,21.085 -23.097,53.543 -6.613,77.76l-28.053,28.16c-4.066,4.148 -4.066,10.786 0,14.933l88.213,89.921z"/>
     <path fill="#4aade3" id="svg_5" d="m509.16,235.367c-2.949,-13.396 -12.642,-24.301 -25.6,-28.8l-2.133,-0.64c-14.708,-4.296 -30.588,-0.203 -41.387,10.667l-142.187,140.266c-3.851,3.838 -9.07,5.987 -14.507,5.973l-8.746,0c1.493,-1.422 2.951,-2.951 4.373,-4.587c13.707,-17.167 20.037,-39.074 17.6,-60.907c-0.749,-5.302 -5.313,-9.226 -10.667,-9.173l-213.333,0c-2.835,-0.016 -5.56,1.097 -7.573,3.093l-64,64l15.04,15.04l60.693,-60.8l198.507,0c-0.197,12.653 -4.586,24.883 -12.48,34.773c-10.56,12.373 -28.053,18.56 -51.52,18.56c-5.891,0 -10.667,4.776 -10.667,10.667c0,5.891 4.776,10.667 10.667,10.667l72.427,0c11.057,0.058 21.685,-4.278 29.547,-12.053l141.76,-140.587c5.334,-5.244 13.082,-7.202 20.267,-5.12l1.173,0c6.261,2.024 10.922,7.298 12.16,13.76c1.611,6.929 -0.489,14.198 -5.547,19.2l-163.52,161.494c-3.901,3.761 -9.088,5.897 -14.507,5.973l-147.093,0c-11.057,-0.058 -21.685,4.278 -29.547,12.053l-55.787,55.04l15.04,15.147l55.573,-54.933c3.903,-3.891 9.209,-6.044 14.72,-5.973l146.987,0c11.057,0.058 21.685,-4.278 29.547,-12.053l163.307,-161.6c10.359,-10.173 14.682,-25.001 11.413,-39.147z"/>
    </g>
   </g>
  </g>
  <g id="svg_6"/>
  <g id="svg_7"/>
  <g id="svg_8"/>
  <g id="svg_9"/>
  <g id="svg_10"/>
  <g id="svg_11"/>
  <g id="svg_12"/>
  <g id="svg_13"/>
  <g id="svg_14"/>
  <g id="svg_15"/>
  <g id="svg_16"/>
  <g id="svg_17"/>
  <g id="svg_18"/>
  <g id="svg_19"/>
  <g id="svg_20"/>
 </g>
</svg>