<?xml version="1.0" encoding="UTF-8" standalone="no"?>
<!DOCTYPE svg PUBLIC "-//W3C//DTD SVG 1.1//EN" "http://www.w3.org/Graphics/SVG/1.1/DTD/svg11.dtd">
<svg version="1.1" xmlns="http://www.w3.org/2000/svg" xmlns:xlink="http://www.w3.org/1999/xlink" preserveAspectRatio="xMidYMid meet" viewBox="0 0 640 640" width="640" height="640"><defs><path d="M323.06 489.96C323.06 477.85 323.06 471.13 323.06 469.78C323.06 464.85 319.12 460.91 314.19 460.91C309.25 460.91 305.31 464.85 305.31 469.78C305.31 471.13 305.31 477.85 305.31 489.96C263.72 489.96 240.62 489.96 236 489.96C231.07 489.96 227.12 493.9 227.12 498.83C227.12 503.76 231.07 507.71 236 507.71C251.65 507.71 376.81 507.71 392.46 507.71C397.39 507.71 401.34 503.76 401.34 498.83C401.25 493.9 397.3 489.96 392.37 489.96C383.13 489.96 360.03 489.96 323.06 489.96Z" id="am82y7HjE"></path><path d="M517.36 147.99L518.29 148.09L519.22 148.22L520.13 148.39L521.03 148.59L521.91 148.83L522.78 149.1L523.64 149.41L524.48 149.74L525.3 150.11L526.11 150.51L526.9 150.94L527.67 151.4L528.42 151.89L529.15 152.4L529.86 152.94L530.55 153.51L531.21 154.11L531.86 154.73L532.47 155.37L533.07 156.03L533.64 156.72L534.18 157.43L534.69 158.16L535.18 158.91L535.64 159.68L536.07 160.47L536.47 161.28L536.84 162.1L537.18 162.94L537.48 163.8L537.75 164.67L537.99 165.56L538.19 166.45L538.36 167.37L538.49 168.29L538.59 169.22L538.65 170.17L538.67 171.12L538.67 440.19L538.65 441.14L538.59 442.08L538.49 443.02L538.36 443.94L538.19 444.85L537.99 445.75L537.75 446.64L537.48 447.51L537.18 448.36L536.84 449.2L536.47 450.03L536.07 450.83L535.64 451.62L535.18 452.39L534.69 453.14L534.18 453.87L533.64 454.58L533.07 455.27L532.47 455.94L531.86 456.58L531.21 457.2L530.55 457.79L529.86 458.36L529.15 458.9L528.42 459.42L527.67 459.91L526.9 460.37L526.11 460.79L525.3 461.19L524.48 461.56L523.64 461.9L522.78 462.21L521.91 462.48L521.03 462.72L520.13 462.92L519.22 463.09L518.29 463.22L517.36 463.31L516.42 463.37L515.46 463.39L124.54 463.39L123.58 463.37L122.64 463.31L121.71 463.22L120.78 463.09L119.87 462.92L118.97 462.72L118.09 462.48L117.22 462.21L116.36 461.9L115.52 461.56L114.7 461.19L113.89 460.79L113.1 460.37L112.33 459.91L111.58 459.42L110.85 458.9L110.14 458.36L109.45 457.79L108.79 457.2L108.14 456.58L107.53 455.94L106.93 455.27L106.36 454.58L105.82 453.87L105.31 453.14L104.82 452.39L104.36 451.62L103.93 450.83L103.53 450.03L103.16 449.2L102.82 448.36L102.52 447.51L102.25 446.64L102.01 445.75L101.81 444.85L101.64 443.94L101.51 443.02L101.41 442.08L101.35 441.14L101.33 440.19L101.33 384.98L101.34 384.56L101.37 384.15L101.41 383.74L101.46 383.33L101.54 382.93L101.63 382.54L101.73 382.15L101.85 381.77L101.98 381.4L102.12 381.03L102.28 380.67L102.46 380.32L102.64 379.97L102.84 379.64L103.05 379.31L103.28 378.99L103.51 378.68L103.76 378.38L104.02 378.09L104.28 377.81L104.56 377.55L104.85 377.29L105.15 377.04L105.46 376.81L105.78 376.58L106.11 376.37L106.44 376.17L106.79 375.99L107.14 375.81L107.5 375.65L107.87 375.51L108.24 375.37L108.62 375.26L109.01 375.15L109.4 375.07L109.8 374.99L110.21 374.94L110.62 374.9L111.03 374.87L111.45 374.86L111.54 374.86L111.62 374.86L111.7 374.87L111.78 374.87L111.87 374.87L111.95 374.88L112.03 374.88L112.11 374.89L112.18 374.89L112.26 374.9L112.34 374.91L112.42 374.91L112.5 374.92L112.57 374.93L112.65 374.94L112.72 374.95L112.8 374.96L112.88 374.98L112.95 374.99L113.03 375L113.1 375.02L113.17 375.03L113.25 375.05L113.32 375.06L113.4 375.08L113.47 375.09L113.55 375.11L113.62 375.13L113.69 375.15L113.77 375.16L113.84 375.18L113.92 375.2L113.99 375.22L114.07 375.24L114.14 375.26L114.22 375.28L114.29 375.31L114.37 375.33L114.44 375.35L114.52 375.37L194.36 375.37L194.73 373.39L195.17 371.44L195.68 369.51L196.26 367.6L196.9 365.73L197.6 363.89L198.37 362.08L199.19 360.3L200.08 358.55L201.02 356.84L202.02 355.17L203.08 353.54L204.19 351.94L205.35 350.39L206.57 348.88L207.84 347.41L209.15 345.99L210.51 344.61L211.92 343.28L213.38 342L214.87 340.76L216.41 339.58L217.99 338.45L219.61 337.38L221.27 336.36L222.97 335.39L224.7 334.49L226.47 333.64L228.27 332.86L230.1 332.13L231.96 331.47L233.85 330.87L235.77 330.34L237.72 329.87L239.69 329.47L241.68 329.15L243.7 328.89L245.74 328.7L247.79 328.59L249.87 328.55L250.29 328.56L250.71 328.59L251.12 328.63L251.52 328.68L251.92 328.76L252.31 328.84L252.7 328.95L253.08 329.07L253.46 329.2L253.82 329.34L254.18 329.5L254.54 329.68L254.88 329.86L255.22 330.06L255.54 330.27L255.86 330.5L256.17 330.73L256.47 330.98L256.76 331.24L257.04 331.5L257.31 331.78L257.57 332.07L257.81 332.37L258.05 332.68L258.27 333L258.48 333.33L258.68 333.66L258.87 334.01L259.04 334.36L259.2 334.72L259.35 335.09L259.48 335.46L259.6 335.84L259.7 336.23L259.79 336.62L259.86 337.02L259.92 337.43L259.96 337.84L259.98 338.25L259.99 338.67L259.98 339.09L259.96 339.51L259.92 339.92L259.86 340.32L259.79 340.72L259.7 341.12L259.6 341.5L259.48 341.88L259.35 342.26L259.2 342.63L259.04 342.99L258.87 343.34L258.68 343.68L258.48 344.02L258.27 344.35L258.05 344.66L257.81 344.97L257.57 345.27L257.31 345.56L257.04 345.84L256.76 346.11L256.47 346.37L256.17 346.62L255.86 346.85L255.54 347.07L255.22 347.29L254.88 347.48L254.54 347.67L254.18 347.84L253.82 348L253.46 348.15L253.08 348.28L252.7 348.4L252.31 348.5L251.92 348.59L251.52 348.66L251.12 348.72L250.71 348.76L250.29 348.79L249.87 348.79L248.63 348.81L247.41 348.88L246.19 348.98L244.99 349.12L243.79 349.31L242.62 349.53L241.45 349.79L240.3 350.09L239.16 350.42L238.04 350.79L236.94 351.2L235.85 351.64L234.78 352.11L233.73 352.62L232.7 353.16L231.69 353.73L230.7 354.34L229.73 354.97L228.78 355.64L227.85 356.33L226.95 357.06L226.07 357.81L225.22 358.59L224.39 359.39L223.59 360.22L222.81 361.08L222.06 361.96L221.34 362.87L220.65 363.8L219.98 364.75L219.35 365.72L218.75 366.72L218.18 367.74L217.64 368.77L217.13 369.83L216.66 370.9L216.22 371.99L215.81 373.1L215.45 374.23L215.11 375.37L255.6 375.37L255.92 373.43L256.31 371.5L256.75 369.6L257.25 367.72L257.8 365.86L258.41 364.02L259.07 362.21L259.79 360.42L260.55 358.67L261.36 356.94L262.23 355.23L263.14 353.56L264.1 351.92L265.11 350.3L266.16 348.73L267.25 347.18L268.39 345.67L269.58 344.19L270.8 342.75L272.07 341.34L273.37 339.98L274.72 338.65L276.1 337.36L277.52 336.11L278.98 334.91L280.47 333.74L282 332.62L283.56 331.54L285.15 330.51L286.78 329.53L288.43 328.59L290.12 327.7L291.83 326.86L293.57 326.07L295.34 325.33L297.14 324.64L298.96 324L300.8 323.42L302.67 322.89L304.56 322.42L304.58 322.41L304.62 322.4L304.7 322.39L304.8 322.36L304.93 322.33L305.1 322.3L305.28 322.26L305.5 322.21L305.74 322.16L306.02 322.11L306.31 322.05L306.64 322L306.99 321.94L307.36 321.87L307.76 321.81L308.18 321.74L308.63 321.68L309.11 321.61L309.6 321.55L310.12 321.49L310.66 321.42L311.23 321.36L311.82 321.3L312.42 321.25L313.05 321.2L313.7 321.15L314.38 321.1L315.07 321.06L315.78 321.03L316.51 321L317.26 320.97L318.03 320.95L318.82 320.94L319.62 320.94L320.44 320.94L321.28 320.95L322.14 320.97L323.01 321L323.9 321.04L324.8 321.09L327 321.33L329.18 321.64L331.33 322.02L333.46 322.47L335.56 323L337.63 323.59L339.68 324.25L341.69 324.98L343.68 325.77L345.63 326.63L347.55 327.54L349.43 328.52L351.28 329.56L353.09 330.66L354.85 331.81L356.58 333.02L358.27 334.28L359.91 335.6L361.51 336.97L363.06 338.39L364.57 339.86L366.03 341.38L367.43 342.94L368.79 344.55L370.09 346.21L371.35 347.91L372.54 349.65L373.68 351.43L374.76 353.25L375.78 355.1L376.74 357L377.64 358.93L378.48 360.89L379.25 362.88L379.96 364.91L380.6 366.97L381.17 369.06L381.67 371.17L382.1 373.31L382.46 375.48L422.74 375.48L422.41 374.33L422.04 373.21L421.64 372.1L421.2 371L420.73 369.93L420.22 368.88L419.68 367.84L419.12 366.82L418.51 365.83L417.88 364.85L417.22 363.9L416.53 362.97L415.81 362.07L415.07 361.18L414.29 360.33L413.49 359.49L412.67 358.69L411.82 357.91L410.94 357.16L410.04 356.44L409.11 355.74L408.17 355.08L407.2 354.44L406.21 353.84L405.2 353.26L404.17 352.72L403.12 352.21L402.05 351.74L400.96 351.3L399.85 350.89L398.73 350.52L397.59 350.19L396.44 349.89L395.27 349.63L394.09 349.41L392.89 349.23L391.68 349.08L390.46 348.98L389.23 348.92L387.98 348.9L387.56 348.89L387.15 348.86L386.74 348.82L386.33 348.76L385.93 348.69L385.54 348.6L385.15 348.5L384.77 348.38L384.4 348.25L384.03 348.11L383.67 347.95L383.32 347.77L382.97 347.59L382.64 347.39L382.31 347.18L381.99 346.95L381.68 346.72L381.38 346.47L381.09 346.21L380.81 345.94L380.54 345.66L380.29 345.38L380.04 345.08L379.8 344.77L379.58 344.45L379.37 344.12L379.17 343.79L378.98 343.44L378.81 343.09L378.65 342.73L378.51 342.36L378.37 341.99L378.26 341.61L378.15 341.22L378.07 340.82L377.99 340.42L377.94 340.02L377.89 339.61L377.87 339.19L377.86 338.78L377.87 338.36L377.89 337.94L377.94 337.53L377.99 337.13L378.07 336.73L378.15 336.33L378.26 335.94L378.37 335.56L378.51 335.19L378.65 334.82L378.81 334.46L378.98 334.11L379.17 333.77L379.37 333.43L379.58 333.1L379.8 332.78L380.04 332.47L380.29 332.18L380.54 331.89L380.81 331.61L381.09 331.34L381.38 331.08L381.68 330.83L381.99 330.6L382.31 330.37L382.64 330.16L382.97 329.96L383.32 329.78L383.67 329.6L384.03 329.45L384.4 329.3L384.77 329.17L385.15 329.05L385.54 328.95L385.93 328.86L386.33 328.79L386.74 328.73L387.15 328.69L387.56 328.66L387.98 328.65L390.06 328.69L392.12 328.8L394.15 328.99L396.17 329.25L398.17 329.58L400.14 329.97L402.08 330.44L404 330.97L405.89 331.57L407.75 332.23L409.59 332.96L411.38 333.74L413.15 334.59L414.88 335.5L416.58 336.46L418.24 337.48L419.86 338.56L421.44 339.68L422.98 340.87L424.48 342.1L425.93 343.38L427.34 344.71L428.7 346.09L430.02 347.51L431.28 348.98L432.5 350.49L433.66 352.05L434.77 353.64L435.83 355.27L436.83 356.95L437.78 358.66L438.66 360.4L439.49 362.18L440.25 363.99L440.96 365.83L441.6 367.71L442.17 369.61L442.68 371.54L443.12 373.49L443.49 375.48L486.74 375.48L487.15 375.48L487.57 375.51L487.98 375.55L488.38 375.61L488.78 375.68L489.18 375.77L489.57 375.87L489.95 375.99L490.32 376.12L490.69 376.27L491.05 376.43L491.4 376.6L491.74 376.78L492.08 376.98L492.41 377.2L492.73 377.42L493.04 377.65L493.33 377.9L493.62 378.16L493.9 378.43L494.17 378.71L494.43 379L494.68 379.3L494.91 379.6L495.14 379.92L495.35 380.25L495.55 380.59L495.73 380.93L495.91 381.28L496.07 381.64L496.21 382.01L496.34 382.38L496.46 382.77L496.56 383.15L496.65 383.55L496.72 383.95L496.78 384.35L496.82 384.76L496.85 385.18L496.86 385.6L496.85 386.02L496.82 386.43L496.78 386.84L496.72 387.25L496.65 387.65L496.56 388.04L496.46 388.43L496.34 388.81L496.21 389.18L496.07 389.55L495.91 389.91L495.73 390.26L495.55 390.61L495.35 390.94L495.14 391.27L494.91 391.59L494.68 391.9L494.43 392.2L494.17 392.49L493.9 392.76L493.62 393.03L493.33 393.29L493.04 393.54L492.73 393.77L492.41 394L492.08 394.21L491.74 394.41L491.4 394.59L491.05 394.77L490.69 394.93L490.32 395.07L489.95 395.2L489.57 395.32L489.18 395.42L488.78 395.51L488.38 395.59L487.98 395.64L487.57 395.68L487.15 395.71L486.74 395.72L121.57 395.72L121.57 440.29L121.58 440.41L121.58 440.53L121.6 440.65L121.61 440.77L121.63 440.89L121.66 441L121.69 441.11L121.73 441.22L121.76 441.33L121.81 441.44L121.85 441.55L121.91 441.65L121.96 441.75L122.02 441.85L122.08 441.95L122.15 442.04L122.22 442.13L122.29 442.22L122.36 442.3L122.44 442.38L122.53 442.46L122.61 442.54L122.7 442.61L122.79 442.68L122.88 442.75L122.98 442.81L123.08 442.87L123.18 442.92L123.28 442.97L123.39 443.02L123.49 443.06L123.6 443.1L123.71 443.14L123.83 443.17L123.94 443.19L124.06 443.21L124.18 443.23L124.3 443.24L124.42 443.25L124.54 443.25L515.46 443.25L515.58 443.25L515.7 443.24L515.82 443.23L515.94 443.21L516.06 443.19L516.17 443.17L516.29 443.14L516.4 443.1L516.51 443.06L516.61 443.02L516.72 442.97L516.82 442.92L516.92 442.87L517.02 442.81L517.12 442.75L517.21 442.68L517.3 442.61L517.39 442.54L517.47 442.46L517.56 442.38L517.64 442.3L517.71 442.22L517.78 442.13L517.85 442.04L517.92 441.95L517.98 441.85L518.04 441.75L518.09 441.65L518.15 441.55L518.19 441.44L518.24 441.33L518.27 441.22L518.31 441.11L518.34 441L518.37 440.89L518.39 440.77L518.4 440.65L518.42 440.53L518.42 440.41L518.43 440.29L518.43 171.12L518.42 171L518.42 170.88L518.4 170.76L518.39 170.64L518.37 170.52L518.34 170.41L518.31 170.3L518.27 170.18L518.24 170.07L518.19 169.97L518.15 169.86L518.09 169.76L518.04 169.66L517.98 169.56L517.92 169.46L517.85 169.37L517.78 169.28L517.71 169.19L517.64 169.11L517.56 169.02L517.47 168.95L517.39 168.87L517.3 168.8L517.21 168.73L517.12 168.66L517.02 168.6L516.92 168.54L516.82 168.49L516.72 168.44L516.61 168.39L516.51 168.35L516.4 168.31L516.29 168.27L516.17 168.24L516.06 168.22L515.94 168.19L515.82 168.18L515.7 168.17L515.58 168.16L515.46 168.16L406.08 168.16L405.66 168.15L405.24 168.12L404.83 168.08L404.43 168.02L404.03 167.95L403.63 167.86L403.25 167.76L402.86 167.64L402.49 167.51L402.12 167.36L401.76 167.21L401.41 167.03L401.07 166.85L400.73 166.65L400.4 166.44L400.09 166.21L399.78 165.98L399.48 165.73L399.19 165.47L398.91 165.2L398.64 164.92L398.38 164.63L398.13 164.34L397.9 164.03L397.68 163.71L397.46 163.38L397.27 163.04L397.08 162.7L396.91 162.35L396.75 161.99L396.6 161.62L396.47 161.25L396.35 160.87L396.25 160.48L396.16 160.08L396.09 159.68L396.03 159.28L395.99 158.87L395.96 158.45L395.96 158.03L395.96 157.62L395.99 157.2L396.03 156.79L396.09 156.39L396.16 155.99L396.25 155.59L396.35 155.2L396.47 154.82L396.6 154.45L396.75 154.08L396.91 153.72L397.08 153.37L397.27 153.02L397.46 152.69L397.68 152.36L397.9 152.04L398.13 151.73L398.38 151.43L398.64 151.15L398.91 150.87L399.19 150.6L399.48 150.34L399.78 150.09L400.09 149.86L400.4 149.63L400.73 149.42L401.07 149.22L401.41 149.04L401.76 148.86L402.12 148.7L402.49 148.56L402.86 148.43L403.25 148.31L403.63 148.21L404.03 148.12L404.43 148.05L404.83 147.99L405.24 147.95L405.66 147.92L406.08 147.91L515.46 147.91L516.42 147.93L517.36 147.99ZM315.96 341.13L314.43 341.27L312.9 341.46L311.4 341.7L309.91 341.98L308.44 342.32L306.99 342.71L305.56 343.15L304.15 343.63L302.76 344.16L301.4 344.73L300.06 345.35L298.74 346.01L297.45 346.72L296.19 347.46L294.95 348.25L293.74 349.07L292.56 349.94L291.41 350.84L290.3 351.78L289.21 352.75L288.16 353.76L287.14 354.8L286.16 355.88L285.21 356.99L284.3 358.13L283.43 359.3L282.6 360.5L281.8 361.73L281.05 362.98L280.34 364.26L279.67 365.57L279.04 366.9L278.46 368.26L277.92 369.64L277.43 371.04L276.99 372.47L276.59 373.91L276.25 375.37L361.91 375.37L361.56 373.91L361.16 372.47L360.71 371.04L360.21 369.64L359.67 368.26L359.08 366.9L358.46 365.57L357.78 364.26L357.07 362.98L356.31 361.73L355.52 360.5L354.68 359.3L353.81 358.13L352.9 356.99L351.95 355.88L350.97 354.8L349.96 353.76L348.91 352.75L347.82 351.78L346.71 350.84L345.56 349.94L344.38 349.07L343.18 348.25L341.94 347.46L340.68 346.72L339.4 346.01L338.08 345.35L336.74 344.73L335.38 344.16L334 343.63L332.59 343.15L331.16 342.71L329.71 342.32L328.24 341.98L326.76 341.7L325.25 341.46L323.73 341.27L322.2 341.13L320.65 341.05L319.08 341.02L317.51 341.05L315.96 341.13Z" id="gNLyr77IS"></path><path d="M242.53 144.53C230.87 144.53 137.62 144.53 125.97 144.53C112.4 144.53 101.33 155.6 101.33 169.17C101.33 187.91 101.33 337.85 101.33 356.6C101.33 362.57 106.11 367.34 112.08 367.34C118.05 367.34 122.82 362.57 122.82 356.6C122.82 337.85 122.82 187.91 122.82 169.17C122.82 167.43 124.23 166.02 125.97 166.02C137.62 166.02 230.87 166.02 242.53 166.02C248.5 166.02 253.27 161.25 253.27 155.28C253.27 149.31 248.5 144.53 242.53 144.53Z" id="f5s1FiVnTK"></path><path d="M357.48 269.67C357.48 268.56 357.49 262.99 357.5 252.96C368.95 252.98 375.3 252.99 376.57 252.99C381.38 253 385.24 249.16 385.24 244.35C385.25 242.62 385.27 228.84 385.27 227.12C385.28 221.26 383.62 215.48 380.48 210.49C379.15 208.38 368.47 191.5 367.13 189.39C365.82 187.38 365.21 185.02 365.22 182.65C365.23 175.74 365.31 120.39 365.32 113.47C365.33 102.98 361.59 92.82 354.69 84.86C351.5 81.14 325.93 51.44 322.73 47.72C321.07 45.8 318.71 44.74 316.18 44.74C316.18 44.74 316.18 44.74 316.18 44.74C313.64 44.74 311.28 45.87 309.61 47.79C306.44 51.5 281.07 81.13 277.9 84.83C271.15 92.78 267.38 102.83 267.36 113.24C267.35 120.11 267.27 175.11 267.26 181.99C267.26 184.61 266.47 187.06 264.98 189.15C263.55 191.21 252.12 207.63 250.69 209.69C247.01 214.93 245.07 221.05 245.06 227.43C245.06 229.1 245.04 242.47 245.04 244.14C245.03 248.95 248.88 252.8 253.69 252.81C254.74 252.82 259.98 252.86 269.43 252.92C269.41 262.95 269.41 268.51 269.4 269.63C269.4 274.44 273.24 278.29 278.05 278.3C282.86 278.31 286.72 274.46 286.72 269.65C286.72 268.54 286.73 262.97 286.75 252.95C286.8 252.89 286.83 252.87 286.83 252.86C291.65 252.87 295.5 249.02 295.51 244.21C295.51 239.4 291.67 235.55 286.86 235.54C285.23 235.54 277.06 235.53 262.37 235.51C262.38 230.68 262.38 228 262.38 227.46C262.39 224.66 263.27 221.95 264.84 219.59C266.27 217.54 277.7 201.11 279.13 199.06C282.64 193.99 284.48 188.13 284.49 181.92C284.5 175.06 284.58 120.13 284.59 113.27C284.6 106.97 286.88 100.85 290.91 96.13C292.61 94.17 301.08 84.36 316.32 66.69C331.51 84.35 339.95 94.16 341.64 96.12C345.75 100.94 348.01 107.06 348 113.36C347.99 120.28 347.91 175.62 347.9 182.54C347.89 188.23 349.46 193.74 352.51 198.55C353.85 200.66 364.53 217.54 365.86 219.65C367.26 221.84 367.96 224.38 367.95 227C367.95 227.57 367.95 230.43 367.94 235.57C353.98 235.55 346.22 235.54 344.67 235.54C339.86 235.53 336.01 239.38 336 244.19C336 247.33 337.66 250.05 340.19 251.54C340.19 253.35 340.17 267.83 340.16 269.64C340.16 274.45 344.09 278.31 348.81 278.32C353.62 278.32 357.47 274.48 357.48 269.67Z" id="bPUaYDlux"></path><path d="M306.15 303.25C306.15 307.58 309.42 311.41 313.74 311.66C318.39 311.9 322.31 308.23 322.31 303.58C322.31 300.06 322.31 271.93 322.31 268.41C322.31 263.92 318.72 260.33 314.23 260.33C314.23 260.33 314.23 260.33 314.23 260.33C309.74 260.33 306.15 263.92 306.15 268.41C306.15 275.38 306.15 299.77 306.15 303.25Z" id="b6Of5nuTQ"></path></defs><g><g><g><use xlink:href="#am82y7HjE" opacity="1" fill="#656563" fill-opacity="1"></use><g><use xlink:href="#am82y7HjE" opacity="1" fill-opacity="0" stroke="#000000" stroke-width="1" stroke-opacity="0"></use></g></g><g><use xlink:href="#gNLyr77IS" opacity="1" fill="#6e7275" fill-opacity="1"></use><g><use xlink:href="#gNLyr77IS" opacity="1" fill-opacity="0" stroke="#000000" stroke-width="1" stroke-opacity="0"></use></g></g><g><use xlink:href="#f5s1FiVnTK" opacity="1" fill="#6e7275" fill-opacity="1"></use><g><use xlink:href="#f5s1FiVnTK" opacity="1" fill-opacity="0" stroke="#000000" stroke-width="1" stroke-opacity="0"></use></g></g><g><use xlink:href="#bPUaYDlux" opacity="1" fill="#3c92ca" fill-opacity="1"></use><g><use xlink:href="#bPUaYDlux" opacity="1" fill-opacity="0" stroke="#000000" stroke-width="1" stroke-opacity="0"></use></g></g><g><use xlink:href="#b6Of5nuTQ" opacity="1" fill="#ca953c" fill-opacity="1"></use><g><use xlink:href="#b6Of5nuTQ" opacity="1" fill-opacity="0" stroke="#000000" stroke-width="1" stroke-opacity="0"></use></g></g></g></g></svg>