<?xml version='1.0' encoding='iso-8859-1'?>
<svg version="1.1" xmlns="http://www.w3.org/2000/svg" viewBox="0 0 463 463" xmlns:xlink="http://www.w3.org/1999/xlink" enable-background="new 0 0 463 463">
  <g>
    <g>
      <path d="m463,107.5c0-12.958-10.542-23.5-23.5-23.5h-200.5v-10.234c9.29-3.138 16-11.93 16-22.266 0-12.958-10.542-23.5-23.5-23.5s-23.5,10.542-23.5,23.5c0,10.336 6.71,19.128 16,22.266v10.234h-200.5c-12.958,0-23.5,10.542-23.5,23.5 0,10.336 6.71,19.128 16,22.266v281.734c0,12.958 10.542,23.5 23.5,23.5h384c12.958,0 23.5-10.542 23.5-23.5v-281.734c9.29-3.138 16-11.93 16-22.266zm-231.5-64.5c4.687,0 8.5,3.813 8.5,8.5s-3.813,8.5-8.5,8.5-8.5-3.813-8.5-8.5 3.813-8.5 8.5-8.5zm192,377h-384c-4.687,0-8.5-3.813-8.5-8.5v-280.5h401v280.5c0,4.687-3.813,8.5-8.5,8.5zm16-304h-416c-4.687,0-8.5-3.813-8.5-8.5s3.813-8.5 8.5-8.5h416c4.687,0 8.5,3.813 8.5,8.5s-3.813,8.5-8.5,8.5z"/>
      <path d="m172.803,344.803l147.197-147.197v21.894c0,4.142 3.358,7.5 7.5,7.5s7.5-3.358 7.5-7.5v-40c0-4.142-3.358-7.5-7.5-7.5h-40c-4.142,0-7.5,3.358-7.5,7.5s3.358,7.5 7.5,7.5h21.894l-147.197,147.197c-0.086,0.085-0.16,0.178-0.241,0.266-3.151-1.573-6.701-2.463-10.456-2.463-12.958,0-23.5,10.542-23.5,23.5s10.542,23.5 23.5,23.5 23.5-10.542 23.5-23.5c0-3.755-0.89-7.305-2.463-10.456 0.089-0.081 0.181-0.155 0.266-0.241zm-21.303,19.197c-4.687,0-8.5-3.813-8.5-8.5s3.813-8.5 8.5-8.5 8.5,3.813 8.5,8.5-3.813,8.5-8.5,8.5z"/>
      <path d="m130.197,216.803c1.464,1.464 3.384,2.197 5.303,2.197s3.839-0.732 5.303-2.197l10.697-10.697 10.697,10.697c1.464,1.464 3.384,2.197 5.303,2.197s3.839-0.732 5.303-2.197c2.929-2.929 2.929-7.678 0-10.606l-10.697-10.697 10.697-10.697c2.929-2.929 2.929-7.678 0-10.606-2.929-2.929-7.678-2.929-10.606,0l-10.697,10.697-10.697-10.697c-2.929-2.929-7.678-2.929-10.606,0-2.929,2.929-2.929,7.678 0,10.606l10.697,10.697-10.697,10.697c-2.929,2.928-2.929,7.678 0,10.606z"/>
      <path d="m210.197,216.803c1.464,1.464 3.384,2.197 5.303,2.197s3.839-0.732 5.303-2.197l10.697-10.697 10.697,10.697c1.464,1.464 3.384,2.197 5.303,2.197s3.839-0.732 5.303-2.197c2.929-2.929 2.929-7.678 0-10.606l-10.697-10.697 10.697-10.697c2.929-2.929 2.929-7.678 0-10.606-2.929-2.929-7.678-2.929-10.606,0l-10.697,10.697-10.697-10.697c-2.929-2.929-7.678-2.929-10.606,0-2.929,2.929-2.929,7.678 0,10.606l10.697,10.697-10.697,10.697c-2.929,2.928-2.929,7.678 0,10.606z"/>
      <path d="m130.197,296.803c1.464,1.464 3.384,2.197 5.303,2.197s3.839-0.732 5.303-2.197l10.697-10.697 10.697,10.697c1.464,1.464 3.384,2.197 5.303,2.197s3.839-0.732 5.303-2.197c2.929-2.929 2.929-7.678 0-10.606l-10.697-10.697 10.697-10.697c2.929-2.929 2.929-7.678 0-10.606-2.929-2.929-7.678-2.929-10.606,0l-10.697,10.697-10.697-10.697c-2.929-2.929-7.678-2.929-10.606,0-2.929,2.929-2.929,7.678 0,10.606l10.697,10.697-10.697,10.697c-2.929,2.928-2.929,7.678 0,10.606z"/>
      <path d="m332.803,334.197c-2.929-2.929-7.678-2.929-10.606,0l-10.697,10.697-10.697-10.697c-2.929-2.929-7.678-2.929-10.606,0-2.929,2.929-2.929,7.678 0,10.606l10.697,10.697-10.697,10.697c-2.929,2.929-2.929,7.678 0,10.606 1.464,1.464 3.384,2.197 5.303,2.197s3.839-0.732 5.303-2.197l10.697-10.697 10.697,10.697c1.464,1.464 3.384,2.197 5.303,2.197s3.839-0.732 5.303-2.197c2.929-2.929 2.929-7.678 0-10.606l-10.697-10.697 10.697-10.697c2.929-2.928 2.929-7.678 0-10.606z"/>
      <path d="m252.803,334.197c-2.929-2.929-7.678-2.929-10.606,0l-10.697,10.697-10.697-10.697c-2.929-2.929-7.678-2.929-10.606,0-2.929,2.929-2.929,7.678 0,10.606l10.697,10.697-10.697,10.697c-2.929,2.929-2.929,7.678 0,10.606 1.464,1.464 3.384,2.197 5.303,2.197s3.839-0.732 5.303-2.197l10.697-10.697 10.697,10.697c1.464,1.464 3.384,2.197 5.303,2.197s3.839-0.732 5.303-2.197c2.929-2.929 2.929-7.678 0-10.606l-10.697-10.697 10.697-10.697c2.929-2.928 2.929-7.678 0-10.606z"/>
      <path d="m332.803,254.197c-2.929-2.929-7.678-2.929-10.606,0l-10.697,10.697-10.697-10.697c-2.929-2.929-7.678-2.929-10.606,0-2.929,2.929-2.929,7.678 0,10.606l10.697,10.697-10.697,10.697c-2.929,2.929-2.929,7.678 0,10.606 1.464,1.464 3.384,2.197 5.303,2.197s3.839-0.732 5.303-2.197l10.697-10.697 10.697,10.697c1.464,1.464 3.384,2.197 5.303,2.197s3.839-0.732 5.303-2.197c2.929-2.929 2.929-7.678 0-10.606l-10.697-10.697 10.697-10.697c2.929-2.928 2.929-7.678 0-10.606z"/>
    </g>
  </g>
</svg>
