<?xml version="1.0" encoding="iso-8859-1"?>
<!-- Generator: Adobe Illustrator 19.0.0, SVG Export Plug-In . SVG Version: 6.00 Build 0)  -->
<svg version="1.1" id="Capa_1" xmlns="http://www.w3.org/2000/svg" xmlns:xlink="http://www.w3.org/1999/xlink" x="0px" y="0px"
	 viewBox="0 0 512 512" style="enable-background:new 0 0 512 512;" xml:space="preserve">
<g>
	<rect x="52.966" y="44.138" style="fill:#3B97D3;" width="300.138" height="414.897"/>
	<g>
		<path style="fill:#2C3E50;" d="M353.103,70.621V17.655C353.074,7.917,345.187,0.029,335.448,0H70.621
			c-9.739,0.029-17.626,7.917-17.655,17.655v52.966H353.103z"/>
		<path style="fill:#2C3E50;" d="M353.103,432.552v61.793c-0.029,9.739-7.917,17.626-17.655,17.655H70.621
			c-9.739-0.029-17.626-7.917-17.655-17.655v-61.793H353.103z"/>
	</g>
	<path style="fill:#35495E;" d="M211.862,485.517h-17.655c-4.875,0-8.828-3.952-8.828-8.828s3.952-8.828,8.828-8.828h17.655
		c4.875,0,8.828,3.952,8.828,8.828S216.737,485.517,211.862,485.517z"/>
	<path style="fill:#2980BA;" d="M353.103,105.931c0,0-70.621,256-300.138,264.828v61.793h300.138V105.931z"/>
	<g>
		<path style="fill:#89C1E5;" d="M79.448,150.069c-4.875,0-8.828-3.952-8.828-8.828V97.103c0-4.875,3.952-8.828,8.828-8.828
			c4.875,0,8.828,3.952,8.828,8.828v44.138C88.276,146.117,84.324,150.069,79.448,150.069z"/>
		<circle style="fill:#89C1E5;" cx="79.448" cy="176.552" r="8.828"/>
	</g>
	<path style="fill:#F29C1F;" d="M211.862,158.897h229.517c9.751,0,17.655,7.904,17.655,17.655v158.897
		c0,9.751-7.905,17.655-17.655,17.655H211.862c-9.751,0-17.655-7.905-17.655-17.655V176.552
		C194.207,166.801,202.111,158.897,211.862,158.897z"/>
	<path style="fill:#F0C419;" d="M453.826,347.895c-3.27,3.353-7.763,5.233-12.447,5.208H211.862
		c-4.684,0.025-9.177-1.855-12.447-5.208l122.792-122.792l13.241,4.414L453.826,347.895z"/>
	<path style="fill:#F3D55B;" d="M459.034,176.11l-132.414,97.545L194.207,176.11c0.281-9.56,8.091-17.175,17.655-17.214h229.517
		C450.943,158.935,458.754,166.551,459.034,176.11z"/>
</g>
<g>
</g>
<g>
</g>
<g>
</g>
<g>
</g>
<g>
</g>
<g>
</g>
<g>
</g>
<g>
</g>
<g>
</g>
<g>
</g>
<g>
</g>
<g>
</g>
<g>
</g>
<g>
</g>
<g>
</g>
</svg>
