<svg xmlns="http://www.w3.org/2000/svg" height="511pt" version="1.1" viewBox="-61 1 511 511.99999" width="511pt">
<g id="surface1">
<path d="M 132.914062 459.035156 L 344.777344 459.035156 L 344.777344 247.171875 C 344.84375 364.113281 250.101562 458.964844 133.160156 459.035156 C 133.078125 459.035156 132.996094 459.035156 132.914062 459.035156 Z M 132.914062 459.035156 " style=" stroke:none;fill-rule:nonzero;fill:rgb(60.784314%,98.431373%,100%);fill-opacity:1;" />
<path d="M 44.636719 52.964844 L 44.636719 459.035156 L 132.914062 459.035156 C 249.851562 459.101562 344.707031 364.359375 344.773438 247.417969 C 344.773438 247.335938 344.773438 247.253906 344.773438 247.171875 L 344.773438 52.964844 Z M 44.636719 52.964844 " style=" stroke:none;fill-rule:nonzero;fill:rgb(74.117647%,99.215686%,100%);fill-opacity:1;" />
<path d="M 344.777344 26.484375 C 344.777344 15.808594 328.964844 0 309.464844 0 L 79.949219 0 C 60.445312 0 44.636719 15.808594 44.636719 35.3125 L 44.636719 52.964844 L 344.777344 52.964844 Z M 344.777344 26.484375 " style=" stroke:none;fill-rule:nonzero;fill:rgb(34.509804%,34.901961%,35.686275%);fill-opacity:1;" />
<path d="M 44.636719 485.515625 C 44.636719 496.191406 60.449219 512 79.949219 512 L 309.464844 512 C 328.964844 512 344.777344 496.191406 344.777344 476.6875 L 344.777344 459.035156 L 44.636719 459.035156 Z M 44.636719 485.515625 " style=" stroke:none;fill-rule:nonzero;fill:rgb(34.509804%,34.901961%,35.686275%);fill-opacity:1;" />
<path d="M 0.5 176.550781 L 388.914062 176.550781 L 388.914062 123.585938 L 0.5 123.585938 Z M 0.5 176.550781 " style=" stroke:none;fill-rule:nonzero;fill:rgb(100%,68.627451%,27.45098%);fill-opacity:1;" />
<path d="M 0.5 388.414062 L 318.292969 388.414062 L 318.292969 317.792969 L 388.914062 317.792969 L 388.914062 176.550781 L 0.5 176.550781 Z M 0.5 388.414062 " style=" stroke:none;fill-rule:nonzero;fill:rgb(100%,85.490196%,26.666667%);fill-opacity:1;" />
<path d="M 318.292969 388.414062 L 388.914062 317.792969 L 318.292969 317.792969 Z M 318.292969 388.414062 " style=" stroke:none;fill-rule:nonzero;fill:rgb(92.156863%,74.901961%,0%);fill-opacity:1;" />
<path d="M 185.878906 450.207031 L 203.535156 450.207031 L 203.535156 467.863281 L 185.878906 467.863281 Z M 185.878906 450.207031 " style=" stroke:none;fill-rule:nonzero;fill:rgb(94.509804%,94.901961%,94.901961%);fill-opacity:1;" />
<path d="M 185.878906 17.65625 L 203.535156 17.65625 L 203.535156 35.3125 L 185.878906 35.3125 Z M 185.878906 17.65625 " style=" stroke:none;fill-rule:nonzero;fill:rgb(94.509804%,94.901961%,94.901961%);fill-opacity:1;" />
<path d="M 26.980469 141.242188 L 44.636719 141.242188 L 44.636719 158.898438 L 26.980469 158.898438 Z M 26.980469 141.242188 " style=" stroke:none;fill-rule:nonzero;fill:rgb(94.509804%,94.901961%,94.901961%);fill-opacity:1;" />
<path d="M 62.292969 141.242188 L 79.949219 141.242188 L 79.949219 158.898438 L 62.292969 158.898438 Z M 62.292969 141.242188 " style=" stroke:none;fill-rule:nonzero;fill:rgb(94.509804%,94.901961%,94.901961%);fill-opacity:1;" />
<path d="M 97.601562 141.242188 L 115.257812 141.242188 L 115.257812 158.898438 L 97.601562 158.898438 Z M 97.601562 141.242188 " style=" stroke:none;fill-rule:nonzero;fill:rgb(94.509804%,94.901961%,94.901961%);fill-opacity:1;" />
<path d="M 71.121094 238.34375 L 35.808594 238.34375 C 30.933594 238.34375 26.980469 234.394531 26.980469 229.515625 C 26.980469 224.640625 30.933594 220.6875 35.808594 220.6875 L 71.121094 220.6875 C 75.996094 220.6875 79.949219 224.640625 79.949219 229.515625 C 79.949219 234.394531 75.996094 238.34375 71.121094 238.34375 Z M 71.121094 238.34375 " style=" stroke:none;fill-rule:nonzero;fill:rgb(94.509804%,94.901961%,94.901961%);fill-opacity:1;" />
<path d="M 282.980469 238.34375 L 106.429688 238.34375 C 101.554688 238.34375 97.601562 234.394531 97.601562 229.515625 C 97.601562 224.640625 101.554688 220.6875 106.429688 220.6875 L 282.984375 220.6875 C 287.859375 220.6875 291.8125 224.640625 291.8125 229.515625 C 291.808594 234.394531 287.859375 238.34375 282.980469 238.34375 Z M 282.980469 238.34375 " style=" stroke:none;fill-rule:nonzero;fill:rgb(94.509804%,94.901961%,94.901961%);fill-opacity:1;" />
<path d="M 71.121094 273.65625 L 35.808594 273.65625 C 30.933594 273.65625 26.980469 269.703125 26.980469 264.828125 C 26.980469 259.953125 30.933594 256 35.808594 256 L 71.121094 256 C 75.996094 256 79.949219 259.953125 79.949219 264.828125 C 79.949219 269.703125 75.996094 273.65625 71.121094 273.65625 Z M 71.121094 273.65625 " style=" stroke:none;fill-rule:nonzero;fill:rgb(94.509804%,94.901961%,94.901961%);fill-opacity:1;" />
<path d="M 282.980469 273.65625 L 106.429688 273.65625 C 101.554688 273.65625 97.601562 269.703125 97.601562 264.828125 C 97.601562 259.953125 101.554688 256 106.429688 256 L 282.984375 256 C 287.859375 256 291.8125 259.953125 291.8125 264.828125 C 291.808594 269.703125 287.859375 273.65625 282.980469 273.65625 Z M 282.980469 273.65625 " style=" stroke:none;fill-rule:nonzero;fill:rgb(94.509804%,94.901961%,94.901961%);fill-opacity:1;" />
<path d="M 71.121094 308.964844 L 35.808594 308.964844 C 30.933594 308.964844 26.980469 305.015625 26.980469 300.136719 C 26.980469 295.261719 30.933594 291.3125 35.808594 291.3125 L 71.121094 291.3125 C 75.996094 291.3125 79.949219 295.261719 79.949219 300.136719 C 79.949219 305.011719 75.996094 308.964844 71.121094 308.964844 Z M 71.121094 308.964844 " style=" stroke:none;fill-rule:nonzero;fill:rgb(94.509804%,94.901961%,94.901961%);fill-opacity:1;" />
<path d="M 282.980469 308.964844 L 106.429688 308.964844 C 101.554688 308.964844 97.601562 305.015625 97.601562 300.136719 C 97.601562 295.261719 101.554688 291.3125 106.429688 291.3125 L 282.984375 291.3125 C 287.859375 291.3125 291.8125 295.261719 291.8125 300.136719 C 291.808594 305.011719 287.859375 308.964844 282.980469 308.964844 Z M 282.980469 308.964844 " style=" stroke:none;fill-rule:nonzero;fill:rgb(94.509804%,94.901961%,94.901961%);fill-opacity:1;" />
<path d="M 71.121094 344.277344 L 35.808594 344.277344 C 30.933594 344.277344 26.980469 340.324219 26.980469 335.449219 C 26.980469 330.574219 30.933594 326.621094 35.808594 326.621094 L 71.121094 326.621094 C 75.996094 326.621094 79.949219 330.574219 79.949219 335.449219 C 79.949219 340.324219 75.996094 344.277344 71.121094 344.277344 Z M 71.121094 344.277344 " style=" stroke:none;fill-rule:nonzero;fill:rgb(94.509804%,94.901961%,94.901961%);fill-opacity:1;" />
<path d="M 282.980469 344.277344 L 106.429688 344.277344 C 101.554688 344.277344 97.601562 340.324219 97.601562 335.449219 C 97.601562 330.574219 101.554688 326.621094 106.429688 326.621094 L 282.984375 326.621094 C 287.859375 326.621094 291.8125 330.574219 291.8125 335.449219 C 291.808594 340.324219 287.859375 344.277344 282.980469 344.277344 Z M 282.980469 344.277344 " style=" stroke:none;fill-rule:nonzero;fill:rgb(94.509804%,94.901961%,94.901961%);fill-opacity:1;" />
</g>
</svg>